<svg aria-hidden="true" style="width:0;height:0;position:absolute;overflow:hidden" xmlns="http://www.w3.org/2000/svg"><defs><symbol id="icon-logo" viewBox="0 0 32 32"><path d="M0 4a4 4 0 0 1 4-4h24a4 4 0 0 1 4 4v4c0 13.255-10.745 24-24 24H4a4 4 0 0 1-4-4V4z"/></symbol><symbol id="icon-vector" viewBox="0 0 59 32"><path d="M55.993 3.973A3.968 3.968 0 0 0 53.864.457a4.024 4.024 0 0 0-3.046-.279 3.999 3.999 0 0 0-1.37.74l-21.393 17.77L6.623 1.553A3.999 3.999 0 0 0 3.685.688a4.01 4.01 0 0 0-2.689 1.46 3.967 3.967 0 0 0-.974 3.026 3.968 3.968 0 0 0 1.573 2.765l23.947 19.158a4.008 4.008 0 0 0 5.068 0L54.557 7.265c.483-.398.865-.903 1.115-1.475s.36-1.194.322-1.817z"/></symbol><symbol id="icon-close-black" viewBox="0 0 32 32"><path d="m26.667 7.303-1.97-1.97-7.808 7.808-7.808-7.808-1.97 1.97 7.808 7.808-7.808 7.808 1.97 1.97 7.808-7.808 7.808 7.808 1.97-1.97-7.808-7.808 7.808-7.808z"/></symbol><symbol id="icon-email" viewBox="0 0 43 32"><path d="M37.333 0h-32c-2.2 0-3.98 1.8-3.98 4l-.02 24c0 2.2 1.8 4 4 4h32c2.2 0 4-1.8 4-4V4c0-2.2-1.8-4-4-4zm-.8 8.5-14.14 8.84c-.64.4-1.48.4-2.12 0L6.133 8.5c-.5-.32-.8-.86-.8-1.44 0-1.34 1.46-2.14 2.6-1.44l13.4 8.38 13.4-8.38c1.14-.7 2.6.1 2.6 1.44 0 .58-.3 1.12-.8 1.44z"/></symbol><symbol id="icon-phone" viewBox="0 0 32 32"><path d="m27.419 20.852-4.201-.48a3.293 3.293 0 0 0-2.713.943l-3.044 3.044A24.888 24.888 0 0 1 6.56 13.458l3.06-3.06a3.293 3.293 0 0 0 .943-2.713l-.48-4.168A3.31 3.31 0 0 0 6.791.589H3.929C2.06.589.505 2.144.621 4.013c.877 14.126 12.174 25.407 26.284 26.284 1.869.116 3.424-1.439 3.424-3.308v-2.861c.016-1.671-1.241-3.077-2.911-3.275z"/></symbol><symbol id="icon-user" viewBox="0 0 32 32"><path d="M16 16c4.42 0 8-3.58 8-8s-3.58-8-8-8-8 3.58-8 8 3.58 8 8 8zm0 4c-5.34 0-16 2.68-16 8v2c0 1.1.9 2 2 2h28c1.1 0 2-.9 2-2v-2c0-5.32-10.66-8-16-8z"/></symbol><symbol id="icon-menu" viewBox="0 0 32 32"><path d="M6.4 11.734V9.6h19.2v2.134H6.4zm0 5.332h19.2v-2.133H6.4v2.133zm0 5.334h19.2v-2.134H6.4V22.4z"/></symbol><symbol id="icon-close-menu" viewBox="0 0 32 32"><path d="M23.734 10.304 22.23 8.8l-5.963 5.962L10.305 8.8l-1.504 1.504 5.962 5.962-5.962 5.963 1.504 1.504 5.962-5.963 5.963 5.963 1.504-1.504-5.963-5.963 5.963-5.962z"/></symbol><symbol id="icon-location" viewBox="0 0 32 32"><path d="M16 1.333c3.183 0 6.235 1.325 8.485 3.682S28 10.57 28 13.904c0 6.007-3.87 11.537-11.464 16.599a.963.963 0 0 1-1.072 0C7.87 25.441 4 19.912 4 13.904c0-3.334 1.264-6.532 3.515-8.889S12.818 1.333 16 1.333zm0 8.381c-1.061 0-2.078.441-2.828 1.227S12 12.793 12 13.904s.421 2.177 1.172 2.963S14.94 18.094 16 18.094c1.061 0 2.078-.441 2.828-1.227S20 15.015 20 13.904s-.421-2.177-1.172-2.963S17.06 9.714 16 9.714z"/></symbol><symbol id="icon-menu" viewBox="0 0 32 32"><path d="M6.4 11.734V9.6h19.2v2.134H6.4zm0 5.332h19.2v-2.133H6.4v2.133zm0 5.334h19.2v-2.134H6.4V22.4z"/></symbol></defs></svg>