<svg aria-hidden="true" style="width:0;height:0;position:absolute;overflow:hidden" xmlns="http://www.w3.org/2000/svg"><defs><symbol id="icon-logo" viewBox="0 0 32 32"><path d="M0 4a4 4 0 0 1 4-4h24a4 4 0 0 1 4 4v4c0 13.255-10.745 24-24 24H4a4 4 0 0 1-4-4V4z"/></symbol><symbol id="icon-vector" viewBox="0 0 59 32"><path d="M55.993 3.973A3.968 3.968 0 0 0 53.864.457a4.024 4.024 0 0 0-3.046-.279 3.999 3.999 0 0 0-1.37.74l-21.393 17.77L6.623 1.553A3.999 3.999 0 0 0 3.685.688a4.01 4.01 0 0 0-2.689 1.46 3.967 3.967 0 0 0-.974 3.026 3.968 3.968 0 0 0 1.573 2.765l23.947 19.158a4.008 4.008 0 0 0 5.068 0L54.557 7.265c.483-.398.865-.903 1.115-1.475s.36-1.194.322-1.817z"/></symbol><symbol id="icon-close-black" viewBox="0 0 32 32"><path d="m26.667 7.303-1.97-1.97-7.808 7.808-7.808-7.808-1.97 1.97 7.808 7.808-7.808 7.808 1.97 1.97 7.808-7.808 7.808 7.808 1.97-1.97-7.808-7.808 7.808-7.808z"/></symbol><symbol id="icon-email" viewBox="0 0 43 32"><path d="M37.333 0h-32c-2.2 0-3.98 1.8-3.98 4l-.02 24c0 2.2 1.8 4 4 4h32c2.2 0 4-1.8 4-4V4c0-2.2-1.8-4-4-4zm-.8 8.5-14.14 8.84c-.64.4-1.48.4-2.12 0L6.133 8.5c-.5-.32-.8-.86-.8-1.44 0-1.34 1.46-2.14 2.6-1.44l13.4 8.38 13.4-8.38c1.14-.7 2.6.1 2.6 1.44 0 .58-.3 1.12-.8 1.44z"/></symbol><symbol id="icon-phone" viewBox="0 0 32 32"><path d="m27.419 20.852-4.201-.48a3.293 3.293 0 0 0-2.713.943l-3.044 3.044A24.888 24.888 0 0 1 6.56 13.458l3.06-3.06a3.293 3.293 0 0 0 .943-2.713l-.48-4.168A3.31 3.31 0 0 0 6.791.589H3.929C2.06.589.505 2.144.621 4.013c.877 14.126 12.174 25.407 26.284 26.284 1.869.116 3.424-1.439 3.424-3.308v-2.861c.016-1.671-1.241-3.077-2.911-3.275z"/></symbol><symbol id="icon-user" viewBox="0 0 32 32"><path d="M16 16c4.42 0 8-3.58 8-8s-3.58-8-8-8-8 3.58-8 8 3.58 8 8 8zm0 4c-5.34 0-16 2.68-16 8v2c0 1.1.9 2 2 2h28c1.1 0 2-.9 2-2v-2c0-5.32-10.66-8-16-8z"/></symbol><symbol id="icon-menu" viewBox="0 0 32 32"><path d="M6.4 11.734V9.6h19.2v2.134H6.4zm0 5.332h19.2v-2.133H6.4v2.133zm0 5.334h19.2v-2.134H6.4V22.4z"/></symbol><symbol id="icon-close-menu" viewBox="0 0 32 32"><path d="M23.734 10.304 22.23 8.8l-5.963 5.962L10.305 8.8l-1.504 1.504 5.962 5.962-5.962 5.963 1.504 1.504 5.962-5.963 5.963 5.963 1.504-1.504-5.963-5.963 5.963-5.962z"/></symbol><symbol id="icon-location" viewBox="0 0 32 32"><path d="M16 1.333c3.183 0 6.235 1.325 8.485 3.682S28 10.57 28 13.904c0 6.007-3.87 11.537-11.464 16.599a.963.963 0 0 1-1.072 0C7.87 25.441 4 19.912 4 13.904c0-3.334 1.264-6.532 3.515-8.889S12.818 1.333 16 1.333zm0 8.381c-1.061 0-2.078.441-2.828 1.227S12 12.793 12 13.904s.421 2.177 1.172 2.963S14.94 18.094 16 18.094c1.061 0 2.078-.441 2.828-1.227S20 15.015 20 13.904s-.421-2.177-1.172-2.963S17.06 9.714 16 9.714z"/></symbol><symbol id="icon-menu" viewBox="0 0 32 32"><path d="M6.4 11.734V9.6h19.2v2.134H6.4zm0 5.332h19.2v-2.133H6.4v2.133zm0 5.334h19.2v-2.134H6.4V22.4z"/></symbol><symbol id="icon-villa" viewBox="0 0 32 32"><path d="M9.333 28h-4C4.6 28 4 27.4 4 26.667v-15.08c0-.56.333-1.053.853-1.253l14.667-5.64a1.33 1.33 0 0 1 1.663.629c.1.193.152.407.15.625v7.387H10.666c-.733 0-1.333.6-1.333 1.333v13.333zm13.334-12h-9.333c-.733 0-1.333.6-1.333 1.333v9.333c0 .733.6 1.333 1.333 1.333h5.333v-5.333c0-.733.6-1.333 1.333-1.333s1.333.6 1.333 1.333v5.333h5.333c.733 0 1.333-.6 1.333-1.333V15.999c0-1.467-1.2-2.667-2.667-2.667s-2.667 1.2-2.667 2.667z"/></symbol><symbol id="icon-apartment" viewBox="0 0 32 32"><path d="M22.667 14.667v-8C22.667 5.2 21.467 4 20 4h-8a2.675 2.675 0 0 0-2.667 2.667v2.667H6.666a2.675 2.675 0 0 0-2.667 2.667v13.333c0 1.467 1.2 2.667 2.667 2.667h8v-5.333h2.667v5.333h8c1.467 0 2.667-1.2 2.667-2.667v-8c0-1.467-1.2-2.667-2.667-2.667h-2.667zM9.333 25.333H6.666v-2.667h2.667v2.667zm0-5.333H6.666v-2.667h2.667V20zm0-5.333H6.666V12h2.667v2.667zM14.667 20H12v-2.667h2.667V20zm0-5.333H12V12h2.667v2.667zm0-5.334H12V6.666h2.667v2.667zM20 20h-2.667v-2.667H20V20zm0-5.333h-2.667V12H20v2.667zm0-5.334h-2.667V6.666H20v2.667zm5.333 16h-2.667v-2.667h2.667v2.667zm0-5.333h-2.667v-2.667h2.667V20z"/></symbol><symbol id="icon-house" viewBox="0 0 32 32"><path d="M28 14.443V26a2.003 2.003 0 0 1-1.055 1.768 1.933 1.933 0 0 1-.942.232h-6.007a.997.997 0 0 1-1-1v-6.001a.997.997 0 0 0-1-1h-4a.997.997 0 0 0-1 1V27a.997.997 0 0 1-1 1H6.001a1.996 1.996 0 0 1-1.498-.676 2.056 2.056 0 0 1-.501-1.37V14.442a2.011 2.011 0 0 1 .654-1.48l9.999-9.092a1.993 1.993 0 0 1 2.69 0l10.001 9.092a1.995 1.995 0 0 1 .654 1.48z"/></symbol><symbol id="icon-arrow-next" viewBox="0 0 32 32"><path d="M13.324 6.669a1.316 1.316 0 0 0-1.172.71 1.34 1.34 0 0 0 .154 1.472l5.923 7.131-5.712 7.144a1.337 1.337 0 0 0 .198 1.876 1.323 1.323 0 0 0 1.524.159c.159-.09.297-.212.406-.359l6.386-7.982a1.34 1.34 0 0 0 0-1.69L14.42 7.148c-.133-.161-.301-.288-.492-.372s-.398-.12-.606-.107z"/></symbol><symbol id="icon-arrow-prev" viewBox="0 0 32 32"><path d="M20.009 25.331a1.316 1.316 0 0 0 1.172-.71 1.34 1.34 0 0 0-.154-1.472l-5.923-7.131 5.712-7.144a1.337 1.337 0 0 0-.198-1.876 1.323 1.323 0 0 0-1.524-.159c-.159.09-.297.212-.406.359l-6.386 7.982a1.34 1.34 0 0 0 0 1.69l6.611 7.982c.133.161.301.288.492.372s.398.12.605.107z"/></symbol><symbol id="icon-fire" viewBox="0 0 32 32"><path d="M26.066 14.662a10.87 10.87 0 0 0-2.591-3.6l-.909-.834a.25.25 0 0 0-.338.002.251.251 0 0 0-.068.102l-.406 1.166c-.253.731-.719 1.478-1.378 2.213-.044.047-.094.059-.128.063s-.087-.003-.134-.047a.18.18 0 0 1-.062-.15c.116-1.881-.447-4.003-1.678-6.313-1.019-1.919-2.434-3.416-4.203-4.459l-1.291-.759a.25.25 0 0 0-.375.228l.069 1.5c.047 1.025-.072 1.931-.353 2.684a8.926 8.926 0 0 1-1.469 2.547 9.281 9.281 0 0 1-1.484 1.441 11.014 11.014 0 0 0-3.134 3.797 10.872 10.872 0 0 0-1.131 4.822c0 1.475.291 2.903.866 4.25a10.98 10.98 0 0 0 5.856 5.8c1.356.569 2.794.856 4.278.856s2.922-.288 4.278-.853a10.914 10.914 0 0 0 3.497-2.334c1.013-1 1.806-2.169 2.359-3.466.574-1.343.869-2.789.866-4.25 0-1.525-.312-3.006-.934-4.403z"/></symbol><symbol id="icon-wallet" viewBox="0 0 32 32"><path d="M25.6 9.6h-20v-.8l17.6-1.408V8.8h2.4V6.4c0-1.76-1.426-2.995-3.166-2.747L6.368 5.947C4.626 6.197 3.2 7.84 3.2 9.6v16a3.2 3.2 0 0 0 3.2 3.2h19.2a3.2 3.2 0 0 0 3.2-3.2V12.8a3.2 3.2 0 0 0-3.2-3.2zm-2.4 11.21a2.4 2.4 0 0 1-1.696-4.1 2.392 2.392 0 0 1 1.698-.702 2.403 2.403 0 0 1 1.696 4.099 2.403 2.403 0 0 1-1.698.703z"/></symbol><symbol id="icon-bath" viewBox="0 0 33 32"><path d="M27.039 15.955H5.961c-.83 0-1.506.675-1.506 1.506s.676 1.506 1.506 1.506h21.078a1.506 1.506 0 0 0 0-3.011z"/><path d="M27.178 17.982a.498.498 0 0 0-.62.345l-.039.137H6.484l-.04-.137a.5.5 0 1 0-.964.275l1.383 4.842a3.529 3.529 0 0 0 3.378 2.549h12.521a3.528 3.528 0 0 0 3.378-2.549l1.383-4.842a.5.5 0 0 0-.343-.62zM10.24 23.985a1.51 1.51 0 0 1-1.447-1.092l-.651-2.282a.501.501 0 1 1 .964-.275l.651 2.282c.062.214.26.364.483.364a.502.502 0 0 1 0 1.003z"/><path d="M11.203 25.041a.505.505 0 0 0-.674.225l-1.004 2.007a.504.504 0 0 0 .45.727c.184 0 .36-.101.449-.278l1.004-2.008a.504.504 0 0 0-.225-.674zM23.474 27.274l-1.004-2.007a.503.503 0 0 0-.899.449l1.004 2.008a.5.5 0 0 0 .674.225.504.504 0 0 0 .225-.674zM24.615 4c-.512 0-.994.2-1.356.562l-1.593 1.593a.502.502 0 0 0 .71.71l1.593-1.592a.907.907 0 0 1 .651-.268c.504 0 .913.41.913.913v10.539a.502.502 0 1 0 1.005-.001V5.917A1.92 1.92 0 0 0 24.615 4z"/><path d="m22.878 6.657-1.004-1.004a.499.499 0 0 0-.437-.141l-2.509.412a.502.502 0 0 0-.279.844L21.66 9.87a.5.5 0 0 0 .851-.25l.502-2.509a.502.502 0 0 0-.137-.453zM16.352 10.081a.502.502 0 0 0-.71 0l-1.004 1.004a.502.502 0 0 0 .709.71l1.004-1.004a.502.502 0 0 0 0-.71zM18.36 12.088a.502.502 0 0 0-.71 0l-1.004 1.004a.502.502 0 0 0 .709.71l1.004-1.004a.502.502 0 0 0 0-.71zM19.364 9.077a.502.502 0 0 0-.71 0l-1.004 1.004a.502.502 0 0 0 .709.71l1.004-1.004a.502.502 0 0 0 0-.71z"/></symbol><symbol id="icon-bed" viewBox="0 0 32 32"><path d="M23.8 14.769c2.271 0 4.2 1.893 4.2 4.308v3.692h-1.8V24H25v-1.231H7V24H5.8v-1.231H4v-3.692c0-2.329 1.863-4.308 4.2-4.308h15.6zM22.6 8c1.613 0 3 1.33 3 3.077v2.94a3.653 3.653 0 0 0-1.8-.479l-1.2-.001c0-1.054-.841-1.845-1.8-1.845h-3.6a1.77 1.77 0 0 0-1.2.47 1.769 1.769 0 0 0-1.2-.47h-3.6c-.994 0-1.8.826-1.8 1.845l-1.2.001c-.644 0-1.254.172-1.8.478v-2.94c0-1.655 1.294-3.077 3-3.077h13.2zm-7.8 4.923c.326 0 .6.308.6.616l-4.8-.001c0-.377.292-.615.6-.615h3.6zm6 .004c.34-.004.6.295.6.611h-4.8c0-.382.292-.615.6-.615l3.6.004z"/></symbol><symbol id="icon-car-garage" viewBox="0 0 32 32"><path d="M27.384 10.629 17.357 4.38a2.582 2.582 0 0 0-2.712.011L4.608 10.635c-.623.392-.795 1.191-.385 1.786s1.248.759 1.872.367l9.916-6.168 9.904 6.174c.227.14.482.207.733.207.444 0 .877-.207 1.136-.588.406-.598.226-1.395-.399-1.782z"/><path d="M24.211 18.753a.928.928 0 0 0-.903-.783h-.511l-.194-2.074C22.396 13.678 20.6 12 18.426 12h-4.849c-2.174 0-3.969 1.679-4.177 3.896l-.194 2.074h-.512a.929.929 0 0 0-.904.783l-.761 4.424a1.92 1.92 0 0 0 .406 1.538c.336.41.831.654 1.348.673v.735c0 1.04.813 1.878 1.828 1.878h.578c1.014 0 1.839-.838 1.839-1.878V25.4h5.953v.721c0 1.04.818 1.88 1.833 1.88h.578c1.014 0 1.834-.839 1.834-1.88v-.733a1.824 1.824 0 0 0 1.344-.67c.349-.427.498-.988.405-1.537l-.762-4.427zm-13.82 4.94c-.856 0-1.55-.711-1.55-1.59s.694-1.59 1.55-1.59c.856 0 1.551.711 1.551 1.59s-.695 1.59-1.551 1.59zm.386-5.723.179-1.913c.13-1.391 1.256-2.439 2.62-2.439h.28v.601a.92.92 0 0 0 .913.937h2.464c.508 0 .92-.416.92-.937v-.601h.273c1.363 0 2.489 1.048 2.619 2.439l.18 1.913H10.779zm10.831 5.723c-.856 0-1.55-.711-1.55-1.59s.694-1.59 1.55-1.59c.857 0 1.551.711 1.551 1.59s-.695 1.59-1.551 1.59z"/></symbol><symbol id="icon-stairs" viewBox="0 0 33 32"><path d="M27.288 9h-4.356c-.669 0-1.212.537-1.212 1.2v3.114h-3.145c-.669 0-1.212.536-1.212 1.199v3.114h-3.145c-.669 0-1.212.537-1.212 1.2v3.264H9.71c-.322 0-.63.126-.857.351s-.355.531-.355.849v2.51c0 .664.543 1.2 1.212 1.2h17.576c.669 0 1.212-.537 1.212-1.2v-15.6c0-.663-.542-1.2-1.212-1.2z"/><path d="M21.264 5.245a.849.849 0 0 0-1.178-.015C14.743 10.305 9.66 15.262 4.744 20.055a.805.805 0 0 0-.244.575v5.558c0 .448.373.812.833.812s.833-.364.833-.812v-5.222c4.836-4.715 9.836-9.588 15.082-14.572a.798.798 0 0 0 .015-1.148z"/></symbol><symbol id="icon-call" viewBox="0 0 32 32"><path d="M11.179 3.306a3.204 3.204 0 0 1 3.723 1.513l.12.238 1.058 2.354a3.997 3.997 0 0 1-.707 4.349l-.211.211-1.67 1.557c-.301.285-.075 1.387 1.014 3.272.978 1.696 1.776 2.488 2.166 2.531h.069l.085-.016 3.28-1.003a2.394 2.394 0 0 1 2.502.706l.147.184 2.17 3.008a3.197 3.197 0 0 1-.198 3.995l-.195.202-.869.822a5.606 5.606 0 0 1-5.944 1.128c-3.096-1.248-5.909-4.099-8.464-8.525-2.56-4.437-3.624-8.304-3.149-11.616a5.598 5.598 0 0 1 3.62-4.463l.309-.102 1.146-.346z"/></symbol><symbol id="icon-eva_arrow" viewBox="0 0 32 32"><path d="M13.324 6.669a1.316 1.316 0 0 0-1.172.71 1.34 1.34 0 0 0 .154 1.472l5.923 7.131-5.712 7.144c-.11.136-.192.293-.241.461a1.357 1.357 0 0 0 .107 1.016c.083.154.196.29.332.399a1.308 1.308 0 0 0 1.009.324 1.32 1.32 0 0 0 .922-.524l6.386-7.982a1.333 1.333 0 0 0 0-1.69l-6.611-7.982a1.32 1.32 0 0 0-1.098-.478z"/></symbol></defs></svg>