<svg xmlns="http://www.w3.org/2000/svg"><defs><font id="Lexend" horiz-adv-x="588"><font-face font-family="Lexend" ascent="1000" descent="-250" alphabetic="0"/><glyph horiz-adv-x="320"/><glyph unicode="!" horiz-adv-x="309" d="M104 255q-8 61-16 126T75 510t-5 123v78h169v-78q0-60-5-125t-13-129-17-124H104Zm50-266q-41 0-64 23T67 78q0 40 24 65t63 25q41 0 63-23t23-67q0-39-24-64t-62-25Z"/><glyph unicode="&quot;" horiz-adv-x="477" d="m271 436 20 264h163l-83-264H271Zm-227 0 21 264h164l-84-264H44Z"/><glyph unicode="#" horiz-adv-x="734" d="m368 0 120 700h141L509 0H368ZM48 150v129h602V150H48ZM106 0l120 700h141L247 0H106ZM86 430v129h601V430H86Z"/><glyph unicode="$" horiz-adv-x="634" d="M320-10q-98 0-169 30T28 109l80 130q56-58 109-82t111-24q27 0 49 7t34 20 12 34q0 15-7 27t-21 21-31 16-38 13-41 10q-78 17-128 46t-76 72-25 103q0 47 21 86t58 68 85 44 100 16q85 0 152-26t120-81l-72-118q-40 41-90 61t-105 20q-30 0-51-7t-34-21-12-33q0-17 10-29t27-21 39-16 46-11q55-11 99-29t77-44 50-61 18-83q0-73-35-123t-97-77-142-27Zm-60-81 11 465 81-33 11-432H260Zm117 431-81 33-11 415h103l-11-448Z"/><glyph unicode="%" horiz-adv-x="968" d="m171 0 463 700h149L315 0H171Zm45 329q-51 0-91 25t-62 70-23 100q0 57 22 101t63 70 91 25q52 0 91-25t62-69 22-102q0-56-23-100t-62-69-90-26Zm0 103q17 0 28 11t18 32 6 49q0 28-6 49t-17 32-29 12q-16 0-28-11t-18-33-7-49q0-28 6-49t18-32 29-11ZM749-10q-51 0-91 26t-62 69-23 100q0 57 22 101t62 70 92 25q52 0 91-25t62-69 22-102q0-55-23-99t-62-70-90-26Zm0 103q17 0 28 11t18 32 6 49q0 28-6 49t-17 32-29 12q-17 0-29-11t-18-32-7-50q0-28 6-48t19-32 29-12Z"/><glyph unicode="&amp;" horiz-adv-x="776" d="m580 0-70 72-60 56-147 156q-39 42-66 76t-42 64-23 56-7 48q0 54 28 96t79 67 117 25q51 0 95-16t76-47 45-70l-126-75q-17 41-37 56t-47 15q-22 0-37-7t-23-20-8-34q0-19 15-46t40-57 49-56 45-46l74-81 69-63L778 0H580ZM327-10q-79 0-141 30t-99 82-37 116q0 73 42 131t126 89l100-97q-56-12-84-40t-28-71q0-34 16-59t47-38 74-14q40 0 74 16t62 47 45 71 23 93h149q-9-64-31-118t-55-99-77-75-95-47-111-17Z"/><glyph unicode="'" horiz-adv-x="252" d="m44 436 21 264h164l-84-264H44Z"/><glyph unicode="(" horiz-adv-x="390" d="M290-186Q168-110 104 4T40 258q0 139 64 253t187 191l90-85q-92-64-137-158t-46-201q0-107 45-201t138-158l-91-85Z"/><glyph unicode=")" horiz-adv-x="390" d="M99-186 9-101q92 64 137 158t45 201q0 107-45 201T9 617l91 85q122-76 186-190t64-254q0-139-64-253T99-186Z"/><glyph unicode="*" horiz-adv-x="440" d="m166 353 14 136 17-3-125-85-54 92 135 54-1-9-135 61 54 93 129-95-20-1-16 140h115l-15-145-16 7 121 93 54-93-138-61v10l136-54-53-91-119 88 16-1 16-136H166Z"/><glyph unicode="+" horiz-adv-x="597" d="M48 218v131h501V218H48ZM227 39v489h142V39H227Z"/><glyph unicode="," horiz-adv-x="287" d="m85-200-46 57q40 18 64 45t24 48q0 9-4 19T100-7Q77 10 69 26t-8 37q0 31 22 49t59 18q29 0 52-16t37-44 14-65q0-34-12-65t-33-59-51-49-64-32Z"/><glyph unicode="-" horiz-adv-x="448" d="M51 214v147h346V214H51Z"/><glyph unicode="." horiz-adv-x="257" d="M128-11q-41 0-63 23T42 78q0 40 24 65t62 25q41 0 64-23t23-67q0-39-24-64t-63-25Z"/><glyph unicode="/" horiz-adv-x="595" d="m8-142 416 842h159L169-142H8Z"/><glyph unicode="0" horiz-adv-x="675" d="M337-10q-94 0-160 43T75 156 40 350q0 113 35 193t101 124 161 43q94 0 161-43t102-123 35-194q0-113-35-193T498 33 337-10Zm0 144q65 0 100 56t36 160q0 107-35 164t-101 58q-65 0-100-57t-36-165q0-104 35-160t101-56Z"/><glyph unicode="1" horiz-adv-x="561" d="M211 49v568l37-85-150-71-29 152 199 97h110V49H211ZM83 0v150h426V0H83Z"/><glyph unicode="2" horiz-adv-x="548" d="M59 0 26 82l204 223q17 19 37 43t39 49 30 50 12 44q0 20-9 35t-26 23-43 9q-23 0-44-11t-39-36-35-59L26 520q21 58 59 102t91 69 111 25q62-1 112-26t79-71 30-107q0-21-5-44t-15-47-26-52-40-58-54-64L209 74l-20 76h350V0H59Z"/><glyph unicode="3" horiz-adv-x="591" d="M287-10q-85 0-148 35T23 148l122 79q22-35 45-56t49-30 54-10q28 0 51 12t38 36 15 52q0 31-12 52t-36 33-57 11q-15 0-32-3t-36-10-39-16l-37 99 170 185 46-25-292 6v143h430l31-62-231-248-40 47q8 4 26 7t36 4q47 0 88-17t73-47 50-70 18-87q0-70-35-124t-96-87-135-32Z"/><glyph unicode="4" horiz-adv-x="662" d="M349 0v566l91-2-253-310-24 30h464V144H87L19 275l357 431h137V0H349Z"/><glyph unicode="5" horiz-adv-x="596" d="M282-7q-79 0-143 32T32 117l91 100q41-45 76-61t78-17q32 0 57 13t39 36 15 53q0 30-14 53t-39 38-57 14q-23 0-43-4t-42-13-54-28l-72 96 43 309h402V563H191l44 56-33-222-60 20q19 17 46 30t60 21 64 9q66 0 118-30t84-85 31-124q0-69-35-124t-94-88T282-7Z"/><glyph unicode="6" horiz-adv-x="579" d="M294 0q-54 0-101 19t-83 54-55 81-21 99q0 37 8 71t22 70 35 73 46 80l98 164h157l4-10-136-214q-26-42-45-78t-34-73-30-76l-32 69q10 35 32 64t51 51 62 33 63 12q59 0 108-31t80-84 30-114q0-74-33-133t-92-93T294 0Zm2 140q32 0 56 14t39 39 14 59q0 28-14 52t-39 40-55 16q-32 0-57-14t-40-39-14-55q0-32 14-57t39-40 57-15Z"/><glyph unicode="7" horiz-adv-x="553" d="m84 0 280 638 48-80H46v148h456l16-81L254 0H84Z"/><glyph unicode="8" horiz-adv-x="599" d="M299-3q-72 0-130 27T75 99 40 205q0 39 10 70t30 56 50 42 68 29l-12-40q-28 11-51 27t-39 36-24 45-9 50q0 56 31 99t85 67 120 25q65 0 118-24t86-68 32-99q0-26-8-50t-24-43-39-36-53-29l-9 36q34-9 63-25t50-41 32-56 12-71q0-60-35-107t-94-74T299-3Zm0 134q28 0 50 11t35 30 13 44q0 26-12 45t-35 31-51 12q-28 0-50-11t-35-31-13-46q0-24 13-43t35-30 50-12Zm0 308q24 0 43 9t31 26 11 39q0 22-11 39t-30 27-44 10q-25 0-44-10t-31-27-11-39q0-22 11-38t30-26 45-10Z"/><glyph unicode="9" horiz-adv-x="577" d="m208 0-4 10 219 442 29-60q-10-36-32-65t-52-50-64-33-63-12q-57 0-105 31t-77 83-29 113q0 72 34 130t94 93 133 35q54 0 101-19t82-52 56-78 20-93q0-36-6-70t-19-71-30-75-41-85L366 0H208Zm74 366q31 0 55 14t37 37 14 53q0 31-13 55t-37 39-55 14q-30 0-52-13t-36-38-14-57q0-27 13-50t37-39 51-15Z"/><glyph unicode=":" horiz-adv-x="257" d="M128-11q-41 0-63 23T42 78q0 40 24 65t62 25q41 0 64-23t23-67q0-39-24-64t-63-25Zm0 373q-41 0-63 23t-23 66q0 40 24 65t62 25q41 0 64-23t23-67q0-39-24-64t-63-25Z"/><glyph unicode=";" horiz-adv-x="291" d="m89-200-46 57q40 18 64 45t24 48q0 9-4 19T104-7Q81 10 73 26t-8 37q0 31 22 49t59 18q29 0 52-16t37-44 14-65q0-34-12-65t-33-59-51-49-64-32Zm54 563q-41 0-63 23t-23 66q0 40 24 65t62 25q41 0 64-23t23-67q0-39-24-64t-63-25Z"/><glyph unicode="&lt;" horiz-adv-x="525" d="M429-13 41 209v97l388 222 66-127-340-178v69l340-179-66-126Z"/><glyph unicode="=" horiz-adv-x="623" d="M67 325v130h489V325H67Zm0-217v129h489V108H67Z"/><glyph unicode="&gt;" horiz-adv-x="526" d="M105-13 40 113l339 179v-69L40 401l65 127 388-222v-97L105-13Z"/><glyph unicode="?" horiz-adv-x="536" d="m195 240-32 131q29 7 55 16t48 21 37 25 25 32 9 38q0 20-10 34t-27 23-40 8q-33 0-66-23t-61-76L24 570q45 69 107 107t131 38q66 0 119-26t84-73 31-105q0-37-15-73t-43-67-65-56-82-37l-10-38h-86ZM159 78q0 40 24 65t62 25q41 0 64-23t23-67q0-39-24-64t-63-25q-41 0-63 23t-23 66Z"/><glyph unicode="@" horiz-adv-x="965" d="M414-162q-87 0-156 26T140-61 66 56 40 206q0 117 41 210t115 159 171 100 209 35q80 0 144-22t110-65 70-99 25-128q0-69-19-131t-55-111-81-77-101-28q-38 0-68 13t-46 36-17 55q0 16 1 33t3 36l26-20q-16-49-41-83t-59-52-74-18q-46 0-82 24t-57 66-21 98q0 49 18 99t51 92 78 67 96 26q31 0 55-16t40-45 19-67l-31-28 29 145h144l-59-316q-3-17 2-26t14-15 21-5q28 0 52 19t41 53 28 78 10 93q0 76-32 129t-94 83-146 29q-103 0-185-29t-141-83-89-133-31-178q0-69 19-122t57-92 92-57 125-20q47 0 81 6t65 20 69 34l37-67q-59-30-101-45t-78-22-76-6Zm22 332q26 0 50 17t43 45 24 63q2 14 4 25t2 23q0 19-6 33t-20 23-35 8q-31 0-56-23t-41-61-15-81q0-33 13-52t37-20Z"/><glyph unicode="A" horiz-adv-x="694" d="m-1 0 277 700h144L695 0H523L391 355q-8 21-16 45t-16 49-15 50-13 46l30 1q-6-25-13-49t-15-47-17-47-17-49L167 0H-1Zm132 134 53 128h322l52-128H131Z"/><glyph unicode="B" horiz-adv-x="701" d="M88 0v700h309q72 0 122-20t75-59 26-93q0-60-29-101t-86-55l-2 19q47-10 81-35t54-61 19-83q0-53-18-92t-52-67-79-40T407 0H88Zm160 142h153q28 0 47 9t31 26 11 43q0 23-11 39t-33 24-50 9H248V142Zm0 277h125q26 0 44 8t28 24 10 38q0 32-22 50t-66 19H248V419Z"/><glyph unicode="C" horiz-adv-x="694" d="M406-10q-79 0-145 26T145 91 70 206 43 353q0 78 28 144t77 114 117 76 148 27q50 0 98-13t89-38 72-61L568 483q-21 22-44 38t-52 26-60 9q-40 0-75-14t-62-41-42-65-15-85q0-46 15-83t42-65 65-41 86-14q32 0 61 9t53 24 44 36l82-130q-25-28-66-50T508 3 406-10Z"/><glyph unicode="D" horiz-adv-x="772" d="M88 0v700h293q77 0 141-25t110-73 72-111 25-141q0-77-25-141T633 98 522 26 381 0H88Zm170 116-23 34h141q42 0 75 14t56 41 37 63 13 82q0 45-13 82t-36 63-57 40-75 15H232l26 32V116Z"/><glyph unicode="E" horiz-adv-x="645" d="M88 0v700h488V555H253V145h333V0H88Zm80 287v138h363V287H168Z"/><glyph unicode="F" horiz-adv-x="618" d="M88 0v700h170V0H88Zm79 268v142h362V268H167Zm0 282v150h403V550H167Z"/><glyph unicode="G" horiz-adv-x="782" d="M413-10q-84 0-152 27T144 93 69 208 43 353q0 78 27 143t79 115 120 76 152 27q58 0 109-15t94-41 71-60L592 489q-25 24-51 40t-57 25-64 10q-44 0-80-16t-64-44-43-67-15-84q0-45 16-84t44-67 66-45 83-17q31 0 58 10t48 27 32 40 12 51v26l22-34H406v133h329q2-11 3-30t1-37 1-27q0-68-24-124t-69-98-104-64-130-23Z"/><glyph unicode="H" horiz-adv-x="779" d="M522 0v700h170V0H522ZM88 0v700h170V0H88Zm66 273 1 152h457V273H154Z"/><glyph unicode="I" horiz-adv-x="555" d="M74 0v143h118v414H74v143h407V557H362V143h119V0H74Z"/><glyph unicode="J" horiz-adv-x="665" d="M261-10q-38 0-72 8t-62 25-50 40-38 53l97 101q14-21 27-34t25-23 26-13 29-4q24 0 42 11t29 32 10 47v319H196v148h402V552H490V213q0-51-17-92t-49-70-72-45-91-16Z"/><glyph unicode="K" horiz-adv-x="739" d="m212 205-44 143 347 352h201L212 205ZM88 0v700h170V0H88Zm449 0L277 342l115 99L735 0H537Z"/><glyph unicode="L" horiz-adv-x="609" d="M88 0v700h170V150h312V0H88Z"/><glyph unicode="M" horiz-adv-x="878" d="M88 0v700h152l255-415-109 1 258 414h146V0H625v218q0 90 4 162t16 143l19-52-194-301h-66L214 469l19 54q11-67 15-137t5-168V0H88Z"/><glyph unicode="N" horiz-adv-x="807" d="M88 0v700h152l367-500-33 5q-5 33-8 63t-5 59-4 59-2 65-1 76v173h165V0H565L182 516l51-7q5-48 8-81t6-60 4-47 1-41 1-46V0H88Z"/><glyph unicode="O" horiz-adv-x="812" d="M407-10q-80 0-146 27T146 93 70 208 43 353q0 79 27 145t76 115 115 76 145 27q79 0 145-27t115-76 75-115 27-145q0-78-26-144T666 93 551 17 407-10Zm-1 160q41 0 75 15t60 42 40 65 14 81q0 44-14 81t-39 64-60 43-76 15q-41 0-75-15t-61-42-39-65-14-81q0-44 13-81t40-65 60-42 76-15Z"/><glyph unicode="P" horiz-adv-x="662" d="M88 0v700h302q66 0 117-30t82-82 31-117q0-68-30-121t-82-85-118-31H258V0H88Zm167 383h111q22 0 40 11t29 30 11 44q0 26-11 44t-29 28-40 10H255V383Z"/><glyph unicode="Q" horiz-adv-x="812" d="M615-110 347 253l125 87L737-20l-122-90ZM406-10q-79 0-145 27T146 93 70 208 43 353q0 79 27 145t76 115 115 76 145 27q79 0 145-27t115-76 75-115 27-145q0-78-26-144T666 93 551 17 406-10Zm0 160q41 0 75 15t60 42 40 65 14 81q0 44-14 81t-39 64-60 43-76 15q-41 0-75-15t-61-42-39-65-14-81q0-44 13-81t40-65 60-42 76-15Z"/><glyph unicode="R" horiz-adv-x="702" d="M88 0v700h315q67 0 121-29t86-79 31-115q0-66-31-118t-85-83-122-30H250V0H88Zm388 0L298 316l174 25L670 0H476ZM250 376h138q26 0 45 11t30 33 11 48q0 27-12 47t-34 32-55 11H250V376Z"/><glyph unicode="S" horiz-adv-x="634" d="M320-10q-69 0-124 16T97 54t-77 75l103 117q50-67 100-90t105-23q27 0 49 7t34 20 12 34q0 15-7 27t-21 21-31 16-38 13-41 10q-58 13-101 32t-71 46-43 63-14 80q0 47 21 86t58 68 85 44 100 16q69 0 118-14t85-42 61-65L479 494q-21 26-45 43t-52 26-57 9q-30 0-51-7t-34-21-12-33q0-17 10-29t27-21 39-16 46-11q55-11 99-29t77-44 50-61 18-83q0-73-35-123t-97-77-142-27Z"/><glyph unicode="T" horiz-adv-x="655" d="M240 0v550H32v150h591V550H410V0H240Z"/><glyph unicode="U" horiz-adv-x="765" d="M383-6q-87 0-155 35t-106 98-39 142v431h172V278q0-38 17-68t46-48 65-18q38 0 67 17t48 48 18 69v422h166V269q0-80-38-142T537 30 383-6Z"/><glyph unicode="V" horiz-adv-x="712" d="M284 0 4 700h177l135-357q12-31 20-54t15-43 12-40 13-47h-31q8 34 16 60t18 55 25 69l130 357h174L426 0H284Z"/><glyph unicode="W" horiz-adv-x="993" d="M214 0 4 700h173l105-368q7-25 12-50t9-49 6-42 4-33h-22q6 37 10 66t11 54 15 54l104 277h136l102-277q12-33 20-62t12-55 8-53l-20-3q2 18 3 33t2 30 4 31 6 35 11 45l104 367h169L778 0H648L482 403l19-2L348 0H214Z"/><glyph unicode="X" horiz-adv-x="705" d="M499 0 282 314 4 700h207l212-310L706 0H499ZM-1 0l267 381 137-79L196 0H-1Zm440 325-136 76 196 299h197L439 325Z"/><glyph unicode="Y" horiz-adv-x="689" d="M269 0v349l7-49L-7 700h193l216-310-88 3 195 307h187L425 289l15 68V0H269Z"/><glyph unicode="Z" horiz-adv-x="683" d="M60 0v113l376 500 59-69H86v156h528V588L240 87l-60 62h445V0H60Z"/><glyph unicode="[" horiz-adv-x="420" d="M80-190v890h297V563H228l6 8V-65l-10 12h153v-137H80Z"/><glyph unicode="\" horiz-adv-x="584" d="M418-107 20 700h160l400-807H418Z"/><glyph unicode="]" horiz-adv-x="420" d="M42-190v137h150l-6-8v636l10-12H42v137h298v-890H42Z"/><glyph unicode="^" horiz-adv-x="592" d="m12 361 220 372h129l219-372H419L255 644l84 2-168-285H12Z"/><glyph unicode="_" horiz-adv-x="687" d="M40-192v131h607v-131H40Z"/><glyph unicode="`" horiz-adv-x="500" d="M329 584 124 694l73 104 179-142-47-72Z"/><glyph unicode="a" horiz-adv-x="659" d="M267-9q-67 0-119 35t-84 98-31 142q0 81 31 143t85 97 123 36q38 0 69-11t56-30 41-45 25-55l-33 4v126h159V0H427v128l36 1q-8-28-26-53t-44-44-58-30-68-11Zm44 135q37 0 64 17t42 48 15 75q0 43-15 74t-42 49-64 18q-36 0-62-17t-42-49-15-75q0-43 15-74t41-49 63-17Z"/><glyph unicode="b" horiz-adv-x="658" d="M390-11q-36 0-69 10t-59 27-44 39-24 47l35 12-9-123H71v739h161V404l-33 12q6 26 23 48t43 40 57 28 64 10q69 0 122-35t85-98 31-143q0-81-30-143t-84-98-120-36Zm-42 135q36 0 63 18t41 49 15 75q0 42-14 74t-42 49-63 17q-37 0-64-17t-42-49-15-74q0-43 15-74t42-50 64-18Z"/><glyph unicode="c" horiz-adv-x="545" d="M304-10q-77 0-138 36t-96 98-36 142q0 79 35 141t97 99 138 36q71 0 130-25t95-70l-87-104q-14 16-33 30t-42 22-48 8q-38 0-67-17t-45-49-16-71q0-38 16-69t46-49 66-18q26 0 48 6t40 20 35 32l86-105q-34-43-94-68T304-10Z"/><glyph unicode="d" horiz-adv-x="654" d="M272-11q-69 0-122 35t-85 98-31 143q0 80 31 142t85 99 124 36q36 0 69-11t60-30 44-43 20-51l-38-9v342h161V0H441l-9 121 32-5q-3-25-19-48t-43-40-59-28-71-11Zm41 133q37 0 64 18t41 50 15 75q0 44-14 76t-42 50-64 18q-37 0-63-18t-42-50-15-76q0-43 15-75t41-50 64-18Z"/><glyph unicode="e" horiz-adv-x="586" d="M324-10q-88 0-153 35T70 122 34 263q0 61 20 112t56 88 85 58 109 21q56 0 102-20t81-56 52-85 16-107l-1-43H131l-23 90h316l-17-19v20q-2 25-15 44t-36 31-50 11q-39 0-66-15t-42-45-14-73q0-44 18-76t54-51 85-18q34 0 60 10t58 34l75-106q-31-27-66-44T397-1t-73-9Z"/><glyph unicode="f" horiz-adv-x="393" d="M104 0v557q0 52 22 94t63 66 95 25q38 0 70-11t57-31l-46-117q-13 7-25 11t-22 4q-18 0-30-6t-17-18-6-31V0H104ZM27 384v132h347V384H27Z"/><glyph unicode="g" horiz-adv-x="669" d="M314-230q-65 0-129 19T80-162l56 112q21-14 46-24t54-17 57-6q51 0 83 15t48 45 16 77v89l31-5q-7-33-34-60t-68-43-85-17q-72 0-128 33t-89 93-33 138q0 80 32 141t88 97 126 36q30 0 57-7t51-18 42-27 30-34 16-37l-33-8 6 120h152V43q0-65-19-115t-57-86-91-54-120-18Zm4 358q39 0 67 17t44 49 16 73q0 42-15 73t-44 49-68 18q-38 0-66-17t-43-49-16-74q0-42 15-73t44-48 66-18Z"/><glyph unicode="h" horiz-adv-x="635" d="M71 0v740h157V423l-32-12q11 36 39 65t69 48 84 18q60 0 101-24t62-73 21-119V0H411v313q0 32-9 53t-27 31-46 10q-21 0-39-6t-31-19-20-29-8-35V0H71Z"/><glyph unicode="i" horiz-adv-x="319" d="M80 0v531h160V0H80Zm80 636q-45 0-70 21t-26 62q0 36 26 59t70 23q45 0 70-21t25-61q0-37-25-60t-70-23Z"/><glyph unicode="j" horiz-adv-x="316" d="M23-210-38-86q46 0 72 12t37 39 11 76v490h160V3q0-73-25-120t-74-70-120-23Zm142 846q-45 0-70 21t-26 62q0 36 26 59t70 23q45 0 70-21t25-61q0-37-25-60t-70-23Z"/><glyph unicode="k" horiz-adv-x="626" d="m225 156-59 120 248 255h211L225 156ZM71 0v740h160V0H71Zm360 0L244 242l113 88L620 0H431Z"/><glyph unicode="l" horiz-adv-x="304" d="M72 0v740h160V0H72Z"/><glyph unicode="m" horiz-adv-x="962" d="M70 0v531h152l5-96-21-1q12 26 30 46t42 33 49 21 52 7q39 0 71-12t56-38 38-72l-25 2 8 16q13 24 33 43t46 33 52 21 52 7q63 0 105-24t63-74 22-119V0H739v311q0 32-9 53t-26 31-44 11q-21 0-38-7t-30-19-20-28-7-36V0H404v312q0 30-9 51t-27 32-42 11q-21 0-38-7t-30-19-20-28-7-35V0H70Z"/><glyph unicode="n" horiz-adv-x="635" d="M71 0v531h152l5-108-32-12q11 36 39 65t69 48 84 18q60 0 101-24t62-73 21-119V0H411v313q0 32-9 53t-27 31-46 10q-21 0-39-6t-31-19-20-29-8-35V0H71Z"/><glyph unicode="o" horiz-adv-x="641" d="M321-10q-83 0-147 36T72 124 34 266q0 80 37 142t102 98 148 36q83 0 147-36t102-98 37-142q0-80-37-142T469 26 321-10Zm0 138q36 0 64 18t44 49 15 71q1 40-15 71t-44 50-64 18q-36 0-64-18t-45-49-15-72q-1-40 15-71t44-49 65-18Z"/><glyph unicode="p" horiz-adv-x="659" d="M71-220v751h152l6-119-30 9q7 33 34 60t68 43 88 17q68 0 121-35t83-97 31-143q0-80-30-142t-84-97T387-9q-45 0-86 17t-69 46-37 63l37 14v-351H71Zm277 346q36 0 63 17t42 49 15 74q0 42-15 73t-41 49-64 18q-37 0-64-17t-42-49-15-74q0-43 15-74t42-48 64-18Z"/><glyph unicode="q" horiz-adv-x="658" d="M426-220v348l35-8q-4-25-21-48t-42-42-58-28-66-11q-70 0-124 35t-85 98-31 142q0 81 30 143t84 97 121 36q38 0 72-11t61-29 44-41 19-50l-36-6 6 126h152v-751H426ZM310 126q37 0 64 17t42 48 15 75q0 43-15 74t-42 49-64 18q-36 0-63-17t-41-50-15-74q0-43 14-74t42-49 63-17Z"/><glyph unicode="r" horiz-adv-x="455" d="M71 0v531h152l7-173-30 33q12 43 39 77t65 54 79 20q18 0 33-3t29-7l-44-177q-11 7-29 11t-39 5q-22 0-41-7t-32-22-20-33-8-43V0H71Z"/><glyph unicode="s" horiz-adv-x="495" d="M250-10q-78 0-137 25T18 82l97 84q31-31 70-45t74-15q14 0 25 3t18 8 12 13 4 18q0 20-18 31-9 5-30 12t-54 16q-47 12-81 28t-57 39q-20 21-31 46t-11 58q0 37 17 67t47 52 68 33 80 12q44 0 84-10t74-28 62-43l-84-94q-18 17-40 30t-47 22-44 8q-15 0-26-2t-20-8-12-13-4-18q0-10 5-19t16-15q10-6 32-13t60-19q47-13 81-29t54-38q16-17 24-39t8-49q0-51-28-90t-79-62-114-23Z"/><glyph unicode="t" horiz-adv-x="398" d="M115 0v665h160V0H115ZM21 391v140h357V391H21Z"/><glyph unicode="u" horiz-adv-x="642" d="M252-11q-59 0-100 25T88 88 65 203v328h161V225q0-32 10-55t30-35 48-13q21 0 38 7t30 19 20 29 7 37v317h161V0H419l-7 109 30 12q-12-38-40-67T335 7t-83-18Z"/><glyph unicode="v" horiz-adv-x="605" d="M234 0 12 531h177l132-397-39-4 136 401h175L360 0H234Z"/><glyph unicode="w" horiz-adv-x="834" d="M187 0 12 531h169l98-345-21 4 110 268h94l116-269-23-2 98 344h169L641 0H523L408 285l12-2L305 0H187Z"/><glyph unicode="x" horiz-adv-x="606" d="M398 0 285 171l-52 73L23 531h192l109-163 57-78L588 0H398ZM18 0l214 298 86-103L207 0H18Zm351 231-85 102 105 198h189L369 231Z"/><glyph unicode="y" horiz-adv-x="620" d="M138-230 259 55l2-82L5 531h181l112-267q9-20 17-43t12-44l-22-13q6 15 13 37t17 49l98 281h182L389 0l-92-230H138Z"/><glyph unicode="z" horiz-adv-x="550" d="M50 0v92l282 362v-53H50v130h440v-96L223 84l-4 46h280V0H50Z"/><glyph unicode="{" horiz-adv-x="427" d="M364-206q-51 11-89 27t-63 40-37 57-12 75l1 95q0 50-22 74t-63 25H39v126h42q41 1 62 24t21 75l-1 95q0 82 48 129t153 70l35-115q-35-12-55-23t-28-32-9-54l2-84q0-58-35-97t-111-58l-1 15q76-21 111-60t36-96l-2-84q0-32 8-50t29-30 55-23l-35-121Z"/><glyph unicode="|" horiz-adv-x="318" d="M83-193v933h152v-933H83Z"/><glyph unicode="}" horiz-adv-x="427" d="M63-206 27-91q36 12 55 23t28 32 9 54l-2 84q0 58 35 97t112 58v-15q-76 21-111 60t-36 96l2 84q0 32-8 50t-28 30-56 23l36 121q51-10 89-27t62-40 37-57 13-75l-1-95q0-50 21-74t64-25h40V187h-42q-42-1-62-24t-21-75l1-95q0-82-49-129T63-206Z"/><glyph unicode="~" horiz-adv-x="558" d="M383 202q-17 0-36 4t-39 12-36 14q-15 7-31 13t-31 10-24 4q-19 0-29-16t-10-47H32q0 96 37 147t115 51q12 0 27-3t29-8 28-10 26-11q13-5 27-11t27-10 24-4q17 0 28 16t9 42l115-1q0-63-16-105t-47-65-78-22Z"/><glyph horiz-adv-x="320"/><glyph unicode="¡" horiz-adv-x="309" d="M202 275q8-61 16-125t13-129 5-124v-78H67v78q0 60 5 125t13 130 17 123h100Zm-50 266q42 0 64-23t23-66q0-40-24-65t-63-25q-41 0-63 23t-23 67q0 39 24 64t62 25Z"/><glyph unicode="¢" horiz-adv-x="563" d="M321 78q-79 0-141 36t-98 98-36 142q0 79 36 141t98 99 141 36q72 0 131-25t94-70l-87-104q-13 16-32 30t-43 22-48 8q-39 0-69-17t-47-49-18-71q0-38 17-69t48-49 69-18q26 0 48 6t40 20 35 32l87-105q-35-43-95-68T321 78ZM265 0v108l26 38v410l-26 50v100h120V605l-22-46V143l22-36V0H265Z"/><glyph unicode="£" horiz-adv-x="638" d="m186 53-75 21q18 10 32 30t23 44 9 48q0 14-3 32t-8 39-13 42-14 43q-12 37-18 61t-8 41-3 33q0 69 31 120t86 80 132 29q71 0 123-24t78-67l-121-94q-10 14-23 22t-29 13-34 5q-28 0-50-12t-34-34-13-50q0-31 8-62t19-60q11-35 19-67t8-57q0-31-12-59t-38-56-72-61Zm263-74q-35 0-70 9T321 4q-13 4-30 9t-36 9-38 4q-33 0-67-10T78-12L21 102q44 27 95 42t104 16q30 0 54-5t68-20q21-7 46-14t54-8q22 0 49 8t57 27l73-105q-35-32-83-48t-89-16ZM44 303v94h425v-94H44Z"/><glyph unicode="¤" horiz-adv-x="560" d="M282 109q-59 0-106 25t-75 70-28 101q0 57 27 101t75 70 107 26q59 0 106-26t74-70 27-101q0-56-27-100t-74-70-106-26ZM131 60l-99 99 86 90 98-102-85-87Zm-19 310-84 82 99 99 86-84-101-97Zm170-143q21 0 37 10t26 27 9 41q0 24-9 42t-25 28-38 10q-21 0-37-10t-26-28-10-42q0-23 9-40t26-28 38-10ZM435 64l-88 85 97 100 90-86-99-99Zm8 298-99 98 91 95 99-99-91-94Z"/><glyph unicode="¥" horiz-adv-x="689" d="M269 0v349l7-49L-7 700h193l216-310-88 3 195 307h187L425 289l15 68V0H269ZM142 123v71h435v-72l-435 1Zm0 123v71l435-1v-71l-435 1Z"/><glyph unicode="¦" horiz-adv-x="324" d="M85-202v394h154v-394H85Zm0 549v393h154V347H85Z"/><glyph unicode="§" horiz-adv-x="575" d="m348 132-40 80q28 3 46 11t26 21 9 28q0 18-13 30t-44 24l-85 29q-31 13-61 29t-53 39-38 53-15 71q0 34 13 65t41 54 71 37 103 13q48 0 89-10t74-31 57-48l-83-90q-26 23-50 35t-46 18-42 6q-35 0-54-14t-20-36q0-16 10-28t29-22 41-18l85-32q73-27 108-66t35-96q-2-44-25-77t-66-52-102-23Zm-77-274q-49 0-93 12T97-97 35-50l80 95q43-36 83-52t72-16q37 0 57 13t20 37q0 16-12 27t-32 21-44 19l-85 31q-70 26-105 66t-35 96q0 41 22 74t63 55 101 24l39-84q-22-2-37-10t-24-20-8-28q0-19 15-32t48-26l71-25q52-20 91-43t62-57 23-81q0-50-24-89t-74-63-131-24Z"/><glyph unicode="¨" horiz-adv-x="500" d="M371 626q-42 0-64 22t-23 63q0 38 23 61t64 24q41 0 63-22t23-63q0-38-23-61t-63-24Zm-241 0q-42 0-64 22t-23 63q0 38 23 61t64 24q42 0 64-22t23-63q0-38-23-61t-64-24Z"/><glyph unicode="©" horiz-adv-x="791" d="M395-18q-78 0-144 28T134 88 55 206 26 350q0 77 28 144t79 117 117 79 145 28q76 0 143-28t117-78 79-118 29-144q0-77-28-144T656 89 538 10 395-18Zm15 161q-59 0-107 27t-76 73-29 106q0 57 28 104t77 76 107 28q36 0 70-12t66-36l-49-105q-15 10-28 16t-24 10-23 3q-25 0-44-11t-31-30-12-43q0-24 11-43t31-30 45-11q18 0 37 6t41 23l50-107q-32-22-67-33t-73-11Zm-15-87q61 0 114 22t94 63 63 94 23 115q0 62-23 115t-63 94-93 62-115 23q-62 0-115-22t-94-63-63-93-23-116q0-61 23-114t63-94 93-63 116-23Z"/><glyph unicode="ª" horiz-adv-x="391" d="M140 390q-38 0-65 21t-42 61-15 90q0 46 17 82t47 57 70 21q55 0 81-32t27-92l-21 50v67h116V401H239v73l21 32q0-29-14-55t-42-44-64-17Zm46 91q17 0 30 9t20 27 7 40q0 34-15 54t-43 20q-15 0-27-9t-18-26-7-36q0-24 6-42t18-27 29-10Z"/><glyph unicode="«" horiz-adv-x="562" d="M433 26 257 252v13l176 227 91-63-122-187v34L525 90l-92-64Zm-247 0L10 252v13l176 227 91-63-122-187v34L278 90l-92-64Z"/><glyph unicode="¬" horiz-adv-x="670" d="M478 106v213l65-42H41v138h588V106H478Z"/><glyph unicode="­" horiz-adv-x="454" d="M57 214v147h346V214H57Z"/><glyph unicode="®" horiz-adv-x="507" d="M260 236q-71 0-128 33t-91 89T7 484q0 52 19 97t54 79 81 53 99 19q50 0 94-19t79-53 53-79 20-97q0-52-19-97t-53-79-78-53-96-19Zm0 64q50 0 91 24t66 67 25 93q0 51-24 93t-66 67-92 25q-53 0-96-25t-68-67-26-93q0-52 25-94t69-66 96-24Zm33 67-37 89 68 16 55-105h-86Zm-134 0v239h121q38 0 62-21t24-55q0-34-25-56t-61-22h-55l14 12v-97h-80Zm80 128-13 7h34q12 0 20 6t8 15q0 10-6 16t-20 6h-38l15 8v-58Z"/><glyph unicode="¯" horiz-adv-x="424" d="M82 634v101h336V634H82Z"/><glyph unicode="°" horiz-adv-x="532" d="M266 393q-47 0-85 21t-60 58-22 81q0 46 21 82t60 58 86 22q48 0 86-21t59-58 22-82q0-45-22-81t-60-58-85-22Zm0 96q17 0 30 9t22 23 8 33q0 18-8 32t-21 23-31 9q-17 0-31-8t-21-24-8-33q0-18 8-32t21-23 31-9Z"/><glyph unicode="±" horiz-adv-x="641" d="M67 313v130h505V313H67ZM69-6v131h504V-6H69Zm176 190v392h150V184H245Z"/><glyph unicode="²" horiz-adv-x="364" d="m60 418-13 84 102 83q16 11 30 24t24 29 10 30q0 13-7 21t-20 8q-19 0-37-15t-33-38l-78 56q21 31 45 52t51 32 61 11q39 0 67-14t44-40 16-55q0-40-19-70t-47-52-57-41l-54-40 2 25h185v-90H60Z"/><glyph unicode="³" horiz-adv-x="356" d="M177 412q-28 0-51 3t-45 11-45 20l45 78q17-10 35-15t37-5q23 0 37 10t14 29q0 15-13 24t-36 9q-13 0-27-2t-29-7l-23 61 143 99 8-29H63v91h219l10-85-120-86-6 7q10 6 22 9t20 4q46 0 76-28t30-76q0-36-19-63t-50-43-68-16Z"/><glyph unicode="´" horiz-adv-x="500" d="m171 583-47 73 179 142 73-105-205-110Z"/><glyph unicode="µ" horiz-adv-x="639" d="M74-162v693h158V222q0-33 9-55t28-33 45-12q21 0 38 7t31 21 20 31 7 38v312h158V0H420l-6 100 15-10q-20-35-43-56T332 2t-68-13q-12 0-22 3t-18 8-12 13l14 53 6-228H74Z"/><glyph unicode="¶" horiz-adv-x="763" d="M247 0v314l47-41h-63q-54 0-96 27t-67 75-25 108q0 66 28 114t78 76 119 27h407V0H510v660l50-64H334l79 56V0H247Z"/><glyph unicode="·" horiz-adv-x="257" d="M128 253q-41 0-63 23t-23 66q0 40 24 65t62 25q41 0 64-23t23-67q0-39-24-64t-63-25Z"/><glyph unicode="¸" horiz-adv-x="500" d="m152-246-10 75q21 0 43 5t38 14 16 21q0 12-11 19t-28 10-32 4l-17 14 69 108h82l-46-67q52-6 77-32t26-64q0-31-19-51t-51-34-67-18-70-4Z"/><glyph unicode="¹" horiz-adv-x="291" d="M116 430v292l17-41-61-38-46 83 117 70h87V430H116Z"/><glyph unicode="º" horiz-adv-x="400" d="M199 393q-48 0-86 20t-60 57-22 83q0 47 22 83t60 58 86 22q48 0 86-21t61-59 22-83q0-46-21-82t-61-57-87-21Zm-1 84q17 0 29 10t20 27 7 41q0 23-6 40t-19 26-31 9q-16 0-28-9t-19-27-7-39q0-24 6-41t19-27 29-10Z"/><glyph unicode="»" horiz-adv-x="565" d="m378 29-91 63 122 187v-34L286 431l92 64 175-226v-13L378 29Zm-249 0L38 92l122 187v-34L37 431l92 64 175-226v-13L129 29Z"/><glyph unicode="¼" horiz-adv-x="821" d="M125 360v292l17-41-61-38-46 83 117 70h87V360H125ZM89 0l467 700h145L233 0H89Zm623 159h74V69h-74v90Zm-185-34-16 34h147l-34-34v158l29-11-126-147ZM728-1H607v104l31-34H461l-20 80 181 220h106V-1Z"/><glyph unicode="½" horiz-adv-x="827" d="M125 360v292l17-41-61-38-46 83 117 70h87V360H125ZM89 0l467 700h145L233 0H89Zm430 0-13 84 102 83q16 11 30 24t24 29 10 30q0 13-7 21t-20 8q-19 0-37-15t-33-38l-78 56q21 31 45 52t51 32 61 11q39 0 67-14t44-40 16-55q0-40-19-70t-47-52-57-41l-54-40 2 25h185V0H519Z"/><glyph unicode="¾" horiz-adv-x="850" d="M164 342q-28 0-51 3t-45 11-45 20l45 78q17-10 35-15t37-5q23 0 37 10t14 29q0 15-13 24t-36 9q-13 0-27-2t-29-7l-23 61 143 99 8-29H50v91h219l10-85-120-86-6 7q10 6 22 9t20 4q46 0 76-28t30-76q0-36-19-63t-50-43-68-16ZM123 0l467 700h145L267 0H123Zm618 159h74V69h-74v90Zm-185-34-16 34h147l-34-34v158l29-11-126-147ZM757-1H636v104l31-34H490l-20 80 181 220h106V-1Z"/><glyph unicode="¿" horiz-adv-x="536" d="m324 294 32-131q-29-7-55-16t-47-21-38-25-24-32-9-38q0-19 9-34t27-23 40-8q34 0 66 23t61 76L496-36q-46-69-108-107t-131-38q-66 0-118 26T55-82 24 23q0 38 15 73t42 67 65 56 82 37l10 38h86Zm36 162q0-40-23-65t-63-25q-41 0-63 23t-23 67q0 39 24 64t62 25q41 0 63-23t23-66Z"/><glyph unicode="À" horiz-adv-x="694" d="m-1 0 277 700h144L695 0H523L391 355q-8 21-16 45t-16 49-15 50-13 46l30 1q-6-25-13-49t-15-47-17-47-17-49L167 0H-1Zm132 134 53 128h322l52-128H131Zm314 614-227 78 55 117 209-115-37-80Z"/><glyph unicode="Á" horiz-adv-x="694" d="m-1 0 277 700h144L695 0H523L391 355q-8 21-16 45t-16 49-15 50-13 46l30 1q-6-25-13-49t-15-47-17-47-17-49L167 0H-1Zm132 134 53 128h322l52-128H131Zm127 614-37 80 209 115 55-117-227-78Z"/><glyph unicode="Â" horiz-adv-x="694" d="m-1 0 277 700h144L695 0H523L391 355q-8 21-16 45t-16 49-15 50-13 46l30 1q-6-25-13-49t-15-47-17-47-17-49L167 0H-1Zm132 134 53 128h322l52-128H131Zm84 620-49 57 136 106h90l136-106-49-57-147 71h30l-147-71Z"/><glyph unicode="Ã" horiz-adv-x="694" d="m-1 0 277 700h144L695 0H523L391 355q-8 21-16 45t-16 49-15 50-13 46l30 1q-6-25-13-49t-15-47-17-47-17-49L167 0H-1Zm132 134 53 128h322l52-128H131Zm293 634q-20 0-40 6t-44 16q-18 9-30 13t-23 4q-14 0-22-10t-9-28H156q0 66 36 103t92 38q18 0 35-5t45-17q16-8 27-12t20-4q13 0 20 10t7 28h99q0-38-14-71t-40-52-59-19Z"/><glyph unicode="Ä" horiz-adv-x="694" d="m-1 0 277 700h144L695 0H523L391 355q-8 21-16 45t-16 49-15 50-13 46l30 1q-6-25-13-49t-15-47-17-47-17-49L167 0H-1Zm132 134 53 128h322l52-128H131Zm338 620q-43 0-65 22t-22 63q0 36 23 60t64 25q42 0 64-22t23-63q0-36-23-60t-64-25Zm-243 0q-43 0-65 22t-22 63q0 36 22 60t65 25q42 0 64-22t22-63q0-36-22-60t-64-25Z"/><glyph unicode="Å" horiz-adv-x="694" d="m-1 0 277 700h144L695 0H523L391 355q-8 21-16 45t-16 49-15 50-13 46l30 1q-6-25-13-49t-15-47-17-47-17-49L167 0H-1Zm132 134 53 128h322l52-128H131Zm216 539q-35 0-65 17t-49 45-19 60q0 36 18 65t49 47 66 17q35 0 65-17t48-46 19-66q0-32-18-60t-49-45-65-17Zm0 82q17 0 29 12t12 28q0 19-12 30t-29 12q-17 0-29-11t-12-31q0-16 12-28t29-12Z"/><glyph unicode="Æ" horiz-adv-x="1075" d="m-9 0 488 700h537V560H688V422h283V287H688V140h328V0H526v143H257l91 133h178v282l25-8L175 0H-9Z"/><glyph unicode="Ç" horiz-adv-x="694" d="M406-10q-79 0-145 26T145 91 70 206 43 353q0 78 28 144t77 114 117 76 148 27q50 0 98-13t89-38 72-61L568 483q-21 22-44 38t-52 26-60 9q-40 0-75-14t-62-41-42-65-15-85q0-46 15-83t42-65 65-41 86-14q32 0 61 9t53 24 44 36l82-130q-25-28-66-50T508 3 406-10ZM298-246l-9 75q20 0 42 5t39 14 16 21q0 12-11 19t-28 10-32 4l-18 14 69 108h82l-45-67q52-6 77-32t25-64q0-31-19-51t-50-34-67-18-71-4Z"/><glyph unicode="È" horiz-adv-x="645" d="M88 0v700h488V555H253V145h333V0H88Zm80 287v138h363V287H168Zm273 461-227 78 55 117 209-115-37-80Z"/><glyph unicode="É" horiz-adv-x="645" d="M88 0v700h488V555H253V145h333V0H88Zm80 287v138h363V287H168Zm86 461-37 80 209 115 55-117-227-78Z"/><glyph unicode="Ê" horiz-adv-x="645" d="M88 0v700h488V555H253V145h333V0H88Zm80 287v138h363V287H168Zm42 467-49 57 136 106h90l136-106-49-57-147 71h30l-147-71Z"/><glyph unicode="Ë" horiz-adv-x="645" d="M88 0v700h488V555H253V145h333V0H88Zm80 287v138h363V287H168Zm296 467q-43 0-65 22t-22 63q0 36 23 60t64 25q42 0 64-22t23-63q0-36-23-60t-64-25Zm-243 0q-43 0-65 22t-22 63q0 36 22 60t65 25q42 0 64-22t22-63q0-36-22-60t-64-25Z"/><glyph unicode="Ì" horiz-adv-x="555" d="M74 0v143h118v414H74v143h407V557H362V143h119V0H74Zm302 748-227 78 55 117 209-115-37-80Z"/><glyph unicode="Í" horiz-adv-x="555" d="M74 0v143h118v414H74v143h407V557H362V143h119V0H74Zm115 748-37 80 209 115 55-117-227-78Z"/><glyph unicode="Î" horiz-adv-x="555" d="M74 0v143h118v414H74v143h407V557H362V143h119V0H74Zm71 754-49 57 136 106h90l136-106-49-57-147 71h30l-147-71Z"/><glyph unicode="Ï" horiz-adv-x="555" d="M74 0v143h118v414H74v143h407V557H362V143h119V0H74Zm325 754q-43 0-65 22t-22 63q0 36 23 60t64 25q42 0 64-22t23-63q0-36-23-60t-64-25Zm-243 0q-43 0-65 22t-22 63q0 36 22 60t65 25q42 0 64-22t22-63q0-36-22-60t-64-25Z"/><glyph unicode="Ð" horiz-adv-x="772" d="M35 291v118h326V291H35ZM88 0v700h293q77 0 141-25t110-73 72-111 25-141q0-77-25-141T633 98 522 26 381 0H88Zm170 116-23 34h141q42 0 75 14t56 41 37 63 13 82q0 45-13 82t-36 63-57 40-75 15H232l26 32V116Z"/><glyph unicode="Ñ" horiz-adv-x="807" d="M88 0v700h152l367-500-33 5q-5 33-8 63t-5 59-4 59-2 65-1 76v173h165V0H565L182 516l51-7q5-48 8-81t6-60 4-47 1-41 1-46V0H88Zm393 768q-20 0-40 6t-44 16q-18 9-30 13t-23 4q-14 0-22-10t-9-28H213q0 66 36 103t92 38q18 0 35-5t45-17q16-8 27-12t20-4q13 0 20 10t7 28h99q0-38-14-71t-40-52-59-19Z"/><glyph unicode="Ò" horiz-adv-x="812" d="M407-10q-80 0-146 27T146 93 70 208 43 353q0 79 27 145t76 115 115 76 145 27q79 0 145-27t115-76 75-115 27-145q0-78-26-144T666 93 551 17 407-10Zm-1 160q41 0 75 15t60 42 40 65 14 81q0 44-14 81t-39 64-60 43-76 15q-41 0-75-15t-61-42-39-65-14-81q0-44 13-81t40-65 60-42 76-15Zm98 598-227 78 55 117 209-115-37-80Z"/><glyph unicode="Ó" horiz-adv-x="812" d="M407-10q-80 0-146 27T146 93 70 208 43 353q0 79 27 145t76 115 115 76 145 27q79 0 145-27t115-76 75-115 27-145q0-78-26-144T666 93 551 17 407-10Zm-1 160q41 0 75 15t60 42 40 65 14 81q0 44-14 81t-39 64-60 43-76 15q-41 0-75-15t-61-42-39-65-14-81q0-44 13-81t40-65 60-42 76-15Zm-89 598-37 80 209 115 55-117-227-78Z"/><glyph unicode="Ô" horiz-adv-x="812" d="M407-10q-80 0-146 27T146 93 70 208 43 353q0 79 27 145t76 115 115 76 145 27q79 0 145-27t115-76 75-115 27-145q0-78-26-144T666 93 551 17 407-10Zm-1 160q41 0 75 15t60 42 40 65 14 81q0 44-14 81t-39 64-60 43-76 15q-41 0-75-15t-61-42-39-65-14-81q0-44 13-81t40-65 60-42 76-15ZM274 754l-49 57 136 106h90l136-106-49-57-147 71h30l-147-71Z"/><glyph unicode="Õ" horiz-adv-x="812" d="M407-10q-80 0-146 27T146 93 70 208 43 353q0 79 27 145t76 115 115 76 145 27q79 0 145-27t115-76 75-115 27-145q0-78-26-144T666 93 551 17 407-10Zm-1 160q41 0 75 15t60 42 40 65 14 81q0 44-14 81t-39 64-60 43-76 15q-41 0-75-15t-61-42-39-65-14-81q0-44 13-81t40-65 60-42 76-15Zm77 618q-20 0-40 6t-44 16q-18 9-30 13t-23 4q-14 0-22-10t-9-28H215q0 66 36 103t92 38q18 0 35-5t45-17q16-8 27-12t20-4q13 0 20 10t7 28h99q0-38-14-71t-40-52-59-19Z"/><glyph unicode="Ö" horiz-adv-x="812" d="M407-10q-80 0-146 27T146 93 70 208 43 353q0 79 27 145t76 115 115 76 145 27q79 0 145-27t115-76 75-115 27-145q0-78-26-144T666 93 551 17 407-10Zm-1 160q41 0 75 15t60 42 40 65 14 81q0 44-14 81t-39 64-60 43-76 15q-41 0-75-15t-61-42-39-65-14-81q0-44 13-81t40-65 60-42 76-15Zm121 604q-43 0-65 22t-22 63q0 36 23 60t64 25q42 0 64-22t23-63q0-36-23-60t-64-25Zm-243 0q-43 0-65 22t-22 63q0 36 22 60t65 25q42 0 64-22t22-63q0-36-22-60t-64-25Z"/><glyph unicode="×" horiz-adv-x="532" d="M398 53 38 413l96 94 360-360-96-94Zm-264-3-94 97 359 360 95-96L134 50Z"/><glyph unicode="Ø" horiz-adv-x="807" d="M139-33 76 20l589 721 68-47L139-33Zm267 23q-79 0-145 27T145 93 70 208 43 353q0 79 26 145t76 115 115 76 146 27q79 0 145-27t115-76 75-115 27-145q0-78-26-144T666 93 551 17 406-10Zm0 160q41 0 75 15t60 42 40 65 14 81q0 44-14 81t-39 64-60 43-76 15q-42 0-76-15t-60-42-40-65-14-81q0-44 14-81t39-65 60-42 77-15Z"/><glyph unicode="Ù" horiz-adv-x="765" d="M383-6q-87 0-155 35t-106 98-39 142v431h172V278q0-38 17-68t46-48 65-18q38 0 67 17t48 48 18 69v422h166V269q0-80-38-142T537 30 383-6Zm98 754-227 78 55 117 209-115-37-80Z"/><glyph unicode="Ú" horiz-adv-x="765" d="M383-6q-87 0-155 35t-106 98-39 142v431h172V278q0-38 17-68t46-48 65-18q38 0 67 17t48 48 18 69v422h166V269q0-80-38-142T537 30 383-6Zm-89 754-37 80 209 115 55-117-227-78Z"/><glyph unicode="Û" horiz-adv-x="765" d="M383-6q-87 0-155 35t-106 98-39 142v431h172V278q0-38 17-68t46-48 65-18q38 0 67 17t48 48 18 69v422h166V269q0-80-38-142T537 30 383-6ZM250 754l-49 57 136 106h90l136-106-49-57-147 71h30l-147-71Z"/><glyph unicode="Ü" horiz-adv-x="765" d="M383-6q-87 0-155 35t-106 98-39 142v431h172V278q0-38 17-68t46-48 65-18q38 0 67 17t48 48 18 69v422h166V269q0-80-38-142T537 30 383-6Zm121 760q-43 0-65 22t-22 63q0 36 23 60t64 25q42 0 64-22t23-63q0-36-23-60t-64-25Zm-243 0q-43 0-65 22t-22 63q0 36 22 60t65 25q42 0 64-22t22-63q0-36-22-60t-64-25Z"/><glyph unicode="Ý" horiz-adv-x="689" d="M269 0v349l7-49L-7 700h193l216-310-88 3 195 307h187L425 289l15 68V0H269Zm-13 748-37 80 209 115 55-117-227-78Z"/><glyph unicode="Þ" horiz-adv-x="662" d="M88 0v700h170V589h132q66 0 117-30t82-82 31-118q0-67-30-121t-82-85-118-31H258V0H88Zm170 272h108q22 0 40 11t29 30 11 44q0 25-11 43t-29 28-40 11H258V272Z"/><glyph unicode="ß" horiz-adv-x="667" d="M427-10q-42 0-74 13t-58 38l63 110q18-15 33-20t31-6q31 0 49 20t18 57q0 28-11 50t-31 41-47 31-57 25v85q21 9 36 19t24 21 14 24 4 27q0 31-21 47t-57 17q-40 0-60-24t-21-67V0H104v499q0 70 29 123t84 82 132 30q64 0 114-20t79-58 29-91q0-32-13-64t-39-58-60-42l-2 36q42-13 76-35t59-51 38-67 14-81q0-61-28-109t-77-76-112-28ZM27 364v138h151V364H27Z"/><glyph unicode="à" horiz-adv-x="659" d="M267-9q-67 0-119 35t-84 98-31 142q0 81 31 143t85 97 123 36q38 0 69-11t56-30 41-45 25-55l-33 4v126h159V0H427v128l36 1q-8-28-26-53t-44-44-58-30-68-11Zm44 135q37 0 64 17t42 48 15 75q0 43-15 74t-42 49-64 18q-36 0-62-17t-42-49-15-75q0-43 15-74t41-49 63-17Zm78 464L184 700l73 104 179-142-47-72Z"/><glyph unicode="á" horiz-adv-x="659" d="M267-9q-67 0-119 35t-84 98-31 142q0 81 31 143t85 97 123 36q38 0 69-11t56-30 41-45 25-55l-33 4v126h159V0H427v128l36 1q-8-28-26-53t-44-44-58-30-68-11Zm44 135q37 0 64 17t42 48 15 75q0 43-15 74t-42 49-64 18q-36 0-62-17t-42-49-15-75q0-43 15-74t41-49 63-17Zm-60 463-47 73 179 142 73-105-205-110Z"/><glyph unicode="â" horiz-adv-x="659" d="M267-9q-67 0-119 35t-84 98-31 142q0 81 31 143t85 97 123 36q38 0 69-11t56-30 41-45 25-55l-33 4v126h159V0H427v128l36 1q-8-28-26-53t-44-44-58-30-68-11Zm44 135q37 0 64 17t42 48 15 75q0 43-15 74t-42 49-64 18q-36 0-62-17t-42-49-15-75q0-43 15-74t41-49 63-17ZM196 601l-58 50 144 129h96l144-129-58-50-149 86h30l-149-86Z"/><glyph unicode="ã" horiz-adv-x="659" d="M267-9q-67 0-119 35t-84 98-31 142q0 81 31 143t85 97 123 36q38 0 69-11t56-30 41-45 25-55l-33 4v126h159V0H427v128l36 1q-8-28-26-53t-44-44-58-30-68-11Zm44 135q37 0 64 17t42 48 15 75q0 43-15 74t-42 49-64 18q-36 0-62-17t-42-49-15-75q0-43 15-74t41-49 63-17Zm88 488q-17 0-35 6t-41 22q-17 14-28 19t-18 6q-14 0-25-11t-14-37l-89 13q1 56 32 96t83 40q17 0 34-6t40-21q13-11 24-18t23-8q14 0 24 12t13 36l90-13q-1-35-15-66t-39-51-59-19Z"/><glyph unicode="ä" horiz-adv-x="659" d="M267-9q-67 0-119 35t-84 98-31 142q0 81 31 143t85 97 123 36q38 0 69-11t56-30 41-45 25-55l-33 4v126h159V0H427v128l36 1q-8-28-26-53t-44-44-58-30-68-11Zm44 135q37 0 64 17t42 48 15 75q0 43-15 74t-42 49-64 18q-36 0-62-17t-42-49-15-75q0-43 15-74t41-49 63-17Zm140 506q-42 0-64 22t-23 63q0 38 23 61t64 24q41 0 63-22t23-63q0-38-23-61t-63-24Zm-241 0q-42 0-64 22t-23 63q0 38 23 61t64 24q42 0 64-22t23-63q0-38-23-61t-64-24Z"/><glyph unicode="å" horiz-adv-x="659" d="M267-9q-67 0-119 35t-84 98-31 142q0 81 31 143t85 97 123 36q38 0 69-11t56-30 41-45 25-55l-33 4v126h159V0H427v128l36 1q-8-28-26-53t-44-44-58-30-68-11Zm44 135q37 0 64 17t42 48 15 75q0 43-15 74t-42 49-64 18q-36 0-62-17t-42-49-15-75q0-43 15-74t41-49 63-17Zm19 478q-31 0-59 16t-44 42-17 58q0 33 16 59t44 43 60 16q33 0 60-16t44-42 17-60q0-31-17-57t-44-43-60-16Zm0 81q16 0 26 10t11 25q0 17-10 27t-27 10q-16 0-26-10t-11-26q0-16 11-26t26-10Z"/><glyph unicode="æ" horiz-adv-x="900" d="M214-10q-51 0-92 20T57 65t-24 84q0 40 15 71t46 52 74 31 104 10h458l-9-12v21q-2 25-15 44t-34 31-49 11q-40 0-67-15t-42-45-14-73q0-43 20-75t57-51 87-19q36 0 64 9t60 35l68-107q-31-27-66-43T719-1t-72-9q-88 0-152 35t-100 96-35 142q0 61 19 112t55 88 83 58 104 21q73-1 129-35t88-95 31-138l-1-48H277q-21 0-37-4t-27-13-16-20-6-28q0-15 7-27t22-20 33-7q26 0 49 8t43 25 30 37l53-81q-21-33-55-57T298 3t-84-13Zm143 258v84q0 20-6 34t-18 23-29 13-38 5q-39 0-67-14t-52-49l-95 94q26 31 61 54t81 37 95 13q48 0 86-10t66-33 42-54 15-78V251l-141-3Z"/><glyph unicode="ç" horiz-adv-x="545" d="M304-10q-77 0-138 36t-96 98-36 142q0 79 35 141t97 99 138 36q71 0 130-25t95-70l-87-104q-14 16-33 30t-42 22-48 8q-38 0-67-17t-45-49-16-71q0-38 16-69t46-49 66-18q26 0 48 6t40 20 35 32l86-105q-34-43-94-68T304-10Zm-98-236-10 75q21 0 43 5t38 14 16 21q0 12-11 19t-28 10-32 4l-17 14 69 108h82l-46-67q52-6 77-32t26-64q0-31-19-51t-51-34-67-18-70-4Z"/><glyph unicode="è" horiz-adv-x="586" d="M324-10q-88 0-153 35T70 122 34 263q0 61 20 112t56 88 85 58 109 21q56 0 102-20t81-56 52-85 16-107l-1-43H131l-23 90h316l-17-19v20q-2 25-15 44t-36 31-50 11q-39 0-66-15t-42-45-14-73q0-44 18-76t54-51 85-18q34 0 60 10t58 34l75-106q-31-27-66-44T397-1t-73-9Zm39 600L158 700l73 104 179-142-47-72Z"/><glyph unicode="é" horiz-adv-x="586" d="M324-10q-88 0-153 35T70 122 34 263q0 61 20 112t56 88 85 58 109 21q56 0 102-20t81-56 52-85 16-107l-1-43H131l-23 90h316l-17-19v20q-2 25-15 44t-36 31-50 11q-39 0-66-15t-42-45-14-73q0-44 18-76t54-51 85-18q34 0 60 10t58 34l75-106q-31-27-66-44T397-1t-73-9Zm-99 599-47 73 179 142 73-105-205-110Z"/><glyph unicode="ê" horiz-adv-x="586" d="M324-10q-88 0-153 35T70 122 34 263q0 61 20 112t56 88 85 58 109 21q56 0 102-20t81-56 52-85 16-107l-1-43H131l-23 90h316l-17-19v20q-2 25-15 44t-36 31-50 11q-39 0-66-15t-42-45-14-73q0-44 18-76t54-51 85-18q34 0 60 10t58 34l75-106q-31-27-66-44T397-1t-73-9ZM170 601l-58 50 144 129h96l144-129-58-50-149 86h30l-149-86Z"/><glyph unicode="ë" horiz-adv-x="586" d="M324-10q-88 0-153 35T70 122 34 263q0 61 20 112t56 88 85 58 109 21q56 0 102-20t81-56 52-85 16-107l-1-43H131l-23 90h316l-17-19v20q-2 25-15 44t-36 31-50 11q-39 0-66-15t-42-45-14-73q0-44 18-76t54-51 85-18q34 0 60 10t58 34l75-106q-31-27-66-44T397-1t-73-9Zm100 642q-42 0-64 22t-23 63q0 38 23 61t64 24q41 0 63-22t23-63q0-38-23-61t-63-24Zm-241 0q-42 0-64 22t-23 63q0 38 23 61t64 24q42 0 64-22t23-63q0-38-23-61t-64-24Z"/><glyph unicode="ì" horiz-adv-x="289" d="M64 0v531h161V0H64Zm139 590L-2 700l73 104 179-142-47-72Z"/><glyph unicode="í" horiz-adv-x="289" d="M64 0v531h161V0H64Zm1 589-47 73 179 142 73-105L65 589Z"/><glyph unicode="î" horiz-adv-x="289" d="M64 0v531h161V0H64ZM10 601l-58 50L96 780h96l144-129-58-50-149 86h30L10 601Z"/><glyph unicode="ï" horiz-adv-x="289" d="M64 0v531h161V0H64Zm201 632q-42 0-64 22t-23 63q0 38 23 61t64 24q41 0 63-22t23-63q0-38-23-61t-63-24Zm-241 0q-42 0-64 22t-23 63q0 38 23 61t64 24q42 0 64-22t23-63q0-38-23-61t-64-24Z"/><glyph unicode="ð" horiz-adv-x="597" d="M297-7q-77 0-136 35t-93 94-34 134q0 53 20 100t56 83 81 57 95 21q50 0 90-21t67-58 36-90l-95 31q-2 44-11 79t-25 64-40 51-59 40-80 32l48 101q63-15 116-43t96-70 72-93 46-116 16-136q0-87-33-153T437 31 297-7Zm1 136q33 0 59 17t41 48 16 68q0 36-15 65t-42 47-59 18q-32 0-58-17t-41-46-16-67q0-38 15-68t42-47 58-18ZM150 517l-13 65 160 41 57 27 146 33 18-66-113-26-43-24-212-50Z"/><glyph unicode="ñ" horiz-adv-x="635" d="M71 0v531h152l5-108-32-12q11 36 39 65t69 48 84 18q60 0 101-24t62-73 21-119V0H411v313q0 32-9 53t-27 31-46 10q-21 0-39-6t-31-19-20-29-8-35V0H71Zm346 614q-17 0-35 6t-41 22q-17 14-28 19t-18 6q-14 0-25-11t-14-37l-89 13q1 56 32 96t83 40q17 0 34-6t40-21q13-11 24-18t23-8q14 0 24 12t13 36l90-13q-1-35-15-66t-39-51-59-19Z"/><glyph unicode="ò" horiz-adv-x="641" d="M321-10q-83 0-147 36T72 124 34 266q0 80 37 142t102 98 148 36q83 0 147-36t102-98 37-142q0-80-37-142T469 26 321-10Zm0 138q36 0 64 18t44 49 15 71q1 40-15 71t-44 50-64 18q-36 0-64-18t-45-49-15-72q-1-40 15-71t44-49 65-18Zm59 462L175 700l73 104 179-142-47-72Z"/><glyph unicode="ó" horiz-adv-x="641" d="M321-10q-83 0-147 36T72 124 34 266q0 80 37 142t102 98 148 36q83 0 147-36t102-98 37-142q0-80-37-142T469 26 321-10Zm0 138q36 0 64 18t44 49 15 71q1 40-15 71t-44 50-64 18q-36 0-64-18t-45-49-15-72q-1-40 15-71t44-49 65-18Zm-79 461-47 73 179 142 73-105-205-110Z"/><glyph unicode="ô" horiz-adv-x="641" d="M321-10q-83 0-147 36T72 124 34 266q0 80 37 142t102 98 148 36q83 0 147-36t102-98 37-142q0-80-37-142T469 26 321-10Zm0 138q36 0 64 18t44 49 15 71q1 40-15 71t-44 50-64 18q-36 0-64-18t-45-49-15-72q-1-40 15-71t44-49 65-18ZM187 601l-58 50 144 129h96l144-129-58-50-149 86h30l-149-86Z"/><glyph unicode="õ" horiz-adv-x="641" d="M321-10q-83 0-147 36T72 124 34 266q0 80 37 142t102 98 148 36q83 0 147-36t102-98 37-142q0-80-37-142T469 26 321-10Zm0 138q36 0 64 18t44 49 15 71q1 40-15 71t-44 50-64 18q-36 0-64-18t-45-49-15-72q-1-40 15-71t44-49 65-18Zm68 486q-17 0-35 6t-41 22q-17 14-28 19t-18 6q-14 0-25-11t-14-37l-89 13q1 56 32 96t83 40q17 0 34-6t40-21q13-11 24-18t23-8q14 0 24 12t13 36l90-13q-1-35-15-66t-39-51-59-19Z"/><glyph unicode="ö" horiz-adv-x="641" d="M321-10q-83 0-147 36T72 124 34 266q0 80 37 142t102 98 148 36q83 0 147-36t102-98 37-142q0-80-37-142T469 26 321-10Zm0 138q36 0 64 18t44 49 15 71q1 40-15 71t-44 50-64 18q-36 0-64-18t-45-49-15-72q-1-40 15-71t44-49 65-18Zm120 504q-42 0-64 22t-23 63q0 38 23 61t64 24q41 0 63-22t23-63q0-38-23-61t-63-24Zm-241 0q-42 0-64 22t-23 63q0 38 23 61t64 24q42 0 64-22t23-63q0-38-23-61t-64-24Z"/><glyph unicode="÷" horiz-adv-x="597" d="M43 199v131h511V199H43ZM296-23q-27 0-47 10t-32 29-11 46q0 24 11 43t32 31 47 11q28 0 48-10t32-30 11-45q0-25-11-44t-32-30-48-11Zm0 404q-27 0-47 10t-32 30-11 45q0 24 11 43t32 31 47 11q28 0 48-10t32-29 11-46q0-24-11-43t-32-30-48-12Z"/><glyph unicode="ø" horiz-adv-x="641" d="M120-35 54 13l462 547 67-49L120-35Zm201 25q-83 0-147 36T72 124 34 266q0 80 37 142t102 98 148 36q83 0 147-36t102-98 37-142q0-80-37-142T469 26 321-10Zm0 138q36 0 64 18t44 49 15 71q1 40-15 71t-44 50-64 18q-36 0-64-18t-45-49-15-72q-1-40 15-71t44-49 65-18Z"/><glyph unicode="ù" horiz-adv-x="642" d="M252-11q-59 0-100 25T88 88 65 203v328h161V225q0-32 10-55t30-35 48-13q21 0 38 7t30 19 20 29 7 37v317h161V0H419l-7 109 30 12q-12-38-40-67T335 7t-83-18Zm128 601L175 700l73 104 179-142-47-72Z"/><glyph unicode="ú" horiz-adv-x="642" d="M252-11q-59 0-100 25T88 88 65 203v328h161V225q0-32 10-55t30-35 48-13q21 0 38 7t30 19 20 29 7 37v317h161V0H419l-7 109 30 12q-12-38-40-67T335 7t-83-18Zm-10 600-47 73 179 142 73-105-205-110Z"/><glyph unicode="û" horiz-adv-x="642" d="M252-11q-59 0-100 25T88 88 65 203v328h161V225q0-32 10-55t30-35 48-13q21 0 38 7t30 19 20 29 7 37v317h161V0H419l-7 109 30 12q-12-38-40-67T335 7t-83-18Zm-65 612-58 50 144 129h96l144-129-58-50-149 86h30l-149-86Z"/><glyph unicode="ü" horiz-adv-x="642" d="M252-11q-59 0-100 25T88 88 65 203v328h161V225q0-32 10-55t30-35 48-13q21 0 38 7t30 19 20 29 7 37v317h161V0H419l-7 109 30 12q-12-38-40-67T335 7t-83-18Zm190 643q-42 0-64 22t-23 63q0 38 23 61t64 24q41 0 63-22t23-63q0-38-23-61t-63-24Zm-241 0q-42 0-64 22t-23 63q0 38 23 61t64 24q42 0 64-22t23-63q0-38-23-61t-64-24Z"/><glyph unicode="ý" horiz-adv-x="620" d="M138-230 259 55l2-82L5 531h181l112-267q9-20 17-43t12-44l-22-13q6 15 13 37t17 49l98 281h182L389 0l-92-230H138Zm94 819-47 73 179 142 73-105-205-110Z"/><glyph unicode="þ" horiz-adv-x="659" d="M71-220v960h161V412l-33 9q7 33 34 60t68 43 88 17q51 0 94-20t74-57 49-87 18-111q0-80-30-142t-84-97T387-9q-45 0-86 17t-69 46-37 63l37 14v-351H71Zm277 346q36 0 63 17t42 49 15 74q0 42-15 73t-41 49-64 18q-37 0-64-17t-42-49-15-74q0-43 15-74t42-48 64-18Z"/><glyph unicode="ÿ" horiz-adv-x="620" d="M138-230 259 55l2-82L5 531h181l112-267q9-20 17-43t12-44l-22-13q6 15 13 37t17 49l98 281h182L389 0l-92-230H138Zm293 862q-42 0-64 22t-23 63q0 38 23 61t64 24q41 0 63-22t23-63q0-38-23-61t-63-24Zm-241 0q-42 0-64 22t-23 63q0 38 23 61t64 24q42 0 64-22t23-63q0-38-23-61t-64-24Z"/><glyph unicode="–" horiz-adv-x="595" d="M57 220v137h481V220H57Z"/><glyph unicode="—" horiz-adv-x="933" d="M57 220v137h819V220H57Z"/><glyph unicode="‘" horiz-adv-x="276" d="M147 432q-30 0-54 16t-39 44-14 65q0 32 12 62t34 57 53 47 65 30l46-56q-42-18-67-44t-26-45q0-11 7-21t23-20q23-17 32-33t9-35q0-31-22-49t-59-18Z"/><glyph unicode="’" horiz-adv-x="276" d="m72 429-46 56q42 18 67 44t26 45q0 11-7 21t-23 20q-23 17-32 33t-9 35q0 31 22 49t59 18q30 0 54-15t39-44 14-66q0-32-12-62t-34-57-53-47-65-30Z"/><glyph unicode="‚" horiz-adv-x="287" d="m85-200-46 57q40 18 64 45t24 48q0 9-4 19T100-7Q77 10 69 26t-8 37q0 31 22 49t59 18q29 0 52-16t37-44 14-65q0-34-12-65t-33-59-51-49-64-32Z"/><glyph unicode="“" horiz-adv-x="506" d="M147 683q-30 0-54 16t-39 44-14 65q0 32 12 62t34 57 53 47 65 30l46-56q-42-18-67-44t-26-45q0-11 7-21t23-20q23-17 32-33t9-35q0-31-22-49t-59-18Zm230-256q-30 0-54 16t-39 44-14 65q0 32 12 62t34 57 53 47 65 30l46-56q-42-18-67-44t-26-45q0-11 7-21t23-20q23-17 32-33t9-35q0-31-22-49t-59-18Z"/><glyph unicode="”" horiz-adv-x="505" d="m72 429-46 56q42 18 67 44t26 45q0 11-7 21t-23 20q-23 17-32 33t-9 35q0 31 22 49t59 18q30 0 54-15t39-44 14-66q0-32-12-62t-34-57-53-47-65-30Zm229 0-46 56q42 18 67 44t26 45q0 11-7 21t-23 20q-23 17-32 33t-9 35q0 31 22 49t59 18q30 0 54-15t39-44 14-66q0-32-12-62t-34-57-53-47-65-30Z"/><glyph unicode="„" horiz-adv-x="512" d="m85-200-46 57q40 18 64 45t24 48q0 9-4 19T100-7Q77 10 69 26t-8 37q0 31 22 49t59 18q29 0 52-16t37-44 14-65q0-34-12-65t-33-59-51-49-64-32Zm225 0-46 57q40 18 64 45t24 48q0 9-4 19T325-7q-23 17-31 33t-8 37q0 31 22 49t59 18q29 0 52-16t37-44 14-65q0-34-12-65t-33-59-51-49-64-32Z"/><glyph unicode="•" horiz-adv-x="346" d="M173 216q-37 0-68 18t-49 49-19 68q0 38 18 69t49 49 69 19q38 0 69-18t49-50 19-69q0-37-18-68t-50-49-69-18Z"/><glyph unicode="‹" horiz-adv-x="315" d="M186 26 10 252v13l176 227 91-63-122-187v34L278 90l-92-64Z"/><glyph unicode="›" horiz-adv-x="316" d="M129 29 38 92l122 187v-34L37 431l92 64 175-226v-13L129 29Z"/></font>
</defs>
</svg>
