<svg xmlns="http://www.w3.org/2000/svg"><defs><font id="Lexend" horiz-adv-x="588"><font-face font-family="Lexend SemiBold" ascent="1000" descent="-250" alphabetic="0"/><glyph horiz-adv-x="307"/><glyph unicode="!" horiz-adv-x="286" d="M99 251q-8 61-15 127T72 508t-4 124v76h149v-76q0-61-4-127t-12-131-15-123H99Zm42-262q-39 0-60 22T60 74q0 37 22 60t59 24q38 0 59-22t22-62q0-38-22-61t-59-24Z"/><glyph unicode="&quot;" horiz-adv-x="456" d="m263 438 21 262h148l-82-262h-87Zm-221 0 21 262h149l-83-262H42Z"/><glyph unicode="#" horiz-adv-x="716" d="m368 0 120 700h124L492 0H368ZM42 157v115h595V157H42ZM105 0l120 700h124L229 0H105ZM80 437v115h594V437H80Z"/><glyph unicode="$" horiz-adv-x="631" d="M318-10q-94 0-163 31T35 114l78 116q54-62 104-87t110-25q31 0 55 9t39 24 14 38q0 16-7 29t-20 24-31 19-40 15-48 11q-75 16-125 45t-74 72-24 102q0 45 20 83t55 67 82 43 99 15q84 0 148-27t112-85l-72-104q-37 43-84 65t-101 22q-33 0-57-8t-37-25-14-39q0-18 9-32t26-24 41-19 53-14q55-11 99-29t75-43 49-60 17-78q0-71-34-121t-94-76-140-27Zm-60-81 8 462 85-33 8-429H258Zm123 428-85 33-8 416h101l-8-449Z"/><glyph unicode="%" horiz-adv-x="927" d="m157 0 463 700h135L287 0H157Zm52 329q-49 0-87 25t-60 68-22 100q0 56 21 100t60 69 88 25q50 0 87-24t59-69 22-101q0-55-22-98t-60-69-86-26Zm0 94q18 0 31 12t20 34 7 53q0 30-7 53t-20 35-31 12q-18 0-31-12t-21-35-7-53q0-30 7-52t20-35 32-12ZM713-9q-49 0-87 25t-61 68-22 100q0 56 21 100t60 69 89 25q49 0 87-25t59-69 21-100q0-55-21-99t-60-69-86-25Zm0 93q18 0 31 12t20 35 7 53q0 30-7 52t-20 35-31 13q-19 0-32-12t-20-35-8-53q0-31 7-53t20-34 33-13Z"/><glyph unicode="&amp;" horiz-adv-x="764" d="m578 0-76 80-46 44-156 168q-34 37-59 70t-42 62-25 56-8 49q0 53 28 95t77 66 114 24q48 0 90-16t74-46 44-70l-111-67q-17 42-39 59t-55 17q-24 0-41-8t-26-22-9-37q0-21 14-48t37-55 46-54 42-45l95-104 56-53L756 0H578ZM320-10q-76 0-137 30t-97 82-36 114q0 75 42 133t127 89l88-91q-58-12-87-41t-29-77q0-37 17-64t50-42 80-15q41 0 76 17t64 47 46 73 25 96h131q-9-63-30-117t-54-97-75-74-92-47-109-16Z"/><glyph unicode="'" horiz-adv-x="237" d="m42 438 21 262h149l-83-262H42Z"/><glyph unicode="(" horiz-adv-x="382" d="M290-186Q168-110 104 4T40 258q0 139 64 253t187 191l79-78q-96-66-143-161t-48-205q0-109 47-204t144-162l-80-78Z"/><glyph unicode=")" horiz-adv-x="382" d="m91-186-79 78q96 66 143 161t48 205q0 109-47 204T12 624l80 78q122-76 186-190t64-254q0-139-64-253T91-186Z"/><glyph unicode="*" horiz-adv-x="423" d="m164 360 12 129 13-2-118-80-48 84 127 54-1-8-128 59 49 83 121-86-15-1-13 132h101l-13-139-13 7 115 86 49-84-130-59v11l128-55-48-82-114 82 14-2 14-129H164Z"/><glyph unicode="+" horiz-adv-x="595" d="M47 224v117h501V224H47ZM232 40v487h130V40H232Z"/><glyph unicode="," horiz-adv-x="281" d="m86-193-44 53q39 19 62 46t24 47q0 9-5 19T101-3Q79 14 72 29t-8 34q0 29 21 46t54 17q27 0 49-15t36-43 13-64q0-32-11-62t-31-57-48-47-61-31Z"/><glyph unicode="-" horiz-adv-x="431" d="M52 221v132h327V221H52Z"/><glyph unicode="." horiz-adv-x="247" d="M124-11q-39 0-60 22T43 74q0 37 22 60t59 24q38 0 59-22t21-62q0-38-22-61t-58-24Z"/><glyph unicode="/" horiz-adv-x="583" d="m11-139 415 839h140L152-139H11Z"/><glyph unicode="0" horiz-adv-x="653" d="M326-10q-90 0-153 43T76 156 42 350q0 113 33 193t97 124 154 43q90 0 154-43t97-123 34-194q0-113-33-193T480 33 326-10Zm0 129q68 0 104 60t37 171q0 113-36 174t-105 61q-68 0-104-61t-37-174q0-111 36-171t105-60Z"/><glyph unicode="1" horiz-adv-x="542" d="M213 49v568l37-67-146-71-29 133 195 98h91V49H213ZM90 0v135h397V0H90Z"/><glyph unicode="2" horiz-adv-x="548" d="M70 0 37 82l207 229q17 18 36 42t38 49 30 50 11 45q0 23-10 40t-29 28-47 10q-26 0-49-13t-43-40-35-63L34 521q20 58 57 101t88 68 109 24q61 0 110-25t77-71 28-104q0-22-4-45t-15-48-27-52-40-58-54-64L204 74l-20 61h348V0H70Z"/><glyph unicode="3" horiz-adv-x="571" d="M276-10q-82 0-142 35T22 145l110 70q23-35 47-57t49-32 54-10q30 0 56 14t41 40 16 58q0 34-13 57t-38 35-59 12q-15 0-32-3t-37-9-42-17l-35 93 185 202 38-27-294 4v129h421l27-55-231-250-34 41q8 4 26 7t34 4q46 0 86-17t71-47 48-70 18-86q0-69-34-123t-93-86-131-32Z"/><glyph unicode="4" horiz-adv-x="648" d="M350 0v566l70-4-246-301-17 24h454V159H84L22 277l353 427h120V0H350Z"/><glyph unicode="5" horiz-adv-x="587" d="M274-7q-76 0-137 31T34 116l81 90q43-48 78-65t77-17q35 0 63 14t44 41 16 58q0 33-16 59t-42 41-61 16q-22 0-41-3t-42-13-56-28l-68 90 43 305h394V575H186l37 44-33-222-48 23q15 14 41 26t58 20 62 8q66 0 117-30t82-83 31-123q0-69-34-124t-93-88T274-7Z"/><glyph unicode="6" horiz-adv-x="572" d="M290 0q-53 0-99 19t-81 53-54 80-20 99q0 34 7 68t23 71 36 76 47 84l96 161h140l4-10-127-205q-27-44-47-84t-36-77-29-75l-29 80q13 34 35 61t50 47 59 30 61 11q59 0 108-31t79-84 30-114q0-75-32-133t-90-93T290 0Zm2 127q34 0 60 15t42 44 15 64q0 31-15 58t-42 45-59 17q-35 0-62-16t-43-44-16-59q0-36 15-63t43-44 62-17Z"/><glyph unicode="7" horiz-adv-x="549" d="m93 0 283 636 36-65H50v133h449l15-77L246 0H93Z"/><glyph unicode="8" horiz-adv-x="592" d="M296-3q-70 0-127 27T78 99 44 204q0 36 9 66t29 54 48 42 65 31l-10-35q-28 11-50 26t-38 36-24 43-8 50q0 54 31 97t83 68 117 26q64 0 116-25t83-69 31-97q0-26-7-49t-23-42-38-36-52-28l-7 31q33-10 60-27t47-42 31-55 11-65q0-59-34-106t-91-74T296-3Zm0 123q30 0 55 12t39 32 14 48q0 28-14 49t-38 35-56 13q-31 0-55-13t-39-34-14-50q0-26 14-46t38-33 56-13Zm0 311q27 0 48 10t33 28 13 42q0 23-12 41t-34 30-48 11q-27 0-48-11t-34-29-12-42q0-24 12-41t33-28 49-11Z"/><glyph unicode="9" horiz-adv-x="569" d="m214 0-4 10 216 442 21-67q-13-34-35-61t-50-47-60-31-61-11q-57 0-105 31t-77 82-29 112q0 72 33 130t92 91 131 34q52 0 98-18t81-52 54-77 20-92q0-32-6-65t-18-68-30-77-43-92L355 0H214Zm62 359q34 0 60 15t41 40 15 57q0 34-14 60t-41 42-60 16q-31 0-55-15t-39-41-15-61q0-30 14-55t39-42 55-16Z"/><glyph unicode=":" horiz-adv-x="247" d="M124-10q-39 0-60 22T43 75q0 37 22 60t59 24q38 0 59-22t21-62q0-38-22-61t-58-24Zm0 379q-39 0-60 22t-21 63q0 37 22 60t59 24q38 0 59-22t21-62q0-38-22-61t-58-24Z"/><glyph unicode=";" horiz-adv-x="281" d="m87-193-44 53q39 19 62 46t24 47q0 9-5 19T102-3Q80 14 73 29t-8 34q0 29 21 46t54 17q27 0 49-15t36-43 13-64q0-32-11-62t-31-57-48-47-61-31Zm53 563q-39 0-60 22t-21 63q0 37 22 60t59 24q38 0 59-22t21-62q0-38-22-61t-58-24Z"/><glyph unicode="&lt;" horiz-adv-x="525" d="M423-8 44 209v92l379 217 60-110-346-187v69l346-188L423-8Z"/><glyph unicode="=" horiz-adv-x="605" d="M62 327v117h481V327H62Zm0-208v116h481V119H62Z"/><glyph unicode="&gt;" horiz-adv-x="525" d="M108-8 48 102l346 188v-69L48 408l60 110 379-217v-92L108-8Z"/><glyph unicode="?" horiz-adv-x="528" d="m195 230-31 135q33 8 60 18t50 23 37 27 24 33 9 40q0 22-12 39t-32 27-47 10q-35 0-69-24t-62-77l-99 89q45 68 106 105t129 38q65 0 117-26t82-73 31-103q0-36-15-70t-41-65-63-54-79-37l-12-55h-83ZM159 74q0 37 22 60t58 24q39 0 60-22t21-62q0-38-22-61t-59-24q-38 0-59 22t-21 63Z"/><glyph unicode="@" horiz-adv-x="965" d="M414-162q-87 0-156 26T140-61 66 56 40 206q0 117 41 210t115 159 171 100 209 35q80 0 144-22t110-65 70-99 25-128q0-69-19-131t-55-110-81-76-101-28q-37 0-66 13t-45 35-16 54q0 17 2 34t4 35l22-20q-16-48-41-82t-59-51-74-18q-45 0-80 23t-56 66-20 97q0 48 17 97t51 91 77 67 96 26q31 0 55-16t40-44 19-66l-28-38 28 153h130l-56-314q-3-17 2-27t15-16 22-5q28 0 52 19t43 54 28 78 11 95q0 75-32 129t-93 82-147 29q-102 0-184-28t-141-84-90-133-31-177q0-69 19-122t57-92 92-57 125-20q47 0 81 6t65 20 69 34l37-67q-59-30-101-45t-78-22-76-6Zm18 322q28 0 55 18t46 49 25 65q3 15 5 27t2 23q0 22-8 38t-23 24-37 9q-34 0-61-25t-44-65-16-84q0-37 15-58t41-21Z"/><glyph unicode="A" horiz-adv-x="696" d="m7 0 275 700h134L689 0H535L394 377q-6 16-14 41t-18 53-17 53-12 43h27q-6-22-13-46t-16-50-17-50-17-47L156 0H7Zm128 147 49 120h321l50-120H135Z"/><glyph unicode="B" horiz-adv-x="694" d="M91 0v700h304q70 0 118-20t74-60 25-93q0-60-30-100t-86-55l-1 20q47-11 81-36t54-62 19-84q0-52-17-91t-50-66-77-39T405 0H91Zm144 130h164q32 0 54 9t35 30 12 47q0 26-13 44t-36 27-57 10H235V130Zm0 286h142q27 0 47 10t30 27 11 40q0 37-24 57t-73 20H235V416Z"/><glyph unicode="C" horiz-adv-x="689" d="M398-10q-77 0-141 26T145 91 71 206 45 352q0 77 27 142t76 114 115 76 143 27q50 0 98-13t89-40 70-62l-94-104q-23 24-49 41t-54 27-61 10q-43 0-80-16t-66-44-44-69-17-90q0-50 16-90t45-69 69-44 90-16q32 0 62 9t55 25 46 37l74-117q-25-27-65-49T499 3 398-10Z"/><glyph unicode="D" horiz-adv-x="764" d="M91 0v700h287q77 0 139-25t108-72 70-111 24-142q0-77-24-141T626 98 518 26 378 0H91Zm150 109-16 26h148q45 0 81 15t61 43 39 68 13 89q0 49-13 88t-38 68-62 43-81 16H222l19 24V109Z"/><glyph unicode="E" horiz-adv-x="635" d="M91 0v700h473V568H238V132h333V0H91Zm70 293v128h355V293H161Z"/><glyph unicode="F" horiz-adv-x="613" d="M91 0v700h150V0H91Zm69 278v129h362V278H160Zm0 287v135h404V565H160Z"/><glyph unicode="G" horiz-adv-x="777" d="M412-10q-81 0-148 27T147 94 72 209 45 352q0 77 27 142t78 114 119 76 149 27q56 0 107-15t93-41 70-60l-93-98q-26 25-54 42t-59 27-65 10q-47 0-86-17t-70-47-46-71-17-89q0-47 17-88t48-72 72-48 88-18q34 0 63 10t52 28 35 44 13 53v24l20-28H406v125h324q1-11 2-27t2-31 1-25q0-68-24-125t-68-98-103-63-128-23Z"/><glyph unicode="H" horiz-adv-x="773" d="M532 0v700h150V0H532ZM91 0v700h150V0H91Zm60 281 1 136h457V281H151Z"/><glyph unicode="I" horiz-adv-x="530" d="M73 0v129h117v442H73v129h384V571H340V129h117V0H73Z"/><glyph unicode="J" horiz-adv-x="658" d="M260-10q-38 0-71 9t-60 25-49 39-37 53l87 91q17-23 31-38t28-24 28-13 30-4q28 0 49 13t33 36 12 53v337H213v133h383V567H488V213q0-50-17-91t-48-70-72-46-91-16Z"/><glyph unicode="K" horiz-adv-x="737" d="m204 207-32 136 354 357h182L204 207ZM91 0v700h150V0H91Zm454 0L283 347l103 90L723 0H545Z"/><glyph unicode="L" horiz-adv-x="606" d="M91 0v700h150V135h317V0H91Z"/><glyph unicode="M" horiz-adv-x="873" d="M91 0v700h137l255-415-90 1 258 414h131V0H635v240q0 90 4 162t16 143l18-47-205-318h-66L201 496l17 49q11-67 15-137t5-168V0H91Z"/><glyph unicode="N" horiz-adv-x="802" d="M91 0v700h134l387-523h-28q-4 31-7 60t-5 60-4 63-3 69-1 80v191h147V0H575L180 528l38-1q5-52 8-88t6-64 4-47 1-38 1-38V0H91Z"/><glyph unicode="O" horiz-adv-x="802" d="M402-10q-78 0-143 27T146 92 71 207 45 352q0 79 26 145t74 114 114 76 142 27q78 0 142-27t113-76 75-115 26-144q0-78-26-144T657 93 544 17 402-10Zm-1 142q45 0 82 16t64 46 42 70 16 88q0 48-15 88t-43 69-64 46-82 17q-44 0-81-16t-65-46-42-70-15-88q0-48 14-88t43-69 65-46 81-17Z"/><glyph unicode="P" horiz-adv-x="653" d="M91 0v700h297q63 0 113-29t79-81 30-115q0-65-29-117t-80-82-113-31H241V0H91Zm148 380h132q24 0 43 12t30 34 12 48q0 27-11 47t-31 32-43 12H239V380Z"/><glyph unicode="Q" horiz-adv-x="802" d="M615-110 348 248l113 78L725-29l-110-81ZM401-10q-77 0-142 27T146 92 71 207 45 352q0 79 26 145t74 114 114 76 142 27q78 0 142-27t113-76 75-115 26-144q0-78-26-144T657 93 544 17 401-10Zm0 142q45 0 82 16t64 46 42 70 16 88q0 48-15 88t-43 69-64 46-82 17q-44 0-81-16t-65-46-42-70-15-88q0-48 14-88t43-69 65-46 81-17Z"/><glyph unicode="R" horiz-adv-x="700" d="M91 0v700h310q65 0 118-29t83-80 31-114q0-63-30-114t-84-82-118-30H236V0H91Zm397 0L310 316l154 25L662-1 488 0ZM236 373h158q27 0 47 12t32 35 11 51q0 30-13 52t-38 34-58 13H236V373Z"/><glyph unicode="S" horiz-adv-x="631" d="M318-10q-65 0-118 16t-95 47-75 75l94 107q49-68 97-92t106-25q31 0 55 9t39 24 14 38q0 16-7 29t-20 24-31 19-40 15-48 11q-56 13-98 31t-70 46-41 63-14 79q0 45 20 83t55 67 82 43 99 15q64 0 112-14t83-41 60-67l-95-92q-21 28-45 47t-53 28-59 10q-33 0-57-8t-37-25-14-39q0-18 9-32t26-24 41-19 53-14q55-11 99-29t75-43 49-60 17-78q0-71-34-121t-94-76-140-27Z"/><glyph unicode="T" horiz-adv-x="630" d="M237 0v565H33v135h564V565H387V0H237Z"/><glyph unicode="U" horiz-adv-x="757" d="M379-6q-85 0-151 35t-105 98-38 142v432h151V278q0-42 19-75t51-54 73-20q41 0 74 20t53 53 20 76v423h146V269q0-79-37-141T530 30 379-6Z"/><glyph unicode="V" horiz-adv-x="713" d="M290 0 11 700h159l146-379q12-31 20-54t15-44 13-40 12-43l-29-1q8 31 15 57t18 56 26 69l138 379h158L421 0H290Z"/><glyph unicode="W" horiz-adv-x="994" d="M224 0 11 700h154l114-391q7-21 12-45t9-47 6-42 5-33l-24 1 15 70q6 28 11 51t14 46l110 289h124l108-289q12-30 19-57t13-53 9-52l-21-4q3 21 4 36t3 29 4 26 6 32 12 44l113 389h152L768 0H656L484 414l16-2L339 0H224Z"/><glyph unicode="X" horiz-adv-x="698" d="M507 0 290 314 12 700h184l212-310L691 0H507ZM7 0l267 381 114-79L181 0H7Zm417 325-113 76 196 299h174L424 325Z"/><glyph unicode="Y" horiz-adv-x="679" d="M274 0v349l7-49L-2 700h173l216-310-68 3 195 307h167L410 289l15 68V0H274Z"/><glyph unicode="Z" horiz-adv-x="675" d="M60 0v102l383 511 45-52H86v139h521V599L226 87l-46 47h438V0H60Z"/><glyph unicode="[" horiz-adv-x="414" d="M80-190v890h284V582H208l6 8V-84l-10 12h160v-118H80Z"/><glyph unicode="\" horiz-adv-x="575" d="M427-107 29 700h140l400-807H427Z"/><glyph unicode="]" horiz-adv-x="414" d="M50-190v118h156l-6-8v674l10-12H50v118h284v-890H50Z"/><glyph unicode="^" d="m18 363 217 368h119l217-368H424L263 641l64 2-165-280H18Z"/><glyph unicode="_" horiz-adv-x="688" d="M44-182v114h600v-114H44Z"/><glyph unicode="`" horiz-adv-x="500" d="M326 591 131 696l71 97 167-136-43-66Z"/><glyph unicode="a" horiz-adv-x="651" d="M269-10q-66 0-119 36t-84 98-31 142q0 80 31 142t86 97 123 35q39 0 71-11t57-32 42-46 24-56l-30 5v129h141V0H437v127l32 3q-8-28-26-53t-44-44-60-31-70-12Zm39 123q40 0 70 19t46 53 17 81q0 45-16 79t-47 53-70 20q-39 0-68-19t-47-54-17-79q0-46 17-80t46-54 69-19Z"/><glyph unicode="b" horiz-adv-x="649" d="M376-10q-35 0-68 10t-60 27-45 40-23 47l32 12-7-124H71v738h143V405l-28 11q6 24 23 46t43 40 57 28 64 10q69 0 123-35t86-98 31-142q0-80-30-142t-85-97-122-36Zm-34 121q40 0 69 19t47 54 17 81q0 45-16 80t-47 54-70 19q-40 0-70-19t-46-54-17-80q0-46 16-80t47-54 70-20Z"/><glyph unicode="c" horiz-adv-x="542" d="M301-10q-76 0-136 36t-94 98-35 141q0 79 34 141t95 98 136 36q71 0 130-26t92-72l-78-94q-14 19-35 34t-45 25-51 9q-41 0-72-19t-50-54-18-78q0-42 18-76t51-54 72-20q26 0 49 7t43 22 38 36l77-94q-33-43-93-69T301-10Z"/><glyph unicode="d" horiz-adv-x="648" d="M278-10q-70 0-124 35t-86 97-32 143q0 79 31 141t86 98 125 36q37 0 71-11t62-32 45-44 19-51l-36-7v345h143V0H447l-6 122 28-3q-2-25-18-48t-42-41-60-29-71-11Zm32 118q40 0 70 20t47 55 17 82q0 46-17 81t-47 55-70 20q-40 0-69-20t-46-55-17-81q0-47 16-82t46-55 70-20Z"/><glyph unicode="e" horiz-adv-x="586" d="M322-10q-86 0-150 35T72 121 36 261q0 62 20 113t56 88 85 58 108 21q54 0 100-20t79-55 52-84 16-105l-1-44H126l-23 87h331l-16-18v22q-2 27-17 48t-40 34-54 13q-44 0-74-17t-47-50-16-80q0-48 20-83t58-54 89-20q35 0 64 11t62 38l68-95q-29-26-64-43T395-1t-73-9Z"/><glyph unicode="f" horiz-adv-x="393" d="M112 0v566q0 49 22 89t60 63 91 23q35 0 66-11t53-31l-42-105q-13 8-26 13t-25 6q-19 0-31-6t-19-19-6-32V0H112ZM33 396v120h336V396H33Z"/><glyph unicode="g" horiz-adv-x="663" d="M312-230q-63 0-124 18T88-163l51 101q20-14 46-25t54-17 59-6q52 0 85 16t51 48 17 80v92l24-5q-6-33-33-60t-68-44-85-17q-73 0-130 34t-90 94-33 139q0 79 32 140t89 97 129 36q30 0 57-7t51-19 42-28 31-34 15-36l-29-8 4 121h136V40q0-65-19-115t-55-84-89-53-118-18Zm4 344q42 0 73 19t49 53 17 80q0 45-17 79t-48 54-74 19q-41 0-72-19t-48-54-18-79q0-45 17-79t49-54 72-19Z"/><glyph unicode="h" horiz-adv-x="622" d="M71 0v740h140V421l-28-12q11 36 39 65t69 48 84 18q60 0 100-24t61-72 21-120V0H415v313q0 36-10 60t-30 35-51 10q-24 0-44-7t-35-22-23-32-9-39V0H71Z"/><glyph unicode="i" horiz-adv-x="306" d="M83 0v529h142V0H83Zm70 637q-41 0-64 20t-23 58q0 34 23 55t64 22q41 0 64-20t23-57q0-34-23-56t-64-22Z"/><glyph unicode="j" horiz-adv-x="299" d="M18-206-35-96q43 0 69 12t37 39 12 73v501h142V-6q0-65-24-109t-71-68-112-23Zm139 843q-41 0-64 20t-23 58q0 34 23 55t64 22q41 0 64-20t23-57q0-34-23-56t-64-22Z"/><glyph unicode="k" horiz-adv-x="607" d="m206 159-42 117 250 253h187L206 159ZM71 0v740h142V0H71Zm358 0L239 239l100 80L600 0H429Z"/><glyph unicode="l" horiz-adv-x="287" d="M72 0v740h142V0H72Z"/><glyph unicode="m" horiz-adv-x="949" d="M70 0v529h137l3-101-21-4q11 26 29 47t43 36 51 23 54 9q41 0 74-13t56-40 36-73l-22 2 7 16q13 24 33 44t45 34 52 22 53 8q62 0 103-24t61-74 21-120V0H743v311q0 36-10 59t-29 34-49 12q-23 0-42-7t-34-21-23-32-8-40V0H405v312q0 33-10 56t-29 36-47 12q-23 0-42-7t-34-21-22-32-8-39V0H70Z"/><glyph unicode="n" horiz-adv-x="622" d="M71 0v529h136l4-108-28-12q11 36 39 65t69 48 84 18q60 0 100-24t61-72 21-120V0H415v313q0 36-10 60t-30 35-51 10q-24 0-44-7t-35-22-23-32-9-39V0H71Z"/><glyph unicode="o" horiz-adv-x="633" d="M317-10q-81 0-144 35T73 123 36 265q0 80 36 142t100 97 145 36q80 0 143-35t100-98 36-142q0-80-36-142t-99-97-144-36Zm0 124q39 0 70 19t48 54 17 78q1 44-16 78t-49 54-70 20q-40 0-71-20t-49-54-17-78q-1-43 17-77t49-54 71-20Z"/><glyph unicode="p" horiz-adv-x="650" d="M71-220v749h137l4-119-26 9q7 32 34 59t69 44 86 17q69 0 123-35t85-97 31-142q0-79-31-141t-85-97T375-9q-46 0-87 17t-70 47-37 62l33 14v-351H71Zm272 333q39 0 69 19t47 53 17 80q0 45-17 79t-46 53-70 19q-40 0-70-18t-47-53-17-80q0-45 17-79t47-54 70-19Z"/><glyph unicode="q" horiz-adv-x="649" d="M436-220v347l29-5q-2-25-18-48t-43-43-59-30-67-11q-70 0-124 35t-86 98-32 142q0 80 31 142t85 97 122 36q39 0 73-11t62-31 44-43 19-50l-35-5 5 130h136v-750H436ZM307 113q40 0 70 19t46 53 17 80q0 46-16 80t-47 54-70 19q-40 0-70-19t-46-54-17-80q0-45 16-79t47-54 70-19Z"/><glyph unicode="r" horiz-adv-x="438" d="M71 0v529h137l5-170-24 35q12 41 39 74t63 53 77 19q17 0 33-3t27-7l-38-156q-11 6-28 10t-36 5q-24 0-44-8t-36-24-23-37-9-46V0H71Z"/><glyph unicode="s" horiz-adv-x="490" d="M249-10q-74 0-131 24T25 82l89 76q30-33 68-47t76-15q15 0 27 3t22 10 13 16 5 21q0 22-18 34-10 6-31 13t-54 17q-51 13-86 30t-57 40q-18 21-27 45t-10 55q0 36 16 65t44 51 66 32 78 12q41 0 80-10t72-28 59-44l-76-84q-18 17-40 31t-47 22-43 8q-17 0-30-3t-23-9-13-16-5-20q0-11 5-21t16-17q11-6 32-14t59-18q48-13 81-29t54-37q17-18 25-41t8-51q0-49-27-87t-76-60-108-22Z"/><glyph unicode="t" horiz-adv-x="394" d="M122 0v663h142V0H122ZM23 402v127h350V402H23Z"/><glyph unicode="u" horiz-adv-x="630" d="M253-10q-58 0-99 25T90 88 67 203v326h142V226q0-36 12-62t34-41 54-14q23 0 42 7t34 22 23 33 8 41v317h142V0H423l-5 109 26 12q-12-37-40-67T337 7t-84-17Z"/><glyph unicode="v" horiz-adv-x="595" d="M237 0 15 529h156l141-395-33-6 148 401h152L346 0H237Z"/><glyph unicode="w" horiz-adv-x="823" d="M192 0 15 529l148 1 108-361-22 3 119 281h84l124-282-24-2 108 360h148L628 0H525L400 301l16-2L294 0H192Z"/><glyph unicode="x" horiz-adv-x="592" d="M405 0 274 187l-40 56L20 529h172l128-181 44-59L575 0H405ZM18 0l211 289 78-93L185 0H18Zm340 238-76 93 113 198h167L358 238Z"/><glyph unicode="y" horiz-adv-x="607" d="M145-230 261 42l2-82L5 529h161l129-305q8-17 15-39t13-43l-24-11q7 17 14 39t16 47l111 312h162L380 0l-91-230H145Z"/><glyph unicode="z" horiz-adv-x="529" d="M50 0v90l279 362v-40H50v117h422v-92L205 84l-4 33h278V0H50Z"/><glyph unicode="{" horiz-adv-x="422" d="M365-204q-50 10-87 26t-61 40-35 56-12 75l1 95q0 53-23 79t-66 28H40v110h44q43 1 65 27t22 80l-1 95q0 82 46 128t149 69l30-100q-38-13-59-26t-30-34-9-59l2-87q0-58-32-97t-101-56v11q68-19 100-58t33-96l-2-87q0-35 8-55t30-34 60-26l-30-104Z"/><glyph unicode="|" horiz-adv-x="290" d="M78-193v933h134v-933H78Z"/><glyph unicode="}" horiz-adv-x="422" d="M56-204 26-104q38 13 59 26t30 34 10 59l-2 87q0 58 32 97t100 56l1-11q-68 19-100 58t-33 96l2 87q0 36-9 56t-30 33-60 26l30 104q51-10 87-26t61-40 36-56 12-75l-1-95q0-53 23-79t66-28h41V195h-43q-43-1-65-27t-22-80l1-95q0-82-47-128T56-204Z"/><glyph unicode="~" horiz-adv-x="543" d="M374 209q-16 0-36 5t-40 12-37 14q-14 7-31 13t-31 10-24 4q-19 0-29-15t-10-46H35q0 87 35 133t107 47q12 0 27-3t29-8 29-11 26-11q14-5 28-11t29-10 24-4q17 0 27 15t9 40l102-2q0-56-15-94t-44-58-74-20Z"/><glyph horiz-adv-x="307"/><glyph unicode="¡" horiz-adv-x="286" d="M182 279q8-61 15-126t12-131 4-124v-76H64v76q0 61 4 127t12 131 15 123h87Zm-42 262q39 0 60-22t21-63q0-37-22-60t-59-24q-38 0-59 22t-22 62q0 38 22 61t59 24Z"/><glyph unicode="¢" horiz-adv-x="554" d="M313 78q-77 0-138 36t-96 98-35 141q0 79 35 141t96 98 138 36q71 0 129-26t93-72l-78-94q-14 19-35 34t-45 25-51 9q-42 0-74-19t-51-54-19-78q0-42 19-76t51-54 75-20q26 0 49 7t43 22 38 36l77-94q-34-43-94-69T313 78ZM257 0v108l19 37v413l-19 48v98h112v-99l-17-42V143l17-36V0H257Z"/><glyph unicode="£" horiz-adv-x="629" d="m189 53-75 21q18 10 31 29t22 44 8 50q0 14-2 31t-7 37-12 41-15 46q-12 37-18 61t-8 41-3 33q0 69 30 120t84 79 128 28q69 0 120-23t76-66l-105-82q-12 15-26 24t-32 14-37 5q-31 0-55-14t-38-38-14-56q0-31 9-63t19-62q11-33 20-66t9-60q0-30-11-58t-34-57-64-59Zm252-74q-31 0-66 9T318 4q-13 4-30 9t-36 9-36 4q-32 0-68-9T75-10L24 90q42 26 92 40t102 15q30 0 54-5t67-20q21-7 46-14t51-8q24 0 52 8t57 27l66-92q-34-30-80-46t-90-16ZM44 310v91h420v-91H44Z"/><glyph unicode="¤" horiz-adv-x="557" d="M281 113q-56 0-101 25t-71 68-27 98q0 55 26 98t72 68 101 25q56 0 101-25t71-68 26-98q0-54-26-97t-71-69-101-25ZM130 67l-90 90 89 92 88-91-87-91Zm-6 300-89 85 90 89 90-86-91-88Zm157-145q23 0 39 10t27 29 10 43q0 25-10 44t-26 29-40 11q-22 0-39-10t-27-30-10-44q0-24 10-42t27-29 39-11ZM433 72l-91 87 88 91 92-88-89-90Zm-2 290-89 89 91 96 90-90-92-95Z"/><glyph unicode="¥" horiz-adv-x="679" d="M274 0v349l7-49L-2 700h173l216-310-68 3 195 307h167L410 289l15 68V0H274ZM143 113v75l428-1v-76l-428 2Zm0 128v76l428-1v-76l-428 1Z"/><glyph unicode="¦" horiz-adv-x="297" d="M80-202v396h136v-396H80Zm0 547v395h136V345H80Z"/><glyph unicode="§" horiz-adv-x="567" d="m340 131-31 74q31 3 50 12t29 23 9 30q0 20-14 33t-46 24l-99 32q-24 10-50 24t-50 36-38 52-15 72q0 36 13 67t40 54 68 37 98 14q44 0 83-10t70-30 54-47l-74-83q-23 21-46 34t-45 18-45 6q-37 0-59-16t-22-43q0-16 9-29t28-23 43-19l87-30q75-26 111-65t34-96q-2-46-25-78t-66-51-101-22Zm-68-270q-45 0-88 11t-80 33-63 47l71 90q40-36 82-54t77-18q41 0 63 15t23 43q0 16-11 28t-30 21-43 18l-96 33q-70 25-104 64t-35 96q0 41 21 75t63 55 98 23l30-79q-23-3-39-12t-24-21-9-31q0-20 16-35t53-27l79-26q47-17 85-39t60-55 22-80q0-50-23-89t-73-63-125-23Z"/><glyph unicode="¨" horiz-adv-x="500" d="M364 631q-39 0-60 20t-21 59q0 35 22 56t59 22q39 0 60-20t21-58q0-35-22-57t-59-22Zm-228 0q-38 0-59 20t-22 59q0 35 22 56t59 22q39 0 60-20t21-58q0-35-21-57t-60-22Z"/><glyph unicode="©" horiz-adv-x="789" d="M394-15q-76 0-142 28T136 91 58 207 29 350q0 77 28 143t78 116 116 78 143 28q76 0 142-28t116-78 79-116 28-143q0-77-28-143T653 91 536 13 394-15Zm17 158q-60 0-108 27t-76 73-29 107q0 57 28 104t77 75 108 28q35 0 68-12t65-35l-45-96q-16 12-30 19t-26 10-24 4q-29 0-52-13t-36-35-13-49q0-29 13-51t36-35 52-13q19 0 40 8t43 24l46-96q-31-22-66-33t-71-11Zm-17-84q61 0 113 22t93 63 62 92 23 114q0 61-22 114t-63 92-92 62-114 23q-60 0-113-22t-92-62-63-93-23-114q0-61 23-113t62-93 92-62 114-23Z"/><glyph unicode="ª" horiz-adv-x="383" d="M141 391q-38 0-66 21t-43 60-15 90q0 46 17 82t48 56 71 21q53 0 79-32t27-93l-19 52v67h109V401H240v73l19 34q0-30-14-57t-42-43-62-17Zm40 83q19 0 33 10t22 28 8 44q0 38-17 60t-47 22q-15 0-28-10t-20-28-7-39q0-27 6-46t19-30 31-11Z"/><glyph unicode="«" horiz-adv-x="538" d="M417 34 247 253v10l169 222 83-57-122-182 1 27L499 91l-82-57Zm-236 0L11 253v10l169 222 83-57-122-182 1 27L263 91l-82-57Z"/><glyph unicode="¬" horiz-adv-x="670" d="M490 109v210l50-33H44v126h582V109H490Z"/><glyph unicode="­" horiz-adv-x="434" d="M56 221v132h327V221H56Z"/><glyph unicode="®" horiz-adv-x="507" d="M259 243q-68 0-123 32t-89 87-33 122q0 51 19 94t52 76 78 52 96 19q50 0 93-19t77-52 52-76 19-94q0-50-18-94t-52-76-76-52-95-19Zm0 64q49 0 89 23t65 64 24 90q0 49-24 89t-64 65-90 24q-51 0-92-24t-65-64-25-90q0-50 24-90t66-63 92-24Zm34 60-37 92 63 16 51-108h-77Zm-130 0v239h118q36 0 59-21t23-54q0-33-24-54t-58-22h-61l16 11v-99h-73Zm73 128-14 7h39q13 0 22 6t9 17q0 11-7 17t-22 6h-43l16 8v-61Z"/><glyph unicode="¯" horiz-adv-x="424" d="M90 637v92h320v-92H90Z"/><glyph unicode="°" horiz-adv-x="532" d="M266 395q-46 0-83 21t-59 57-22 80q0 45 21 81t59 58 84 21q47 0 84-21t58-57 22-81q0-44-22-80t-59-58-83-21Zm0 87q19 0 34 9t24 26 9 37q0 20-9 36t-24 26-34 9q-19 0-34-9t-24-26-9-37q0-20 9-36t24-26 34-9Z"/><glyph unicode="±" horiz-adv-x="622" d="M62 304v117h497V304H62ZM63-5v119h497V-5H63Zm180 176v391h136V171H243Z"/><glyph unicode="²" horiz-adv-x="358" d="m62 418-12 80 101 88q13 10 27 23t24 29 10 31q0 14-7 22t-23 9q-18 0-37-14t-35-39l-71 51q19 29 42 50t51 31 59 11q37 0 64-14t42-38 16-54q0-37-18-65t-43-51-51-39l-58-48 2 20h175v-83H62Z"/><glyph unicode="³" horiz-adv-x="351" d="M173 412q-25 0-47 4t-42 11-41 19l41 71q18-11 35-16t36-5q24 0 39 11t16 32q0 17-14 27t-38 11q-13 0-27-3t-29-8l-22 60 129 95 12-21H68v83h208l9-78-113-85-8 7q9 5 19 8t18 3q48 0 77-28t30-76q0-36-18-63t-49-43-68-16Z"/><glyph unicode="´" horiz-adv-x="500" d="m174 590-43 66 167 137 71-98-195-105Z"/><glyph unicode="µ" horiz-adv-x="622" d="M76-160v689h138V222q0-37 10-62t31-38 49-13q24 0 43 8t34 24 23 36 9 43v309h138V0H420l-5 104 13-11q-17-35-41-57T333 2t-67-13q-15 0-29 4T213 6t-15 19l12 40 4-225H76Z"/><glyph unicode="¶" horiz-adv-x="747" d="M247 0v314l39-39h-53q-54 0-96 27t-67 74-25 108q0 65 28 114t78 75 119 27h386V0H509v660l39-64H326l68 56V0H247Z"/><glyph unicode="·" horiz-adv-x="247" d="M124 253q-39 0-60 22t-21 63q0 37 22 60t59 24q38 0 59-22t21-62q0-38-22-61t-58-24Z"/><glyph unicode="¸" horiz-adv-x="500" d="m154-245-9 68q22 0 45 6t40 16 17 22q0 13-13 20t-31 11-33 4l-16 12 70 110h75l-45-68q51-7 76-33t26-62q0-29-19-49t-49-34-65-18-69-5Z"/><glyph unicode="¹" horiz-adv-x="288" d="M119 430v286l14-34-58-36-42 78 111 66h76V430H119Z"/><glyph unicode="º" horiz-adv-x="385" d="M192 392q-48 0-84 21t-58 57-22 82q0 46 21 83t58 58 85 21q47 0 84-21t59-59 22-82q0-46-21-82t-59-57-85-21Zm-1 81q18 0 31 10t21 28 8 42q0 25-7 42t-20 28-33 10q-18 0-31-10t-20-29-8-41q0-24 7-42t21-28 31-10Z"/><glyph unicode="»" horiz-adv-x="541" d="m360 36-82 57 121 182-1-27-121 182 83 57 170-219v-10L360 36Zm-239 0L39 93l121 182-1-27L38 430l83 57 170-219v-10L121 36Z"/><glyph unicode="¼" horiz-adv-x="812" d="M127 360v286l14-34-58-36-42 78 111 66h76V360H127ZM95 0l467 700h131L225 0H95Zm604 156h75V73h-75v83Zm-178-34-16 34h144l-28-29v156l29-11-129-150ZM715-1H609v103l26-29H464l-19 77 177 215h93V-1Z"/><glyph unicode="½" horiz-adv-x="813" d="M127 360v286l14-34-58-36-42 78 111 66h76V360H127ZM97 0l467 700h131L227 0H97Zm423 0-12 80 101 88q13 10 27 23t24 29 10 31q0 14-7 22t-23 9q-18 0-37-14t-35-39l-71 51q19 29 42 50t51 31 59 11q37 0 64-14t42-38 16-54q0-37-18-65t-43-51-51-39l-58-48 2 20h175V0H520Z"/><glyph unicode="¾" horiz-adv-x="831" d="M152 342q-25 0-47 4t-42 11-41 19l41 71q18-11 35-16t36-5q24 0 39 11t16 32q0 17-14 27t-38 11q-13 0-27-3t-29-8l-22 60 129 95 12-21H47v83h208l9-78-113-85-8 7q9 5 19 8t18 3q48 0 77-28t30-76q0-36-18-63t-49-43-68-16ZM122 0l467 700h131L252 0H122Zm596 156h75V73h-75v83Zm-178-34-16 34h144l-28-29v156l29-11-129-150ZM734-1H628v103l26-29H483l-19 77 177 215h93V-1Z"/><glyph unicode="¿" horiz-adv-x="528" d="m316 304 31-135q-33-8-60-18t-50-23-37-27-24-33-9-40q0-22 12-39t32-27 47-10q35 0 69 24t62 77l99-89q-45-68-106-105t-129-38q-65 0-117 26T54-80 23 23q0 36 15 70t41 65 63 54 79 37l12 55h83Zm36 156q0-37-22-60t-59-24q-38 0-59 22t-21 62q0 38 22 61t58 24q39 0 60-22t21-63Z"/><glyph unicode="À" horiz-adv-x="696" d="m7 0 275 700h134L689 0H535L394 377q-6 16-14 41t-18 53-17 53-12 43h27q-6-22-13-46t-16-50-17-50-17-47L156 0H7Zm128 147 49 120h321l50-120H135Zm304 603-219 77 53 109 201-115-35-71Z"/><glyph unicode="Á" horiz-adv-x="696" d="m7 0 275 700h134L689 0H535L394 377q-6 16-14 41t-18 53-17 53-12 43h27q-6-22-13-46t-16-50-17-50-17-47L156 0H7Zm128 147 49 120h321l50-120H135Zm131 603-34 71 200 115 52-109-218-77Z"/><glyph unicode="Â" horiz-adv-x="696" d="m7 0 275 700h134L689 0H535L394 377q-6 16-14 41t-18 53-17 53-12 43h27q-6-22-13-46t-16-50-17-50-17-47L156 0H7Zm128 147 49 120h321l50-120H135Zm83 607-45 50 132 105h84l133-105-46-50-143 70h29l-144-70Z"/><glyph unicode="Ã" horiz-adv-x="696" d="m7 0 275 700h134L689 0H535L394 377q-6 16-14 41t-18 53-17 53-12 43h27q-6-22-13-46t-16-50-17-50-17-47L156 0H7Zm128 147 49 120h321l50-120H135Zm289 621q-21 0-42 6t-44 17q-18 7-30 11t-23 5q-13 0-21-10t-9-29h-93q0 63 36 98t88 35q18 0 36-5t43-18q16-7 27-11t21-4q14 0 21 10t7 28h92q0-36-13-66t-38-49-58-18Z"/><glyph unicode="Ä" horiz-adv-x="696" d="m7 0 275 700h134L689 0H535L394 377q-6 16-14 41t-18 53-17 53-12 43h27q-6-22-13-46t-16-50-17-50-17-47L156 0H7Zm128 147 49 120h321l50-120H135Zm329 608q-40 0-60 21t-21 58q0 33 21 56t60 23q40 0 60-21t21-58q0-32-21-55t-60-24Zm-231 0q-41 0-61 21t-21 58q0 33 21 56t61 23q40 0 60-21t21-58q0-32-21-55t-60-24Z"/><glyph unicode="Å" horiz-adv-x="696" d="m7 0 275 700h134L689 0H535L394 377q-6 16-14 41t-18 53-17 53-12 43h27q-6-22-13-46t-16-50-17-50-17-47L156 0H7Zm128 147 49 120h321l50-120H135Zm212 528q-32 0-60 16t-47 43-18 58q0 34 17 61t46 44 62 16q34 0 62-16t46-43 18-62q0-31-17-57t-46-43-63-17Zm0 75q19 0 32 12t13 30q0 20-13 31t-32 12q-17 0-30-12t-13-31q0-18 13-30t30-12Z"/><glyph unicode="Æ" horiz-adv-x="1041" d="m-5 0 488 700h494V575H649V415h283V294H649V125h328V0H507v146H240l82 120h185v292l25-8L156 0H-5Z"/><glyph unicode="Ç" horiz-adv-x="689" d="M398-10q-77 0-141 26T145 91 71 206 45 352q0 77 27 142t76 114 115 76 143 27q50 0 98-13t89-40 70-62l-94-104q-23 24-49 41t-54 27-61 10q-43 0-80-16t-66-44-44-69-17-90q0-50 16-90t45-69 69-44 90-16q32 0 62 9t55 25 46 37l74-117q-25-27-65-49T499 3 398-10ZM293-245l-8 68q21 0 45 6t40 16 17 22q0 13-13 20t-31 11-34 4l-16 12 70 110h75l-44-68q51-7 76-33t25-62q0-29-18-49t-49-34-65-18-70-5Z"/><glyph unicode="È" horiz-adv-x="635" d="M91 0v700h473V568H238V132h333V0H91Zm70 293v128h355V293H161Zm267 457-219 77 53 109 201-115-35-71Z"/><glyph unicode="É" horiz-adv-x="635" d="M91 0v700h473V568H238V132h333V0H91Zm70 293v128h355V293H161Zm95 457-34 71 200 115 52-109-218-77Z"/><glyph unicode="Ê" horiz-adv-x="635" d="M91 0v700h473V568H238V132h333V0H91Zm70 293v128h355V293H161Zm47 461-45 50 132 105h84l133-105-46-50-143 70h29l-144-70Z"/><glyph unicode="Ë" horiz-adv-x="635" d="M91 0v700h473V568H238V132h333V0H91Zm70 293v128h355V293H161Zm292 462q-40 0-60 21t-21 58q0 33 21 56t60 23q40 0 60-21t21-58q0-32-21-55t-60-24Zm-231 0q-41 0-61 21t-21 58q0 33 21 56t61 23q40 0 60-21t21-58q0-32-21-55t-60-24Z"/><glyph unicode="Ì" horiz-adv-x="530" d="M73 0v129h117v442H73v129h384V571H340V129h117V0H73Zm283 750-219 77 53 109 201-115-35-71Z"/><glyph unicode="Í" horiz-adv-x="530" d="M73 0v129h117v442H73v129h384V571H340V129h117V0H73Zm111 750-34 71 200 115 52-109-218-77Z"/><glyph unicode="Î" horiz-adv-x="530" d="M73 0v129h117v442H73v129h384V571H340V129h117V0H73Zm62 754-45 50 132 105h84l133-105-46-50-143 70h29l-144-70Z"/><glyph unicode="Ï" horiz-adv-x="530" d="M73 0v129h117v442H73v129h384V571H340V129h117V0H73Zm308 755q-40 0-60 21t-21 58q0 33 21 56t60 23q40 0 60-21t21-58q0-32-21-55t-60-24Zm-231 0q-41 0-61 21t-21 58q0 33 21 56t61 23q40 0 60-21t21-58q0-32-21-55t-60-24Z"/><glyph unicode="Ð" horiz-adv-x="764" d="M40 295v110h307V295H40ZM91 0v700h287q77 0 139-25t108-72 70-111 24-142q0-77-24-141T626 98 518 26 378 0H91Zm150 109-16 26h148q45 0 81 15t61 43 39 68 13 89q0 49-13 88t-38 68-62 43-81 16H222l19 24V109Z"/><glyph unicode="Ñ" horiz-adv-x="802" d="M91 0v700h134l387-523h-28q-4 31-7 60t-5 60-4 63-3 69-1 80v191h147V0H575L180 528l38-1q5-52 8-88t6-64 4-47 1-38 1-38V0H91Zm387 768q-21 0-42 6t-44 17q-18 7-30 11t-23 5q-13 0-21-10t-9-29h-93q0 63 36 98t88 35q18 0 36-5t43-18q16-7 27-11t21-4q14 0 21 10t7 28h92q0-36-13-66t-38-49-58-18Z"/><glyph unicode="Ò" horiz-adv-x="802" d="M402-10q-78 0-143 27T146 92 71 207 45 352q0 79 26 145t74 114 114 76 142 27q78 0 142-27t113-76 75-115 26-144q0-78-26-144T657 93 544 17 402-10Zm-1 142q45 0 82 16t64 46 42 70 16 88q0 48-15 88t-43 69-64 46-82 17q-44 0-81-16t-65-46-42-70-15-88q0-48 14-88t43-69 65-46 81-17Zm91 618-219 77 53 109 201-115-35-71Z"/><glyph unicode="Ó" horiz-adv-x="802" d="M402-10q-78 0-143 27T146 92 71 207 45 352q0 79 26 145t74 114 114 76 142 27q78 0 142-27t113-76 75-115 26-144q0-78-26-144T657 93 544 17 402-10Zm-1 142q45 0 82 16t64 46 42 70 16 88q0 48-15 88t-43 69-64 46-82 17q-44 0-81-16t-65-46-42-70-15-88q0-48 14-88t43-69 65-46 81-17Zm-81 618-34 71 200 115 52-109-218-77Z"/><glyph unicode="Ô" horiz-adv-x="802" d="M402-10q-78 0-143 27T146 92 71 207 45 352q0 79 26 145t74 114 114 76 142 27q78 0 142-27t113-76 75-115 26-144q0-78-26-144T657 93 544 17 402-10Zm-1 142q45 0 82 16t64 46 42 70 16 88q0 48-15 88t-43 69-64 46-82 17q-44 0-81-16t-65-46-42-70-15-88q0-48 14-88t43-69 65-46 81-17ZM272 754l-45 50 132 105h84l133-105-46-50-143 70h29l-144-70Z"/><glyph unicode="Õ" horiz-adv-x="802" d="M402-10q-78 0-143 27T146 92 71 207 45 352q0 79 26 145t74 114 114 76 142 27q78 0 142-27t113-76 75-115 26-144q0-78-26-144T657 93 544 17 402-10Zm-1 142q45 0 82 16t64 46 42 70 16 88q0 48-15 88t-43 69-64 46-82 17q-44 0-81-16t-65-46-42-70-15-88q0-48 14-88t43-69 65-46 81-17Zm76 636q-21 0-42 6t-44 17q-18 7-30 11t-23 5q-13 0-21-10t-9-29h-93q0 63 36 98t88 35q18 0 36-5t43-18q16-7 27-11t21-4q14 0 21 10t7 28h92q0-36-13-66t-38-49-58-18Z"/><glyph unicode="Ö" horiz-adv-x="802" d="M402-10q-78 0-143 27T146 92 71 207 45 352q0 79 26 145t74 114 114 76 142 27q78 0 142-27t113-76 75-115 26-144q0-78-26-144T657 93 544 17 402-10Zm-1 142q45 0 82 16t64 46 42 70 16 88q0 48-15 88t-43 69-64 46-82 17q-44 0-81-16t-65-46-42-70-15-88q0-48 14-88t43-69 65-46 81-17Zm116 623q-40 0-60 21t-21 58q0 33 21 56t60 23q40 0 60-21t21-58q0-32-21-55t-60-24Zm-231 0q-41 0-61 21t-21 58q0 33 21 56t61 23q40 0 60-21t21-58q0-32-21-55t-60-24Z"/><glyph unicode="×" horiz-adv-x="517" d="M394 61 37 417l86 83 357-356-86-83Zm-272-4-83 86 356 357 84-85L122 57Z"/><glyph unicode="Ø" horiz-adv-x="795" d="M134-33 71 20l589 721 68-47L134-33Zm267 23q-78 0-143 27T145 92 71 207 44 352q0 79 26 145t75 114 113 76 143 27q77 0 142-27t113-76 74-115 27-144q0-78-26-144T656 93 543 17 401-10Zm0 142q44 0 81 16t64 46 43 70 15 88q0 48-15 88t-42 69-65 46-81 17q-45 0-82-16t-64-46-43-70-15-88q0-48 15-88t42-69 65-46 82-17Z"/><glyph unicode="Ù" horiz-adv-x="757" d="M379-6q-85 0-151 35t-105 98-38 142v432h151V278q0-42 19-75t51-54 73-20q41 0 74 20t53 53 20 76v423h146V269q0-79-37-141T530 30 379-6Zm91 756-219 77 53 109 201-115-35-71Z"/><glyph unicode="Ú" horiz-adv-x="757" d="M379-6q-85 0-151 35t-105 98-38 142v432h151V278q0-42 19-75t51-54 73-20q41 0 74 20t53 53 20 76v423h146V269q0-79-37-141T530 30 379-6Zm-82 756-34 71 200 115 52-109-218-77Z"/><glyph unicode="Û" horiz-adv-x="757" d="M379-6q-85 0-151 35t-105 98-38 142v432h151V278q0-42 19-75t51-54 73-20q41 0 74 20t53 53 20 76v423h146V269q0-79-37-141T530 30 379-6ZM249 754l-45 50 132 105h84l133-105-46-50-143 70h29l-144-70Z"/><glyph unicode="Ü" horiz-adv-x="757" d="M379-6q-85 0-151 35t-105 98-38 142v432h151V278q0-42 19-75t51-54 73-20q41 0 74 20t53 53 20 76v423h146V269q0-79-37-141T530 30 379-6Zm115 761q-40 0-60 21t-21 58q0 33 21 56t60 23q40 0 60-21t21-58q0-32-21-55t-60-24Zm-231 0q-41 0-61 21t-21 58q0 33 21 56t61 23q40 0 60-21t21-58q0-32-21-55t-60-24Z"/><glyph unicode="Ý" horiz-adv-x="679" d="M274 0v349l7-49L-2 700h173l216-310-68 3 195 307h167L410 289l15 68V0H274Zm-16 750-34 71 200 115 52-109-218-77Z"/><glyph unicode="Þ" horiz-adv-x="653" d="M91 0v700h150V584h147q63 0 113-29t79-81 30-115q0-65-29-117t-80-83-113-31H241V0H91Zm150 263h130q24 0 43 12t30 34 12 48q0 27-11 47t-31 32-43 12H241V263Z"/><glyph unicode="ß" horiz-adv-x="666" d="M425-10q-44 0-77 14t-59 42l59 92q21-17 38-24t36-7q36 0 57 24t22 67q0 31-11 56t-32 46-50 34-65 26v79q24 10 41 21t27 23 16 26 6 29q0 33-23 51t-65 18q-45 0-69-29t-25-79V0H112v499q0 70 29 123t82 82 128 30q62 0 110-20t76-58 28-88q0-30-13-60t-38-55-58-40l-2 26q41-13 74-35t58-52 38-68 13-81q0-61-27-109t-75-76-110-28ZM33 377v123h145V377H33Z"/><glyph unicode="à" horiz-adv-x="651" d="M269-10q-66 0-119 36t-84 98-31 142q0 80 31 142t86 97 123 35q39 0 71-11t57-32 42-46 24-56l-30 5v129h141V0H437v127l32 3q-8-28-26-53t-44-44-60-31-70-12Zm39 123q40 0 70 19t46 53 17 81q0 45-16 79t-47 53-70 20q-39 0-68-19t-47-54-17-79q0-46 17-80t46-54 69-19Zm74 482L187 700l71 97 167-136-43-66Z"/><glyph unicode="á" horiz-adv-x="651" d="M269-10q-66 0-119 36t-84 98-31 142q0 80 31 142t86 97 123 35q39 0 71-11t57-32 42-46 24-56l-30 5v129h141V0H437v127l32 3q-8-28-26-53t-44-44-60-31-70-12Zm39 123q40 0 70 19t46 53 17 81q0 45-16 79t-47 53-70 20q-39 0-68-19t-47-54-17-79q0-46 17-80t46-54 69-19Zm-58 481-43 66 167 137 71-98-195-105Z"/><glyph unicode="â" horiz-adv-x="651" d="M269-10q-66 0-119 36t-84 98-31 142q0 80 31 142t86 97 123 35q39 0 71-11t57-32 42-46 24-56l-30 5v129h141V0H437v127l32 3q-8-28-26-53t-44-44-60-31-70-12Zm39 123q40 0 70 19t46 53 17 81q0 45-16 79t-47 53-70 20q-39 0-68-19t-47-54-17-79q0-46 17-80t46-54 69-19ZM196 603l-51 44 135 124h92l135-124-51-44-145 82h30l-145-82Z"/><glyph unicode="ã" horiz-adv-x="651" d="M269-10q-66 0-119 36t-84 98-31 142q0 80 31 142t86 97 123 35q39 0 71-11t57-32 42-46 24-56l-30 5v129h141V0H437v127l32 3q-8-28-26-53t-44-44-60-31-70-12Zm39 123q40 0 70 19t46 53 17 81q0 45-16 79t-47 53-70 20q-39 0-68-19t-47-54-17-79q0-46 17-80t46-54 69-19Zm80 501q-18 0-34 7t-37 21q-18 15-28 21t-18 6q-14 0-24-12t-14-39l-83 11q2 54 32 93t82 39q18 0 34-6t36-22q15-12 26-19t21-8q14 0 24 13t13 38l82-12q0-34-14-64t-39-49-59-18Z"/><glyph unicode="ä" horiz-adv-x="651" d="M269-10q-66 0-119 36t-84 98-31 142q0 80 31 142t86 97 123 35q39 0 71-11t57-32 42-46 24-56l-30 5v129h141V0H437v127l32 3q-8-28-26-53t-44-44-60-31-70-12Zm39 123q40 0 70 19t46 53 17 81q0 45-16 79t-47 53-70 20q-39 0-68-19t-47-54-17-79q0-46 17-80t46-54 69-19Zm132 522q-39 0-60 20t-21 59q0 35 22 56t59 22q39 0 60-20t21-58q0-35-22-57t-59-22Zm-228 0q-38 0-59 20t-22 59q0 35 22 56t59 22q39 0 60-20t21-58q0-35-21-57t-60-22Z"/><glyph unicode="å" horiz-adv-x="651" d="M269-10q-66 0-119 36t-84 98-31 142q0 80 31 142t86 97 123 35q39 0 71-11t57-32 42-46 24-56l-30 5v129h141V0H437v127l32 3q-8-28-26-53t-44-44-60-31-70-12Zm39 123q40 0 70 19t46 53 17 81q0 45-16 79t-47 53-70 20q-39 0-68-19t-47-54-17-79q0-46 17-80t46-54 69-19Zm17 491q-30 0-57 15t-43 41-17 57q0 31 16 56t43 41 58 16q32 0 58-15t43-41 16-57q0-31-16-56t-42-41-59-16Zm0 74q17 0 29 11t12 28q0 17-12 28t-29 12q-17 0-29-11t-12-29q0-17 12-28t29-11Z"/><glyph unicode="æ" horiz-adv-x="900" d="M215-10q-52 0-92 20T59 65t-24 84q0 41 15 72t45 52 74 31 104 11h470l-12-13v21q-1 28-16 49t-39 34-53 12q-44 0-73-16t-45-50-16-80q0-47 21-82t61-55 90-20q37 0 66 10t64 39l63-97q-29-25-63-42T720-1t-74-9q-86 0-149 34t-98 96-35 141q0 61 19 112t54 88 82 58 102 21q72-1 127-35t87-93 31-136l-1-47H272q-24 0-42-4t-32-14-19-23-6-30q0-18 8-31t25-22 36-8q30 0 56 10t48 28 33 41l49-77q-21-33-55-57T299 4t-84-14Zm147 261v89q0 19-7 33t-20 25-31 15-39 5q-41 0-71-15t-57-51l-85 85q26 32 61 55t78 35 90 13q48 0 85-10t65-31 42-52 14-73V255l-125-4Z"/><glyph unicode="ç" horiz-adv-x="542" d="M301-10q-76 0-136 36t-94 98-35 141q0 79 34 141t95 98 136 36q71 0 130-26t92-72l-78-94q-14 19-35 34t-45 25-51 9q-41 0-72-19t-50-54-18-78q0-42 18-76t51-54 72-20q26 0 49 7t43 22 38 36l77-94q-33-43-93-69T301-10Zm-96-235-9 68q22 0 45 6t40 16 17 22q0 13-13 20t-31 11-33 4l-16 12 70 110h75l-45-68q51-7 76-33t26-62q0-29-19-49t-49-34-65-18-69-5Z"/><glyph unicode="è" horiz-adv-x="586" d="M322-10q-86 0-150 35T72 121 36 261q0 62 20 113t56 88 85 58 108 21q54 0 100-20t79-55 52-84 16-105l-1-44H126l-23 87h331l-16-18v22q-2 27-17 48t-40 34-54 13q-44 0-74-17t-47-50-16-80q0-48 20-83t58-54 89-20q35 0 64 11t62 38l68-95q-29-26-64-43T395-1t-73-9Zm39 605L166 700l71 97 167-136-43-66Z"/><glyph unicode="é" horiz-adv-x="586" d="M322-10q-86 0-150 35T72 121 36 261q0 62 20 113t56 88 85 58 108 21q54 0 100-20t79-55 52-84 16-105l-1-44H126l-23 87h331l-16-18v22q-2 27-17 48t-40 34-54 13q-44 0-74-17t-47-50-16-80q0-48 20-83t58-54 89-20q35 0 64 11t62 38l68-95q-29-26-64-43T395-1t-73-9Zm-93 604-43 66 167 137 71-98-195-105Z"/><glyph unicode="ê" horiz-adv-x="586" d="M322-10q-86 0-150 35T72 121 36 261q0 62 20 113t56 88 85 58 108 21q54 0 100-20t79-55 52-84 16-105l-1-44H126l-23 87h331l-16-18v22q-2 27-17 48t-40 34-54 13q-44 0-74-17t-47-50-16-80q0-48 20-83t58-54 89-20q35 0 64 11t62 38l68-95q-29-26-64-43T395-1t-73-9ZM175 603l-51 44 135 124h92l135-124-51-44-145 82h30l-145-82Z"/><glyph unicode="ë" horiz-adv-x="586" d="M322-10q-86 0-150 35T72 121 36 261q0 62 20 113t56 88 85 58 108 21q54 0 100-20t79-55 52-84 16-105l-1-44H126l-23 87h331l-16-18v22q-2 27-17 48t-40 34-54 13q-44 0-74-17t-47-50-16-80q0-48 20-83t58-54 89-20q35 0 64 11t62 38l68-95q-29-26-64-43T395-1t-73-9Zm97 645q-39 0-60 20t-21 59q0 35 22 56t59 22q39 0 60-20t21-58q0-35-22-57t-59-22Zm-228 0q-38 0-59 20t-22 59q0 35 22 56t59 22q39 0 60-20t21-58q0-35-21-57t-60-22Z"/><glyph unicode="ì" horiz-adv-x="274" d="M66 0v529h142V0H66Zm126 595L-3 700l71 97 167-136-43-66Z"/><glyph unicode="í" horiz-adv-x="274" d="M66 0v529h142V0H66Zm-6 594-43 66 167 137 71-98L60 594Z"/><glyph unicode="î" horiz-adv-x="274" d="M66 0v529h142V0H66ZM6 603l-51 44L90 771h92l135-124-51-44-145 82h30L6 603Z"/><glyph unicode="ï" horiz-adv-x="274" d="M66 0v529h142V0H66Zm184 635q-39 0-60 20t-21 59q0 35 22 56t59 22q39 0 60-20t21-58q0-35-22-57t-59-22Zm-228 0q-38 0-59 20t-22 59q0 35 22 56t59 22q39 0 60-20t21-58q0-35-21-57t-60-22Z"/><glyph unicode="ð" horiz-adv-x="590" d="M294-7q-74 0-132 35t-92 96-34 134q0 53 20 100t54 84 79 57 94 21q50 0 89-21t67-59 37-92l-81 31q-2 44-11 80t-27 66-43 52-62 41-83 32l46 94q62-15 114-43t94-70 71-93 44-116 15-136q0-87-32-153T430 30 294-7Zm1 123q35 0 64 19t45 53 17 74q0 40-16 72t-46 51-64 20q-36 0-64-19t-46-51-17-73q0-41 17-74t45-52 65-20ZM152 521l-13 65 155 39 56 25 146 33 18-66-113-26-42-22-207-48Z"/><glyph unicode="ñ" horiz-adv-x="622" d="M71 0v529h136l4-108-28-12q11 36 39 65t69 48 84 18q60 0 100-24t61-72 21-120V0H415v313q0 36-10 60t-30 35-51 10q-24 0-44-7t-35-22-23-32-9-39V0H71Zm333 614q-18 0-34 7t-37 21q-18 15-28 21t-18 6q-14 0-24-12t-14-39l-83 11q2 54 32 93t82 39q18 0 34-6t36-22q15-12 26-19t21-8q14 0 24 13t13 38l82-12q0-34-14-64t-39-49-59-18Z"/><glyph unicode="ò" horiz-adv-x="633" d="M317-10q-81 0-144 35T73 123 36 265q0 80 36 142t100 97 145 36q80 0 143-35t100-98 36-142q0-80-36-142t-99-97-144-36Zm0 124q39 0 70 19t48 54 17 78q1 44-16 78t-49 54-70 20q-40 0-71-20t-49-54-17-78q-1-43 17-77t49-54 71-20Zm56 481L178 700l71 97 167-136-43-66Z"/><glyph unicode="ó" horiz-adv-x="633" d="M317-10q-81 0-144 35T73 123 36 265q0 80 36 142t100 97 145 36q80 0 143-35t100-98 36-142q0-80-36-142t-99-97-144-36Zm0 124q39 0 70 19t48 54 17 78q1 44-16 78t-49 54-70 20q-40 0-71-20t-49-54-17-78q-1-43 17-77t49-54 71-20Zm-76 480-43 66 167 137 71-98-195-105Z"/><glyph unicode="ô" horiz-adv-x="633" d="M317-10q-81 0-144 35T73 123 36 265q0 80 36 142t100 97 145 36q80 0 143-35t100-98 36-142q0-80-36-142t-99-97-144-36Zm0 124q39 0 70 19t48 54 17 78q1 44-16 78t-49 54-70 20q-40 0-71-20t-49-54-17-78q-1-43 17-77t49-54 71-20ZM187 603l-51 44 135 124h92l135-124-51-44-145 82h30l-145-82Z"/><glyph unicode="õ" horiz-adv-x="633" d="M317-10q-81 0-144 35T73 123 36 265q0 80 36 142t100 97 145 36q80 0 143-35t100-98 36-142q0-80-36-142t-99-97-144-36Zm0 124q39 0 70 19t48 54 17 78q1 44-16 78t-49 54-70 20q-40 0-71-20t-49-54-17-78q-1-43 17-77t49-54 71-20Zm62 500q-18 0-34 7t-37 21q-18 15-28 21t-18 6q-14 0-24-12t-14-39l-83 11q2 54 32 93t82 39q18 0 34-6t36-22q15-12 26-19t21-8q14 0 24 13t13 38l82-12q0-34-14-64t-39-49-59-18Z"/><glyph unicode="ö" horiz-adv-x="633" d="M317-10q-81 0-144 35T73 123 36 265q0 80 36 142t100 97 145 36q80 0 143-35t100-98 36-142q0-80-36-142t-99-97-144-36Zm0 124q39 0 70 19t48 54 17 78q1 44-16 78t-49 54-70 20q-40 0-71-20t-49-54-17-78q-1-43 17-77t49-54 71-20Zm113 521q-39 0-60 20t-21 59q0 35 22 56t59 22q39 0 60-20t21-58q0-35-22-57t-59-22Zm-228 0q-38 0-59 20t-22 59q0 35 22 56t59 22q39 0 60-20t21-58q0-35-21-57t-60-22Z"/><glyph unicode="÷" horiz-adv-x="597" d="M45 204v118h507V204H45ZM295-11q-24 0-42 10t-29 27-11 42q0 22 10 40t29 28 43 10q25 0 43-9t29-28 10-41q0-23-10-40T339 0t-44-11Zm0 389q-24 0-42 10t-29 27-11 41q0 23 10 40t29 28 43 11q25 0 43-9t29-28 10-42q0-21-10-39t-29-28-43-11Z"/><glyph unicode="ø" horiz-adv-x="633" d="M116-35 50 13l459 542 67-49L116-35Zm201 25q-81 0-144 35T73 123 36 265q0 80 36 142t100 97 145 36q80 0 143-35t100-98 36-142q0-80-36-142t-99-97-144-36Zm0 124q39 0 70 19t48 54 17 78q1 44-16 78t-49 54-70 20q-40 0-71-20t-49-54-17-78q-1-43 17-77t49-54 71-20Z"/><glyph unicode="ù" horiz-adv-x="630" d="M253-10q-58 0-99 25T90 88 67 203v326h142V226q0-36 12-62t34-41 54-14q23 0 42 7t34 22 23 33 8 41v317h142V0H423l-5 109 26 12q-12-37-40-67T337 7t-84-17Zm118 605L176 700l71 97 167-136-43-66Z"/><glyph unicode="ú" horiz-adv-x="630" d="M253-10q-58 0-99 25T90 88 67 203v326h142V226q0-36 12-62t34-41 54-14q23 0 42 7t34 22 23 33 8 41v317h142V0H423l-5 109 26 12q-12-37-40-67T337 7t-84-17Zm-14 604-43 66 167 137 71-98-195-105Z"/><glyph unicode="û" horiz-adv-x="630" d="M253-10q-58 0-99 25T90 88 67 203v326h142V226q0-36 12-62t34-41 54-14q23 0 42 7t34 22 23 33 8 41v317h142V0H423l-5 109 26 12q-12-37-40-67T337 7t-84-17Zm-68 613-51 44 135 124h92l135-124-51-44-145 82h30l-145-82Z"/><glyph unicode="ü" horiz-adv-x="630" d="M253-10q-58 0-99 25T90 88 67 203v326h142V226q0-36 12-62t34-41 54-14q23 0 42 7t34 22 23 33 8 41v317h142V0H423l-5 109 26 12q-12-37-40-67T337 7t-84-17Zm176 645q-39 0-60 20t-21 59q0 35 22 56t59 22q39 0 60-20t21-58q0-35-22-57t-59-22Zm-228 0q-38 0-59 20t-22 59q0 35 22 56t59 22q39 0 60-20t21-58q0-35-21-57t-60-22Z"/><glyph unicode="ý" horiz-adv-x="607" d="M145-230 261 42l2-82L5 529h161l129-305q8-17 15-39t13-43l-24-11q7 17 14 39t16 47l111 312h162L380 0l-91-230H145Zm83 824-43 66 167 137 71-98-195-105Z"/><glyph unicode="þ" horiz-adv-x="650" d="M71-220v960h143V410l-28 9q7 32 34 59t69 44 86 17q52 0 95-20t76-57 50-87 18-110q0-79-31-141t-85-97T375-9q-46 0-87 17t-70 47-37 62l33 14v-351H71Zm272 333q39 0 69 19t47 53 17 80q0 45-17 79t-46 53-70 19q-40 0-70-18t-47-53-17-80q0-45 17-79t47-54 70-19Z"/><glyph unicode="ÿ" horiz-adv-x="607" d="M145-230 261 42l2-82L5 529h161l129-305q8-17 15-39t13-43l-24-11q7 17 14 39t16 47l111 312h162L380 0l-91-230H145Zm273 865q-39 0-60 20t-21 59q0 35 22 56t59 22q39 0 60-20t21-58q0-35-22-57t-59-22Zm-228 0q-38 0-59 20t-22 59q0 35 22 56t59 22q39 0 60-20t21-58q0-35-21-57t-60-22Z"/><glyph unicode="–" horiz-adv-x="569" d="M56 225v125h457V225H56Z"/><glyph unicode="—" horiz-adv-x="912" d="M56 225v126h801V225H56Z"/><glyph unicode="‘" horiz-adv-x="265" d="M144 447q-29 0-52 15t-38 43-14 64q0 30 12 58t33 54 50 44 62 29l44-53q-41-18-66-43t-26-43q0-12 8-22t22-19q23-18 31-32t9-32q0-29-21-46t-54-17Z"/><glyph unicode="’" horiz-adv-x="265" d="m67 444-43 53q41 17 66 42t26 44q0 12-8 22t-22 19q-23 18-31 32t-9 32q0 29 20 46t54 17q30 0 53-15t38-43 14-64q0-30-12-58t-33-54-50-44-63-29Z"/><glyph unicode="‚" horiz-adv-x="281" d="m86-193-44 53q39 19 62 46t24 47q0 9-5 19T101-3Q79 14 72 29t-8 34q0 29 21 46t54 17q27 0 49-15t36-43 13-64q0-32-11-62t-31-57-48-47-61-31Z"/><glyph unicode="“" horiz-adv-x="487" d="M144 698q-29 0-52 15t-38 43-14 64q0 30 12 58t33 54 50 44 62 29l44-53q-41-18-66-43t-26-43q0-12 8-22t22-19q23-18 31-32t9-32q0-29-21-46t-54-17Zm223-256q-29 0-52 15t-38 43-14 64q0 30 12 58t33 54 50 44 62 29l44-53q-41-18-66-43t-26-43q0-12 8-22t22-19q23-18 31-32t9-32q0-29-21-46t-54-17Z"/><glyph unicode="”" horiz-adv-x="486" d="m67 444-43 53q41 17 66 42t26 44q0 12-8 22t-22 19q-23 18-31 32t-9 32q0 29 20 46t54 17q30 0 53-15t38-43 14-64q0-30-12-58t-33-54-50-44-63-29Zm221 0-43 53q41 17 66 42t26 44q0 12-8 22t-22 19q-23 18-31 32t-9 32q0 29 20 46t54 17q30 0 53-15t38-43 14-64q0-30-12-58t-33-54-50-44-63-29Z"/><glyph unicode="„" horiz-adv-x="506" d="m86-193-44 53q39 19 62 46t24 47q0 9-5 19T101-3Q79 14 72 29t-8 34q0 29 21 46t54 17q27 0 49-15t36-43 13-64q0-32-11-62t-31-57-48-47-61-31Zm225 0-44 53q39 19 62 46t24 47q0 9-5 19T326-3q-22 17-29 32t-8 34q0 29 21 46t54 17q27 0 49-15t36-43 13-64q0-32-11-62t-31-57-48-47-61-31Z"/><glyph unicode="•" horiz-adv-x="346" d="M173 216q-37 0-68 18t-49 49-19 68q0 38 18 69t49 49 69 19q38 0 69-18t49-50 19-69q0-37-18-68t-50-49-69-18Z"/><glyph unicode="‹" horiz-adv-x="301" d="M181 34 11 253v10l169 222 83-57-122-182 1 27L263 91l-82-57Z"/><glyph unicode="›" horiz-adv-x="303" d="M121 36 39 93l121 182-1-27L38 430l83 57 170-219v-10L121 36Z"/></font>
</defs>
</svg>
