<svg xmlns="http://www.w3.org/2000/svg"><defs><font id="Lexend" horiz-adv-x="588"><font-face font-family="Lexend" ascent="1000" descent="-250" alphabetic="0"/><glyph horiz-adv-x="280"/><glyph unicode="!" horiz-adv-x="236" d="M87 241q-7 63-12 130t-9 134-3 125v70h108v-70q0-62-3-130t-8-134-13-125H87Zm27-252Q81-11 63 8T45 64q0 33 19 54t50 21q33 0 51-19t18-56q0-33-19-54t-50-21Z"/><glyph unicode="&quot;" horiz-adv-x="412" d="m245 442 24 258h116l-80-258h-60Zm-208 0 23 258h118L97 442H37Z"/><glyph unicode="#" horiz-adv-x="678" d="m367 0 120 700h90L457 0h-90ZM31 173v83h579v-83H31ZM101 0l120 700h90L191 0h-90ZM69 453v83h578v-83H69Z"/><glyph unicode="$" horiz-adv-x="624" d="M314-10q-86 0-151 34T50 126l74 85q49-70 94-97t107-27q38 0 69 12t49 33 18 48q0 18-6 34t-18 29-32 24-46 19-60 15q-72 14-119 42t-71 71-24 100q0 42 18 78t51 62 77 41 95 15q81 0 141-31t96-92l-76-75q-30 49-71 75t-93 26q-39 0-68-12t-45-33-17-51q0-21 8-38t24-31 45-24 67-19q55-12 98-30t73-44 45-56 16-67q0-67-31-116t-88-75-136-27Zm-60-81v454l97-33V-91h-97Zm137 421-97 33v419h97V330Z"/><glyph unicode="%" horiz-adv-x="839" d="m129 0 463 700h103L227 0h-98Zm64 329q-45 0-79 24t-54 67-20 98q0 55 19 98t55 68 80 25q45 0 79-24t54-68 20-99q0-53-20-96t-55-68-79-25Zm1 75q21 0 36 14t24 39 9 61q0 35-8 61t-24 40-38 14q-21 0-37-14t-24-40-9-61q0-35 8-60t25-40 38-14ZM636-9q-45 0-79 25t-55 67-20 97q0 55 19 98t55 68 80 25q45 0 79-24t54-68 20-99q0-53-20-96t-54-68-79-25Zm0 74q21 0 37 14t24 40 9 61q0 35-8 60t-25 40-37 15q-22 0-38-14t-24-40-9-61q0-35 8-60t25-40 38-15Z"/><glyph unicode="&amp;" horiz-adv-x="739" d="m575 0-91 97-16 18-173 193q-25 28-48 57t-40 59-28 56-11 52q0 51 26 91t73 64 108 23q45 0 84-16t67-46 42-69l-78-50q-19 46-46 67t-69 21q-31 0-52-9t-32-28-11-45q0-22 12-48t32-54 39-50 35-40l139-155 29-32L709 0H575ZM306-10q-71 0-129 30t-92 81-35 111q0 79 43 137t128 89l64-77q-64-14-95-46t-31-88q0-42 20-74t57-50 90-18q45 0 82 17t68 50 49 77 29 100h92q-8-61-28-113t-51-94-70-71-88-45-103-16Z"/><glyph unicode="'" horiz-adv-x="205" d="m37 442 23 258h118L97 442H37Z"/><glyph unicode="(" horiz-adv-x="366" d="M290-186Q168-110 104 4T40 258q0 139 64 253t187 191l55-62q-102-71-155-169t-54-213q0-114 53-212t156-170l-56-62Z"/><glyph unicode=")" horiz-adv-x="366" d="m75-186-55 62Q122-53 175 45t54 213q0 114-53 212T20 640l56 62q122-76 186-190t64-254q0-139-64-253T75-186Z"/><glyph unicode="*" horiz-adv-x="387" d="m159 376 8 115h5L69 421l-37 65 112 54-2-5-112 54 38 64 104-70-5 2-8 115h75l-9-127-8 8 103 70 37-65-113-55v11l112-55-37-64-104 70 11-2 8-115h-75Z"/><glyph unicode="+" horiz-adv-x="591" d="M45 235v90h501v-90H45ZM242 42v483h105V42H242Z"/><glyph unicode="," horiz-adv-x="267" d="m88-179-38 46q35 20 57 46t22 45q0 10-5 19T103 4Q83 23 77 36t-6 28q0 24 17 38t44 15q25 0 45-14t32-40 12-59q0-30-10-58t-28-52-42-43-53-30Z"/><glyph unicode="-" horiz-adv-x="394" d="M53 235v102h288V235H53Z"/><glyph unicode="." horiz-adv-x="228" d="M114-11Q81-11 63 8T45 64q0 33 19 54t50 21q33 0 51-19t18-56q0-33-19-54t-50-21Z"/><glyph unicode="/" horiz-adv-x="557" d="m18-132 412 832h99L118-132H18Z"/><glyph unicode="0" horiz-adv-x="607" d="M303-10q-80 0-137 44T77 158 46 350q0 111 31 191t88 125 138 44q80 0 138-44t89-124 31-192q0-111-31-191T441 34 303-10Zm0 98q73 0 113 68t40 194q0 125-40 193t-113 69q-73 0-113-68t-40-194q0-125 40-193t113-69Z"/><glyph unicode="1" horiz-adv-x="500" d="M217 49v568l37-28-138-73-29 94 187 100h52V49H217ZM106 0v104h334V0H106Z"/><glyph unicode="2" horiz-adv-x="548" d="M93 0 60 82l214 241q17 18 35 41t36 49 27 49 11 47q0 32-12 54t-36 35-57 12q-29 0-57-17t-51-48-36-72l-83 52q17 58 51 99t83 64 106 22q59 0 105-24t72-68 26-101q0-23-5-47t-16-49-28-53-40-58-54-63L192 74l-20 30h344V0H93Z"/><glyph unicode="3" horiz-adv-x="529" d="M251-10q-74 0-128 34T20 138l84 53q25-37 49-60t51-35 55-11q35 0 65 17t48 49 18 70q0 39-14 66t-41 42-64 15q-17 0-35-3t-40-10-46-17l-30 79 216 238 21-31H59v100h401l20-40-229-254-25 26q8 4 26 7t31 4q44 0 82-16t67-46 45-69 17-85q0-68-32-121t-88-85-123-31Z"/><glyph unicode="4" horiz-adv-x="620" d="M352 0v564l25-6-230-281-4 12h435v-99H76l-46 90 343 420h83V0H352Z"/><glyph unicode="5" horiz-adv-x="568" d="M257-7q-69 0-125 31t-93 91l60 67q47-52 82-71t76-19q41 0 74 18t52 49 20 69q0 40-18 71t-50 50-70 19q-19 0-36-2t-41-12-63-28l-57 77 41 297h378V600H177l21 19-33-222-25 29q10 10 34 19t53 16 57 7q64 0 114-29t80-82 30-119q0-69-33-124t-90-88T257-7Z"/><glyph unicode="6" horiz-adv-x="557" d="M283 0q-52 0-96 18t-77 52-51 78-19 99q0 27 7 60t23 74 38 84 51 93l91 154h105l4-10-110-185q-30-51-53-97t-40-86-24-74l-24 103q19 31 41 54t47 40 54 24 58 8q58 0 106-31t78-84 30-114q0-75-30-133t-85-93T283 0Zm0 100q39 0 69 18t48 52 18 77q0 37-18 69t-48 53-67 20q-41 0-73-19t-50-51-18-71q0-42 18-75t49-53 72-20Z"/><glyph unicode="7" horiz-adv-x="542" d="m112 0 290 632 12-32H60v100h433l14-69L228 0H112Z"/><glyph unicode="8" horiz-adv-x="579" d="M289-3q-65 0-118 27T85 98 53 200q0 31 8 58t26 51 43 42 58 34l-6-21q-26 10-46 24t-36 34-22 41-8 46q0 53 29 96t79 69 111 26q61 0 110-26t79-69 30-96q0-24-7-46t-22-40-35-33-49-26l-3 17q30-12 54-31t43-43 27-51 10-56q0-57-32-103t-85-73T289-3Zm0 100q37 0 66 14t47 38 17 55q0 33-17 58t-46 41-67 15q-37 0-66-15t-46-40-17-59q0-30 17-54t46-38 66-15Zm0 317q32 0 57 12t40 32 15 48q0 27-14 48t-40 33-58 13q-32 0-57-12t-40-34-15-48q0-27 14-47t40-33 58-12Z"/><glyph unicode="9" horiz-adv-x="551" d="m228 0-4 10 208 442 3-83q-18-30-39-53t-47-39-53-25-55-9q-57 0-105 30t-77 80-29 109q0 71 32 127t87 90 125 33q50 0 94-18t77-50 52-75 19-91q0-25-5-53t-16-64-31-81-47-106L334 0H228Zm36 343q39 0 70 17t48 47 18 67q0 39-17 70t-47 50-70 18q-36 0-64-17t-44-48-17-72q0-35 16-65t45-48 62-19Z"/><glyph unicode=":" horiz-adv-x="228" d="M114-10Q81-10 63 9T45 65q0 33 19 54t50 21q33 0 51-19t18-56q0-33-19-54t-50-21Zm0 395q-33 0-51 19t-18 56q0 33 19 54t50 21q33 0 51-19t18-56q0-33-19-54t-50-21Z"/><glyph unicode=";" horiz-adv-x="262" d="m339-179-38 46q35 20 57 46t22 45q0 10-5 19T354 4q-20 19-26 32t-6 28q0 24 17 38t44 15q25 0 45-14t32-40 12-59q0-30-10-58t-28-52-42-43-53-30ZM132 385q-33 0-51 19t-18 56q0 33 19 54t50 21q33 0 51-19t18-56q0-33-19-54t-50-21Z"/><glyph unicode="&lt;" horiz-adv-x="524" d="M411 4 50 211v81l361 207 48-75-359-206v67L459 79 411 4Z"/><glyph unicode="=" horiz-adv-x="566" d="M50 331v90h466v-90H50Zm0-189v89h466v-89H50Z"/><glyph unicode="&gt;" horiz-adv-x="524" d="M113 4 65 79l359 206v-67L65 424l48 75 361-207v-81L113 4Z"/><glyph unicode="?" horiz-adv-x="511" d="m193 211-26 141q39 10 70 22t53 27 38 32 22 36 8 42q0 29-15 52t-43 36-61 13q-40 0-77-27t-65-78l-75 63q43 66 102 102t125 37q63 0 113-26t79-71 30-101q0-33-13-64t-39-60-58-50-74-36l-17-90h-77ZM158 64q0 33 19 54t50 21q33 0 51-19t18-56q0-33-19-54t-50-21q-33 0-51 19t-18 56Z"/><glyph unicode="@" horiz-adv-x="965" d="M414-162q-87 0-156 26T140-61 66 56 40 206q0 117 41 210t115 159 171 100 209 35q80 0 144-22t110-65 70-99 25-128q0-68-19-129t-55-109-81-75-101-28q-35 0-61 12t-42 35-15 53q0 15 3 32t6 35l14-20q-15-47-40-80t-60-50-74-17q-43 0-76 23t-53 64-19 95q0 47 17 95t49 88 76 65 97 25q31 0 55-15t40-42 19-63l-24-59 26 170h101l-51-308q-3-19 2-31t17-19 24-6q30 0 56 20t45 55 30 82 11 97q0 75-32 128t-92 82-146 29q-102 0-185-28t-141-83-90-133-32-177q0-69 19-122t57-92 92-57 125-20q47 0 81 6t65 20 69 34l37-67q-59-30-101-45t-78-22-76-6Zm9 302q34 0 65 21t54 55 28 70q3 18 5 31t2 25q0 26-10 44t-28 29-44 10q-39 0-71-28t-51-73-19-92q0-43 18-67t51-25Z"/><glyph unicode="A" horiz-adv-x="700" d="m25 0 271 700h110L675 0H560L400 422q-3 7-11 34t-20 60-20 60-12 36l23 1q-6-17-14-43t-18-55-19-54-15-43L135 0H25Zm120 174 40 104h318l46-104H145Z"/><glyph unicode="B" horiz-adv-x="681" d="M98 0v700h292q67 0 113-20t69-59 24-97q0-57-31-97t-88-55v20q47-10 82-35t54-64 20-87q0-50-15-88t-46-65-74-39-98-14H98Zm108 104h188q41 0 69 12t44 35 16 57q0 31-16 53t-47 33-71 12H206V104Zm0 306h178q30 0 53 12t37 33 14 48q0 45-30 69t-86 24H206V410Z"/><glyph unicode="C" horiz-adv-x="679" d="M382-10q-73 0-134 26T142 90 73 205 48 350q0 75 26 139t74 114 109 76 134 27q51 0 99-15t88-43 65-63l-72-75q-29 29-58 48t-60 30-62 10q-49 0-91-18t-74-52-50-78-18-100q0-57 17-103t50-80 76-50 99-18q33 0 65 9t60 26 51 40l54-88q-23-27-62-49T480 3t-98-13Z"/><glyph unicode="D" horiz-adv-x="748" d="M98 0v700h274q75 0 135-25t104-72 66-111 23-142q0-78-23-142T612 97 508 25 372 0H98Zm108 93-3 11h164q53 0 94 17t70 48 44 78 15 103q0 57-15 102t-44 78-70 49-94 17H200l6 9V93Z"/><glyph unicode="E" horiz-adv-x="614" d="M98 0v700h441V596H206V104h333V0H98Zm49 307v104h337V307H147Z"/><glyph unicode="F" horiz-adv-x="602" d="M98 0v700h108V0H98Zm48 298v104h361V298H146Zm0 298v104h406V596H146Z"/><glyph unicode="G" horiz-adv-x="766" d="M411-10q-76 0-142 27T153 94 76 208 48 350q0 75 27 140t77 113 116 76 142 27q53 0 103-15t92-42 67-62l-70-73q-30 29-61 48t-65 29-66 10q-54 0-99-19t-80-53-54-79-19-100q0-52 20-98t55-82 82-55 99-20q39 0 74 11t62 33 42 48 15 59v20l15-14H408v107h310q2-11 3-21t1-20 1-19q0-69-24-125t-66-98-99-63-123-23Z"/><glyph unicode="H" horiz-adv-x="761" d="M555 0v700h108V0H555ZM98 0v700h108V0H98Zm47 297v104h458V297H145Z"/><glyph unicode="I" horiz-adv-x="478" d="M72 0v100h113v500H72v100h334V600H293V100h113V0H72Z"/><glyph unicode="J" horiz-adv-x="642" d="M256-10q-34 0-65 9t-57 26-48 40-36 52l68 71q21-30 38-48t34-28 32-13 34-4q36 0 63 16t42 46 15 66v377H248v100h344V600H484V213q0-48-16-88t-47-71-72-47-93-17Z"/><glyph unicode="K" horiz-adv-x="732" d="m188 212-6 121 367 367h142L188 212ZM98 0v700h108V0H98Zm464 0L294 358l80 69L697 0H562Z"/><glyph unicode="L" horiz-adv-x="599" d="M98 0v700h108V104h328V0H98Z"/><glyph unicode="M" horiz-adv-x="864" d="M98 0v700h106l255-415-51 1 258 414h100V0H658v287q0 90 4 162t16 143l14-37-229-354h-66L175 551l11 41q11-67 15-137t5-168V0H98Z"/><glyph unicode="N" horiz-adv-x="793" d="M98 0v700h97l428-573-16-9q-4 25-7 54t-5 63-4 71-3 79-1 85v230h108V0h-99L175 552l11 14q5-61 8-103t6-72 4-48 1-31 1-21V0H98Z"/><glyph unicode="O" horiz-adv-x="782" d="M391-10q-74 0-136 27T146 92 74 206 48 350q0 78 25 143t72 114 109 76 137 27q74 0 136-27t109-76 72-114 26-143q0-77-25-142T637 93 528 17 391-10Zm0 105q51 0 93 19t74 53 48 81 18 102q0 55-17 101t-49 81-73 54-94 19q-51 0-93-19t-74-53-49-80-17-103q0-55 17-102t48-81 74-53 94-19Z"/><glyph unicode="P" horiz-adv-x="634" d="M98 0v700h285q57 0 103-28t75-78 28-109q0-60-28-109t-74-78-104-30H206V0H98Zm108 372h175q27 0 49 15t35 41 14 57q0 31-13 56t-36 40-49 15H206V372Z"/><glyph unicode="Q" horiz-adv-x="782" d="M613-110 348 237l89 59L699-48l-86-62ZM391-10q-74 0-136 27T146 92 74 206 48 350q0 78 25 143t72 114 109 76 137 27q74 0 136-27t109-76 72-114 26-143q0-77-25-142T637 93 528 17 391-10Zm0 105q51 0 93 19t74 53 48 81 18 102q0 55-17 101t-49 81-73 54-94 19q-51 0-93-19t-74-53-49-80-17-103q0-55 17-102t48-81 74-53 94-19Z"/><glyph unicode="R" horiz-adv-x="695" d="M98 0v700h298q60 0 110-29t81-80 30-114q0-57-30-106t-80-78-111-30H206V0H98Zm416 0L336 316l111 25L645-1 514 0ZM206 367h200q29 0 52 14t36 40 13 57q0 35-16 61t-46 42-67 15H206V367Z"/><glyph unicode="S" horiz-adv-x="624" d="M314-10q-57 0-105 15t-88 45-71 76l74 85q49-70 94-97t107-27q38 0 69 12t49 33 18 48q0 18-6 34t-18 29-32 24-46 19-60 15q-54 11-94 29t-67 45-40 61-13 78q0 42 18 78t51 62 77 41 95 15q54 0 99-14t80-41 58-68l-76-75q-20 33-45 55t-55 34-64 12q-39 0-68-12t-45-33-17-51q0-21 8-38t24-31 45-24 67-19q55-12 98-30t73-44 45-56 16-67q0-67-31-116t-88-75-136-27Z"/><glyph unicode="T" horiz-adv-x="576" d="M231 0v596H35v104h506V596H339V0H231Z"/><glyph unicode="U" horiz-adv-x="740" d="M370-6q-81 0-145 35t-100 98-37 142v432h108V278q0-51 24-91t63-65 87-24q50 0 90 24t65 64 24 92v423h103V269q0-79-36-141T515 30 370-6Z"/><glyph unicode="V" horiz-adv-x="715" d="M304 0 24 700h123l167-425q12-31 21-56t17-45 13-39 12-36l-26-1q7 24 15 50t18 57 26 70l155 425h126L409 0H304Z"/><glyph unicode="W" horiz-adv-x="996" d="M247 0 24 700h115l135-438q6-16 11-37t9-44 7-41 7-31l-29 1q15 53 23 82t14 44 9 27l126 316h97l122-316q10-24 17-47t14-47 13-50l-26-7q5 27 7 42t5 26 4 19 6 25 13 41l133 435h116L749 0h-75L489 438l9-4L320 0h-73Z"/><glyph unicode="X" horiz-adv-x="685" d="M524 0 307 314 29 700h137l212-310L661 0H524ZM24 0l267 381 67-79L151 0H24Zm370 325-66 76 196 299h127L394 325Z"/><glyph unicode="Y" horiz-adv-x="660" d="M286 0v349l7-49L10 700h130l216-310-25 3 195 307h124L379 289l15 68V0H286Z"/><glyph unicode="Z" horiz-adv-x="659" d="M60 0v79l399 534 15-17H86v104h507v-78L196 87l-16 17h424V0H60Z"/><glyph unicode="[" horiz-adv-x="403" d="M80-190v890h257v-79H167l6 8v-752l-10 12h174v-79H80Z"/><glyph unicode="\" horiz-adv-x="557" d="M446-107 48 700h99l400-807H446Z"/><glyph unicode="]" horiz-adv-x="403" d="M66-190v79h170l-6-8v752l10-12H66v79h257v-890H66Z"/><glyph unicode="^" horiz-adv-x="579" d="m29 368 211 359h100l211-359H436L281 633l20 3-159-268H29Z"/><glyph unicode="_" horiz-adv-x="690" d="M53-160v78h584v-78H53Z"/><glyph unicode="`" horiz-adv-x="500" d="m320 606-174 94 65 82 143-125-34-51Z"/><glyph unicode="a" horiz-adv-x="633" d="M274-10q-65 0-118 36t-86 98-32 140q0 79 32 140t88 97 125 35q41 0 75-12t59-33 42-50 21-60l-23 8v136h104V0H457v125l24 7q-6-27-24-52t-47-46-63-32-73-12Zm27 95q47 0 83 23t56 63 21 93q0 51-20 91t-57 63-83 23q-46 0-81-23t-56-63-21-91q0-52 20-92t56-64 82-23Z"/><glyph unicode="b" horiz-adv-x="630" d="M348-10q-34 0-67 11t-61 29-46 41-25 46l26 14V3H72v737h103V405l-16 9q5 23 22 44t43 39 58 28 63 11q71 0 126-35t87-96 32-141q0-79-31-141t-87-97-124-36Zm-17 94q46 0 82 23t57 64 21 93q0 51-20 91t-57 64-83 23q-47 0-83-23t-57-63-21-92q0-52 21-92t57-64 83-24Z"/><glyph unicode="c" horiz-adv-x="535" d="M295-10q-73 0-130 36t-91 98-34 139q0 77 33 139t91 98 131 36q70 0 127-28t88-78l-57-70q-16 23-41 42t-53 30-54 11q-48 0-85-23t-60-65-22-92q0-51 23-91t61-65 84-24q27 0 52 9t50 27 45 44l57-70q-32-45-91-74T295-10Z"/><glyph unicode="d" horiz-adv-x="634" d="M291-10q-72 0-128 35t-90 97-33 141q0 79 32 140t89 97 127 36q39 0 75-12t66-34 45-47 17-52l-30-2v351h103V0H461v125h20q0-24-16-47t-42-44-61-32-71-12Zm14 89q47 0 83 24t56 65 21 95q0 53-20 94t-57 66-83 24q-47 0-83-24t-56-65-21-95q0-53 20-94t57-66 83-24Z"/><glyph unicode="e" horiz-adv-x="586" d="M317-10q-81 0-143 34t-98 95-36 138q0 62 20 113t55 88 85 58 108 21q51 0 95-19t76-54 50-80 17-102l-1-44H116l-23 82h363l-15-17v24q-3 33-22 59t-48 41-63 15q-54 0-91-20t-56-60-19-98q0-55 23-95t65-63 97-22q39 0 72 13t73 47l52-73q-24-24-58-42T393 1t-76-11Z"/><glyph unicode="f" horiz-adv-x="393" d="M129 0v584q0 45 20 80t55 55 81 20q32 0 60-12t45-32l-35-79q-13 12-28 19t-30 8q-21 0-35-6t-22-20-7-33V0H129ZM45 421v95h312v-95H45Z"/><glyph unicode="g" horiz-adv-x="649" d="M307-230q-56 0-111 17t-90 46l38 80q20-15 47-26t57-18 59-7q55 0 92 18t56 53 19 87v101l11-7q-5-31-32-59T384 8t-84-18q-75 0-133 35t-93 97-34 141q0 79 33 140t92 97 132 36q30 0 58-7t52-21 43-30 31-34 15-34l-22-8v123h103V32q0-63-18-111t-54-82-85-51-113-18Zm4 315q49 0 87 23t59 63 21 92q0 52-21 92t-59 64-87 23q-48 0-85-23t-59-64-22-92q0-51 21-91t59-64 86-23Z"/><glyph unicode="h" horiz-adv-x="595" d="M72 0v740h103V417l-18-12q10 35 39 64t69 48 82 19q60 0 100-23t60-72 20-121V0H424v313q0 45-12 74t-37 43-62 12q-30 0-55-9t-43-27-29-39-11-49V0H72Z"/><glyph unicode="i" horiz-adv-x="278" d="M89 0v525h103V0H89Zm50 641q-33 0-51 17t-18 48q0 29 18 47t51 18q33 0 51-17t18-48q0-29-18-47t-51-18Z"/><glyph unicode="j" horiz-adv-x="265" d="m9-197-39 79q39 0 64 13t39 40T86 1v524h103V-24q0-51-22-90t-63-61-95-22Zm131 838q-33 0-51 17t-18 48q0 29 18 47t51 18q33 0 51-17t18-48q0-29-18-47t-51-18Z"/><glyph unicode="k" horiz-adv-x="568" d="m166 164-5 112 251 249h139L166 164ZM72 0v740h103V0H72Zm354 0L228 231l73 67L558 0H426Z"/><glyph unicode="l" horiz-adv-x="251" d="M74 0v740h103V0H74Z"/><glyph unicode="m" horiz-adv-x="921" d="M70 0v525h104V413l-19-12q8 26 25 50t43 42 55 30 61 11q45 0 79-15t56-45 32-75l-16 4 7 17q11 23 30 43t45 37 53 25 55 9q59 0 97-24t58-73 20-122V0H751v309q0 45-11 73t-35 43-59 14q-28 0-52-9t-43-27-28-39-10-50V0H409v311q0 41-12 69t-35 44-56 15q-28 0-52-9t-42-26-28-39-10-49V0H70Z"/><glyph unicode="n" horiz-adv-x="595" d="M72 0v525h103V417l-18-12q10 35 39 64t69 48 82 19q60 0 100-23t60-72 20-121V0H424v313q0 45-12 74t-37 43-62 12q-30 0-55-9t-43-27-29-39-11-49V0H72Z"/><glyph unicode="o" horiz-adv-x="615" d="M308-10q-77 0-137 35t-96 97-35 141q0 79 35 140t95 97 138 36q76 0 136-35t96-97 35-141q0-79-35-140t-95-97-137-36Zm0 94q47 0 84 23t58 64 20 92q1 52-20 92t-58 64-84 23q-47 0-84-23t-59-64-20-92q-1-51 20-91t58-64 85-24Z"/><glyph unicode="p" horiz-adv-x="631" d="M72-220v745h104V405l-16 9q6 30 34 57t68 45 84 18q71 0 126-35t87-96 32-140q0-78-31-139t-87-97T349-9q-46 0-89 18t-73 48-37 60l26 14v-351H72ZM332 86q46 0 82 23t57 63 21 91q0 51-20 90t-57 63-83 23q-47 0-83-22t-57-63-21-91q0-51 21-91t57-63 83-23Z"/><glyph unicode="q" horiz-adv-x="630" d="M455-220v345h20q0-24-16-47t-43-44-60-32-68-12q-71 0-127 35t-88 97-33 141q0 79 32 140t87 97 126 36q39 0 74-13t64-34 45-46 17-52l-30-2v137h103v-746H455ZM299 85q47 0 83 23t56 63 21 92q0 52-20 92t-57 64-83 23q-47 0-83-23t-56-64-21-92q0-51 20-91t57-64 83-23Z"/><glyph unicode="r" horiz-adv-x="403" d="M72 0v525h104V360l-10 40q11 38 37 69t61 49 72 18q17 0 32-3t25-7l-27-112q-12 5-26 8t-29 4q-27 0-51-10t-43-29-30-43-11-54V0H72Z"/><glyph unicode="s" horiz-adv-x="479" d="M247-10q-66 0-119 23T40 81l70 60q30-35 65-50t81-16q18 0 33 4t27 14 18 21 6 28q0 26-19 42-10 7-31 15t-56 18q-58 15-95 34t-57 43q-15 19-22 41t-7 50q0 33 14 60t40 48 60 32 74 11q37 0 73-10t68-29 52-45l-59-65q-19 19-41 33t-46 23-42 8q-21 0-38-4t-28-12-18-20-6-27q1-13 6-24t16-20q11-8 33-17t56-17q50-13 82-28t52-36q20-19 28-44t8-56q0-45-25-80t-69-56-96-20Z"/><glyph unicode="t" horiz-adv-x="384" d="M137 0v659h103V0H137ZM28 425v100h334V425H28Z"/><glyph unicode="u" horiz-adv-x="605" d="M256-10q-56 0-97 26T95 89 72 201v324h103V229q0-46 14-79t42-52 67-18q29 0 53 9t41 27 28 41 10 52v316h103V0H430v110l18 12q-12-37-40-67T340 8t-84-18Z"/><glyph unicode="v" horiz-adv-x="573" d="M244 0 22 525h111l160-393-19-9 171 402h106L318 0h-74Z"/><glyph unicode="w" horiz-adv-x="800" d="M201 0 22 525l104 1 128-393-23 2 139 307h62l140-308-27-2 129 393h104L601 0h-71L384 334l23-3L271 0h-70Z"/><glyph unicode="x" horiz-adv-x="562" d="M421 0 251 221l-15 19L15 525h130l167-218 17-22L547 0H421ZM16 0l207 270 61-73L138 0H16Zm319 254-57 72 129 199h122L335 254Z"/><glyph unicode="y" horiz-adv-x="581" d="M160-230 266 15l1-82L5 525h120l164-386q5-10 12-30t12-41l-26-6q8 21 15 42t15 42l137 379h122L360 0l-89-230H160Z"/><glyph unicode="z" horiz-adv-x="484" d="M50 0v86l271 362v-12H50v89h383v-84L166 84l-4 5h277V0H50Z"/><glyph unicode="{" horiz-adv-x="411" d="M369-200q-49 10-84 25t-57 39-33 55-11 74l1 95q0 58-25 90t-73 34H44v76h45q47 1 71 33t25 91l-1 95q0 82 43 127t142 66l18-69q-43-14-67-30t-35-41-10-67l2-95q0-58-26-96t-77-53l-1 3q51-17 77-55t27-95l-2-95q0-41 10-66t34-41 68-31l-18-69Z"/><glyph unicode="|" horiz-adv-x="231" d="M67-193v933h97v-933H67Z"/><glyph unicode="}" horiz-adv-x="411" d="m42-200-18 69q43 14 67 30t34 41 11 67l-2 95q0 58 26 96t77 53l1-3q-51 17-77 55t-27 95l2 95q0 41-10 66t-34 41-68 31l18 69q49-10 84-25t57-39 33-55 11-74l-1-95q0-58 25-90t73-34h43v-76h-45q-47-1-71-33t-25-91l1-95q0-82-43-127T42-200Z"/><glyph unicode="~" horiz-adv-x="510" d="M356 225q-15 0-37 6t-43 14-37 13q-14 6-31 12t-33 10-24 5q-18 0-27-15t-10-43H40q0 68 31 105t91 37q12 0 27-3t31-9 31-11 26-11q14-5 30-11t31-10 23-5q17 0 27 13t8 35l74-3q0-42-13-70t-38-44-63-15Z"/><glyph horiz-adv-x="280"/><glyph unicode="¡" horiz-adv-x="236" d="M141 289q7-63 12-130t9-134 3-125v-70H57v70q0 62 3 130t8 134 13 125h60Zm-27 252q33 0 51-19t18-56q0-33-19-54t-50-21q-33 0-51 19t-18 56q0 33 19 54t50 21Z"/><glyph unicode="¢" horiz-adv-x="535" d="M295 78q-73 0-130 36t-91 98-34 139q0 77 33 139t91 98 131 36q70 0 127-28t88-78l-57-70q-16 23-41 42t-53 30-54 11q-48 0-85-23t-60-65-22-92q0-51 23-91t61-65 84-24q27 0 52 9t50 27 45 44l57-70q-32-45-91-74T295 78ZM239 0v108l7 37v418l-7 43v94h97v-95l-7-33V141l7-34V0h-97Z"/><glyph unicode="£" horiz-adv-x="610" d="m197 53-75 21q15 8 27 27t19 45 7 55q0 14-1 28t-5 31-9 40-17 52q-12 37-18 61t-8 41-3 33q0 67 28 117t78 78 120 28q67 0 116-22t73-63l-74-56q-15 16-33 26t-38 16-44 6q-37 0-65-17t-45-46-16-68q0-31 10-67t21-66q10-30 20-64t10-65q0-30-8-58t-26-56-44-57Zm228-74q-23 0-56 9T313 4q-13 4-31 9t-36 9-32 4q-32 0-69-8T70-6L30 65q39 24 87 36t97 13q29 0 53-5t67-20q21-7 45-14t46-8q28 0 56 8t57 27l52-65Q559 9 516-6t-91-15ZM44 323v85h408v-85H44Z"/><glyph unicode="¤" horiz-adv-x="550" d="M279 122q-49 0-89 24t-65 65-24 91q0 50 24 91t64 65 90 24q49 0 89-24t65-66 24-90q0-50-24-91t-64-65-90-24ZM129 82l-71 70 92 98 71-71-92-97Zm19 277-98 92 70 70 98-92-70-70Zm131-149q25 0 43 12t29 32 11 48q0 27-10 48t-29 33-44 12q-24 0-42-12t-29-33-11-48q0-27 10-47t29-33 43-12ZM428 90l-98 92 70 70 98-92-70-70Zm-21 272-70 70 92 98 71-70-93-98Z"/><glyph unicode="¥" horiz-adv-x="660" d="M286 0v349l7-49L10 700h130l216-310-25 3 195 307h124L379 289l15 68V0H286ZM146 90v86l412-2V88l-412 2Zm0 140v86l412-2v-86l-412 2Z"/><glyph unicode="¦" horiz-adv-x="239" d="M71-202v400h97v-400H71Zm0 543v399h97V341H71Z"/><glyph unicode="§" horiz-adv-x="549" d="m323 128-12 62q36 4 59 15t34 27 11 34q0 23-15 38t-51 25l-129 38q-9 3-29 13t-43 29-38 51-16 76q0 38 13 70t38 55 63 37 87 13q37 0 70-9t60-27 51-47l-57-66q-17 18-37 30t-44 19-48 6q-42 0-70-21t-28-55q0-17 8-32t27-27 46-20l93-27q77-22 113-61t34-96q-3-49-27-82t-65-49-98-19Zm-49-262q-38 0-78 11t-77 32-64 47l50 79q36-35 81-56t87-22q50 0 78 18t29 54q0 17-10 30t-27 23-40 17l-118 36q-70 21-104 59t-34 96q0 43 20 77t60 56 94 21l10-70q-23-3-40-13t-27-26-10-35q0-24 19-42t62-31l95-27q37-10 71-30t55-51 22-78q0-51-23-90t-68-62-113-23Z"/><glyph unicode="¨" horiz-adv-x="500" d="M350 642q-33 0-51 17t-18 48q0 29 18 47t51 18q33 0 51-17t18-48q0-29-18-47t-51-18Zm-200 0q-33 0-51 17t-18 48q0 29 18 47t51 18q33 0 51-17t18-48q0-29-18-47t-51-18Z"/><glyph unicode="©" horiz-adv-x="786" d="M393-7q-75 0-139 27T140 97 64 210 36 350q0 75 27 139t77 114 113 76 140 28q74 0 138-27t114-77 77-113 28-140q0-75-27-139T646 97 532 21 393-7Zm18 149q-60 0-108 27t-77 74-29 107q0 57 28 104t77 75 109 28q34 0 67-11t62-34l-37-75q-19 14-35 22t-30 13-27 4q-37 0-66-17t-45-45-17-64q0-37 16-66t46-45 66-16q23 0 47 9t49 29l37-76q-30-21-64-32t-69-11Zm-18-75q59 0 110 22t90 60 61 90 22 111q0 60-22 111t-60 90-90 60-111 22q-59 0-110-21t-90-61-61-90-22-111q0-59 22-110t60-90 90-61 111-22Z"/><glyph unicode="ª" horiz-adv-x="365" d="M143 391q-39 0-68 21t-44 60-16 90q0 46 18 82t49 56 73 21q49 0 75-33t27-96l-15 56v67h93V401h-93v73l15 38q0-30-15-58t-42-45-57-18Zm29 67q22 0 38 12t26 34 10 51q0 46-20 72t-55 27q-17 0-31-12t-23-34-9-46q0-32 7-55t22-36 35-13Z"/><glyph unicode="«" horiz-adv-x="486" d="M383 50 224 257v2l158 212 63-45-119-171 1 11L446 95l-63-45Zm-213 0L11 257v2l158 212 63-45-119-171 1 11L233 95l-63-45Z"/><glyph unicode="¬" horiz-adv-x="670" d="M515 117v202l19-12H50v97h570V117H515Z"/><glyph unicode="­" horiz-adv-x="394" d="M53 235v102h288V235H53Z"/><glyph unicode="®" horiz-adv-x="507" d="M259 259q-64 0-116 30t-83 81-31 114q0 47 18 88t49 71 73 48 90 18q47 0 88-17t73-49 50-71 18-88q0-47-18-88t-49-71-72-48-90-18Zm0 63q46 0 83 21t60 59 23 82q0 45-22 82t-60 59-84 22q-47 0-85-22t-60-59-23-82q0-45 22-82t61-58 85-22Zm33 45-37 100 53 14 44-114h-60Zm-120 0v239h110q33 0 53-20t21-52q0-32-21-52t-53-21h-71l18 9V367h-57Zm57 128-16 7h49q17 0 28 7t11 20q0 13-9 20t-28 7h-54l19 8v-69Z"/><glyph unicode="¯" horiz-adv-x="424" d="M108 642v75h284v-75H108Z"/><glyph unicode="°" horiz-adv-x="532" d="M266 399q-44 0-79 20t-56 56-21 78q0 44 20 79t56 56 80 21q45 0 80-20t55-56 21-79q0-43-20-78t-56-56-80-21Zm0 67q23 0 41 12t29 32 11 44q0 24-11 44t-29 31-41 12q-23 0-41-11t-29-32-11-45q0-24 11-44t29-31 41-12Z"/><glyph unicode="±" horiz-adv-x="582" d="M50 285v90h482v-90H50ZM50-1v92h482V-1H50Zm190 144v391h104V143H240Z"/><glyph unicode="²" horiz-adv-x="346" d="m65 418-9 71 99 99q9 8 22 21t23 29 10 34q0 16-9 25t-26 10q-17 0-37-12t-42-42l-54 40q15 26 37 45t48 30 55 11q33 0 57-13t39-35 14-52q0-28-15-53t-35-47-37-38l-67-65 4 9h154v-67H65Z"/><glyph unicode="³" horiz-adv-x="342" d="M165 412q-19 0-38 4t-38 12-32 18l33 55q19-12 35-17t34-6q28 0 45 14t18 40q0 20-15 32t-42 13q-13 0-28-3t-28-9l-21 57 102 88 19-6H79v68h186l7-66-99-82-13 7q5 3 13 5t13 2q52 0 81-28t30-77q0-35-17-62t-48-43-67-16Z"/><glyph unicode="´" horiz-adv-x="500" d="m180 606-34 51 143 125 65-82-174-94Z"/><glyph unicode="µ" horiz-adv-x="586" d="M80-157v682h97V222q0-47 12-78t36-48 59-16q29 0 53 11t43 30 28 45 11 56v303h97V0h-97v114l7-14q-12-36-36-60T335 3t-66-13q-21 0-41 7t-36 21-22 31l7 13v-219H80Z"/><glyph unicode="¶" horiz-adv-x="712" d="M246 0v314l24-35h-34q-54 0-96 27t-67 73-25 107q0 65 28 113t78 74 119 27h341V0H506v660l16-64H310l44 56V0H246Z"/><glyph unicode="·" horiz-adv-x="228" d="M114 253q-33 0-51 19t-18 56q0 33 19 54t50 21q33 0 51-19t18-56q0-33-19-54t-50-21Z"/><glyph unicode="¸" horiz-adv-x="500" d="m159-244-7 53q24 0 50 8t44 20 18 25q0 14-17 22t-38 12-35 4l-13 10 72 114h59l-43-70q50-10 75-34t25-59q0-26-17-46t-46-33-61-20-66-6Z"/><glyph unicode="¹" horiz-adv-x="281" d="M126 429v274l6-18-50-32-35 66 98 58h56V429h-75Z"/><glyph unicode="º" horiz-adv-x="354" d="M176 392q-45 0-80 20t-55 56-21 81q0 46 20 82t56 58 80 21q45 0 80-21t57-58 21-82q0-45-20-80t-57-56-81-21Zm0 71q21 0 36 11t24 30 9 45q0 27-8 47t-24 31-37 12q-21 0-36-11t-23-32-9-47q0-25 8-44t24-31 36-11Z"/><glyph unicode="»" horiz-adv-x="491" d="m320 50-63 45 119 171-1-11-119 171 63 45 159-207v-2L320 50Zm-216 0L41 95l119 171-1-11L40 426l63 45 159-207v-2L104 50Z"/><glyph unicode="¼" horiz-adv-x="793" d="M133 359v274l6-18-50-32-35 66 98 58h56V359h-75ZM111 0l467 700h99L209 0h-98Zm563 149h77V81h-77v68Zm-166-34-16 34h141l-18-19v154l29-11-136-158ZM690-2h-75v102l13-19H473l-17 69 168 206h66V-2Z"/><glyph unicode="½" horiz-adv-x="785" d="M133 359v274l6-18-50-32-35 66 98 58h56V359h-75ZM113 0l467 700h99L211 0h-98Zm409 0-9 71 99 99q9 8 22 21t23 29 10 34q0 16-9 25t-26 10q-17 0-37-12t-42-42l-54 40q15 26 37 45t48 30 55 11q33 0 57-13t39-35 14-52q0-28-15-53t-35-47-37-38l-67-65 4 9h154V0H522Z"/><glyph unicode="¾" horiz-adv-x="791" d="M128 342q-19 0-38 4t-38 12-32 18l33 55q19-12 35-17t34-6q28 0 45 14t18 40q0 20-15 32t-42 13q-13 0-28-3t-28-9l-21 57 102 88 19-6H42v68h186l7-66-99-82-13 7q5 3 13 5t13 2q52 0 81-28t30-77q0-35-17-62t-48-43-67-16ZM121 0l467 700h99L219 0h-98Zm551 149h77V81h-77v68Zm-166-34-16 34h141l-18-19v154l29-11-136-158ZM688-2h-75v102l13-19H471l-17 69 168 206h66V-2Z"/><glyph unicode="¿" horiz-adv-x="511" d="m300 323 26-141q-39-10-70-22t-53-27-38-32-22-36-8-42q0-29 15-52t43-36 61-13q40 0 77 27t65 78l75-63q-43-66-102-102t-125-37q-63 0-113 26T52-78 22 23q0 33 13 64t39 60 58 50 74 36l17 90h77Zm35 147q0-33-19-54t-50-21q-33 0-51 19t-18 56q0 33 19 54t50 21q33 0 51-19t18-56Z"/><glyph unicode="À" horiz-adv-x="700" d="m25 0 271 700h110L675 0H560L400 422q-3 7-11 34t-20 60-20 60-12 36l23 1q-6-17-14-43t-18-55-19-54-15-43L135 0H25Zm120 174 40 104h318l46-104H145Zm281 581-202 75 49 90 183-113-30-52Z"/><glyph unicode="Á" horiz-adv-x="700" d="m25 0 271 700h110L675 0H560L400 422q-3 7-11 34t-20 60-20 60-12 36l23 1q-6-17-14-43t-18-55-19-54-15-43L135 0H25Zm120 174 40 104h318l46-104H145Zm137 581-28 52 183 113 47-90-202-75Z"/><glyph unicode="Â" horiz-adv-x="700" d="m25 0 271 700h110L675 0H560L400 422q-3 7-11 34t-20 60-20 60-12 36l23 1q-6-17-14-43t-18-55-19-54-15-43L135 0H25Zm120 174 40 104h318l46-104H145Zm81 581-37 35 124 101h73l124-101-37-35-138 65h29l-138-65Z"/><glyph unicode="Ã" horiz-adv-x="700" d="m25 0 271 700h110L675 0H560L400 422q-3 7-11 34t-20 60-20 60-12 36l23 1q-6-17-14-43t-18-55-19-54-15-43L135 0H25Zm120 174 40 104h318l46-104H145Zm279 594q-23 0-46 7t-45 16q-17 7-29 11t-22 4q-13 0-21-9t-9-29h-77q0 54 35 83t79 30q21 0 41-7t39-15q14-6 27-10t23-4q14 0 22 10t7 26h76q0-29-12-55t-34-42-54-16Z"/><glyph unicode="Ä" horiz-adv-x="700" d="m25 0 271 700h110L675 0H560L400 422q-3 7-11 34t-20 60-20 60-12 36l23 1q-6-17-14-43t-18-55-19-54-15-43L135 0H25Zm120 174 40 104h318l46-104H145Zm308 585q-35 0-52 18t-17 47q0 25 17 45t52 20q35 0 52-18t17-47q0-25-17-45t-52-20Zm-206 0q-35 0-52 18t-17 47q0 25 17 45t52 20q35 0 52-18t17-47q0-25-17-45t-52-20Z"/><glyph unicode="Å" horiz-adv-x="700" d="m25 0 271 700h110L675 0H560L400 422q-3 7-11 34t-20 60-20 60-12 36l23 1q-6-17-14-43t-18-55-19-54-15-43L135 0H25Zm120 174 40 104h318l46-104H145Zm204 505q-28 0-53 14t-40 39-16 52q0 30 15 54t41 38 53 14q29 0 54-14t40-38 16-54q0-28-15-52t-41-38-54-15Zm0 59q21 0 35 13t15 33q0 23-15 35t-35 12q-20 0-34-13t-15-34q0-19 14-32t35-14Z"/><glyph unicode="Æ" horiz-adv-x="969" d="m5 0 488 700h401v-93H566V402h283v-94H566V93h328V0H465v153H203l63 92h199v313l25-8L114 0H5Z"/><glyph unicode="Ç" horiz-adv-x="679" d="M382-10q-73 0-134 26T142 90 73 205 48 350q0 75 26 139t74 114 109 76 134 27q51 0 99-15t88-43 65-63l-72-75q-29 29-58 48t-60 30-62 10q-49 0-91-18t-74-52-50-78-18-100q0-57 17-103t50-80 76-50 99-18q33 0 65 9t60 26 51 40l54-88q-23-27-62-49T480 3t-98-13Zm-98-234-7 53q24 0 50 8t44 20 18 25q0 14-17 22t-38 12-35 4l-13 10 72 114h59l-42-70q49-10 74-34t25-59q0-26-17-46t-45-33-61-20-67-6Z"/><glyph unicode="È" horiz-adv-x="614" d="M98 0v700h441V596H206V104h333V0H98Zm49 307v104h337V307H147Zm256 448-202 75 49 90 183-113-30-52Z"/><glyph unicode="É" horiz-adv-x="614" d="M98 0v700h441V596H206V104h333V0H98Zm49 307v104h337V307H147Zm112 448-28 52 183 113 47-90-202-75Z"/><glyph unicode="Ê" horiz-adv-x="614" d="M98 0v700h441V596H206V104h333V0H98Zm49 307v104h337V307H147Zm56 448-37 35 124 101h73l124-101-37-35-138 65h29l-138-65Z"/><glyph unicode="Ë" horiz-adv-x="614" d="M98 0v700h441V596H206V104h333V0H98Zm49 307v104h337V307H147Zm283 452q-35 0-52 18t-17 47q0 25 17 45t52 20q35 0 52-18t17-47q0-25-17-45t-52-20Zm-206 0q-35 0-52 18t-17 47q0 25 17 45t52 20q35 0 52-18t17-47q0-25-17-45t-52-20Z"/><glyph unicode="Ì" horiz-adv-x="478" d="M72 0v100h113v500H72v100h334V600H293V100h113V0H72Zm499 755-202 75 49 90 183-113-30-52Z"/><glyph unicode="Í" horiz-adv-x="478" d="M72 0v100h113v500H72v100h334V600H293V100h113V0H72Zm99 755-28 52 183 113 47-90-202-75Z"/><glyph unicode="Î" horiz-adv-x="478" d="M72 0v100h113v500H72v100h334V600H293V100h113V0H72Zm299 755-37 35 124 101h73l124-101-37-35-138 65h29l-138-65Z"/><glyph unicode="Ï" horiz-adv-x="478" d="M72 0v100h113v500H72v100h334V600H293V100h113V0H72Zm526 759q-35 0-52 18t-17 47q0 25 17 45t52 20q35 0 52-18t17-47q0-25-17-45t-52-20Zm-206 0q-35 0-52 18t-17 47q0 25 17 45t52 20q35 0 52-18t17-47q0-25-17-45t-52-20Z"/><glyph unicode="Ð" horiz-adv-x="748" d="M49 305v90h268v-90H49ZM98 0v700h274q75 0 135-25t104-72 66-111 23-142q0-78-23-142T612 97 508 25 372 0H98Zm108 93-3 11h164q53 0 94 17t70 48 44 78 15 103q0 57-15 102t-44 78-70 49-94 17H200l6 9V93Z"/><glyph unicode="Ñ" horiz-adv-x="793" d="M98 0v700h97l428-573-16-9q-4 25-7 54t-5 63-4 71-3 79-1 85v230h108V0h-99L175 552l11 14q5-61 8-103t6-72 4-48 1-31 1-21V0H98Zm373 768q-23 0-46 7t-45 16q-17 7-29 11t-22 4q-13 0-21-9t-9-29h-77q0 54 35 83t79 30q21 0 41-7t39-15q14-6 27-10t23-4q14 0 22 10t7 26h76q0-29-12-55t-34-42-54-16Z"/><glyph unicode="Ò" horiz-adv-x="782" d="M391-10q-74 0-136 27T146 92 74 206 48 350q0 78 25 143t72 114 109 76 137 27q74 0 136-27t109-76 72-114 26-143q0-77-25-142T637 93 528 17 391-10Zm0 105q51 0 93 19t74 53 48 81 18 102q0 55-17 101t-49 81-73 54-94 19q-51 0-93-19t-74-53-49-80-17-103q0-55 17-102t48-81 74-53 94-19Zm76 660-202 75 49 90 183-113-30-52Z"/><glyph unicode="Ó" horiz-adv-x="782" d="M391-10q-74 0-136 27T146 92 74 206 48 350q0 78 25 143t72 114 109 76 137 27q74 0 136-27t109-76 72-114 26-143q0-77-25-142T637 93 528 17 391-10Zm0 105q51 0 93 19t74 53 48 81 18 102q0 55-17 101t-49 81-73 54-94 19q-51 0-93-19t-74-53-49-80-17-103q0-55 17-102t48-81 74-53 94-19Zm-68 660-28 52 183 113 47-90-202-75Z"/><glyph unicode="Ô" horiz-adv-x="782" d="M391-10q-74 0-136 27T146 92 74 206 48 350q0 78 25 143t72 114 109 76 137 27q74 0 136-27t109-76 72-114 26-143q0-77-25-142T637 93 528 17 391-10Zm0 105q51 0 93 19t74 53 48 81 18 102q0 55-17 101t-49 81-73 54-94 19q-51 0-93-19t-74-53-49-80-17-103q0-55 17-102t48-81 74-53 94-19ZM267 755l-37 35 124 101h73l124-101-37-35-138 65h29l-138-65Z"/><glyph unicode="Õ" horiz-adv-x="782" d="M391-10q-74 0-136 27T146 92 74 206 48 350q0 78 25 143t72 114 109 76 137 27q74 0 136-27t109-76 72-114 26-143q0-77-25-142T637 93 528 17 391-10Zm0 105q51 0 93 19t74 53 48 81 18 102q0 55-17 101t-49 81-73 54-94 19q-51 0-93-19t-74-53-49-80-17-103q0-55 17-102t48-81 74-53 94-19Zm74 673q-23 0-46 7t-45 16q-17 7-29 11t-22 4q-13 0-21-9t-9-29h-77q0 54 35 83t79 30q21 0 41-7t39-15q14-6 27-10t23-4q14 0 22 10t7 26h76q0-29-12-55t-34-42-54-16Z"/><glyph unicode="Ö" horiz-adv-x="782" d="M391-10q-74 0-136 27T146 92 74 206 48 350q0 78 25 143t72 114 109 76 137 27q74 0 136-27t109-76 72-114 26-143q0-77-25-142T637 93 528 17 391-10Zm0 105q51 0 93 19t74 53 48 81 18 102q0 55-17 101t-49 81-73 54-94 19q-51 0-93-19t-74-53-49-80-17-103q0-55 17-102t48-81 74-53 94-19Zm103 664q-35 0-52 18t-17 47q0 25 17 45t52 20q35 0 52-18t17-47q0-25-17-45t-52-20Zm-206 0q-35 0-52 18t-17 47q0 25 17 45t52 20q35 0 52-18t17-47q0-25-17-45t-52-20Z"/><glyph unicode="×" horiz-adv-x="484" d="M385 78 35 426l64 60 350-349-64-59ZM98 71l-59 65 348 350 60-64L98 71Z"/><glyph unicode="Ø" horiz-adv-x="770" d="M123-33 60 20l589 721 68-47L123-33Zm267 23q-74 0-136 27T145 92 73 206 47 350q0 78 25 143t72 114 109 76 137 27q74 0 136-27t109-76 72-114 26-143q0-77-25-142T636 93 527 17 390-10Zm0 105q51 0 93 19t74 53 48 81 18 102q0 55-17 101t-49 81-73 54-94 19q-51 0-93-19t-74-53-49-80-17-103q0-55 17-102t48-81 74-53 94-19Z"/><glyph unicode="Ù" horiz-adv-x="740" d="M370-6q-81 0-145 35t-100 98-37 142v432h108V278q0-51 24-91t63-65 87-24q50 0 90 24t65 64 24 92v423h103V269q0-79-36-141T515 30 370-6Zm76 761-202 75 49 90 183-113-30-52Z"/><glyph unicode="Ú" horiz-adv-x="740" d="M370-6q-81 0-145 35t-100 98-37 142v432h108V278q0-51 24-91t63-65 87-24q50 0 90 24t65 64 24 92v423h103V269q0-79-36-141T515 30 370-6Zm-68 761-28 52 183 113 47-90-202-75Z"/><glyph unicode="Û" horiz-adv-x="740" d="M370-6q-81 0-145 35t-100 98-37 142v432h108V278q0-51 24-91t63-65 87-24q50 0 90 24t65 64 24 92v423h103V269q0-79-36-141T515 30 370-6ZM246 755l-37 35 124 101h73l124-101-37-35-138 65h29l-138-65Z"/><glyph unicode="Ü" horiz-adv-x="740" d="M370-6q-81 0-145 35t-100 98-37 142v432h108V278q0-51 24-91t63-65 87-24q50 0 90 24t65 64 24 92v423h103V269q0-79-36-141T515 30 370-6Zm103 765q-35 0-52 18t-17 47q0 25 17 45t52 20q35 0 52-18t17-47q0-25-17-45t-52-20Zm-206 0q-35 0-52 18t-17 47q0 25 17 45t52 20q35 0 52-18t17-47q0-25-17-45t-52-20Z"/><glyph unicode="Ý" horiz-adv-x="660" d="M286 0v349l7-49L10 700h130l216-310-25 3 195 307h124L379 289l15 68V0H286Zm-24 755-28 52 183 113 47-90-202-75Z"/><glyph unicode="Þ" horiz-adv-x="634" d="M98 0v700h108V573h177q57 0 103-28t75-78 28-109q0-60-28-109t-74-79-104-29H206V0H98Zm108 245h175q27 0 49 15t35 41 14 57q0 31-13 56t-36 40-49 15H206V245Z"/><glyph unicode="ß" horiz-adv-x="664" d="M422-10q-48 0-84 16t-63 51l52 55q27-24 50-34t47-10q46 0 73 34t28 87q0 39-10 70t-33 55-57 42-81 29v65q29 12 50 25t35 28 21 30 7 32q0 37-28 58t-79 21q-57 0-90-39t-34-103V0h-97v499q0 70 27 123t78 82 120 30q61 0 105-20t69-57 25-83q0-27-13-53t-36-47-55-35l-2 4q39-12 71-35t55-54 36-70 13-81q0-61-26-109t-71-76-103-28ZM45 404v93h135v-93H45Z"/><glyph unicode="à" horiz-adv-x="633" d="M274-10q-65 0-118 36t-86 98-32 140q0 79 32 140t88 97 125 35q41 0 75-12t59-33 42-50 21-60l-23 8v136h104V0H457v125l24 7q-6-27-24-52t-47-46-63-32-73-12Zm27 95q47 0 83 23t56 63 21 93q0 51-20 91t-57 63-83 23q-46 0-81-23t-56-63-21-91q0-52 20-92t56-64 82-23Zm66 521-174 94 65 82 143-125-34-51Z"/><glyph unicode="á" horiz-adv-x="633" d="M274-10q-65 0-118 36t-86 98-32 140q0 79 32 140t88 97 125 35q41 0 75-12t59-33 42-50 21-60l-23 8v136h104V0H457v125l24 7q-6-27-24-52t-47-46-63-32-73-12Zm27 95q47 0 83 23t56 63 21 93q0 51-20 91t-57 63-83 23q-46 0-81-23t-56-63-21-91q0-52 20-92t56-64 82-23Zm-54 521-34 51 143 125 65-82-174-94Z"/><glyph unicode="â" horiz-adv-x="633" d="M274-10q-65 0-118 36t-86 98-32 140q0 79 32 140t88 97 125 35q41 0 75-12t59-33 42-50 21-60l-23 8v136h104V0H457v125l24 7q-6-27-24-52t-47-46-63-32-73-12Zm27 95q47 0 83 23t56 63 21 93q0 51-20 91t-57 63-83 23q-46 0-81-23t-56-63-21-91q0-52 20-92t56-64 82-23ZM197 607l-38 33 115 113h86l115-113-38-33-135 73h30l-135-73Z"/><glyph unicode="ã" horiz-adv-x="633" d="M274-10q-65 0-118 36t-86 98-32 140q0 79 32 140t88 97 125 35q41 0 75-12t59-33 42-50 21-60l-23 8v136h104V0H457v125l24 7q-6-27-24-52t-47-46-63-32-73-12Zm27 95q47 0 83 23t56 63 21 93q0 51-20 91t-57 63-83 23q-46 0-81-23t-56-63-21-91q0-52 20-92t56-64 82-23Zm67 530q-20 0-33 8t-29 20q-19 17-28 23t-18 7q-13 0-23-14t-14-44l-68 10q2 49 31 85t79 36q20 0 33-8t29-20q20-16 29-23t17-7q14 0 23 15t14 43l68-10q-1-32-15-60t-38-44-57-17Z"/><glyph unicode="ä" horiz-adv-x="633" d="M274-10q-65 0-118 36t-86 98-32 140q0 79 32 140t88 97 125 35q41 0 75-12t59-33 42-50 21-60l-23 8v136h104V0H457v125l24 7q-6-27-24-52t-47-46-63-32-73-12Zm27 95q47 0 83 23t56 63 21 93q0 51-20 91t-57 63-83 23q-46 0-81-23t-56-63-21-91q0-52 20-92t56-64 82-23Zm116 557q-33 0-51 17t-18 48q0 29 18 47t51 18q33 0 51-17t18-48q0-29-18-47t-51-18Zm-200 0q-33 0-51 17t-18 48q0 29 18 47t51 18q33 0 51-17t18-48q0-29-18-47t-51-18Z"/><glyph unicode="å" horiz-adv-x="633" d="M274-10q-65 0-118 36t-86 98-32 140q0 79 32 140t88 97 125 35q41 0 75-12t59-33 42-50 21-60l-23 8v136h104V0H457v125l24 7q-6-27-24-52t-47-46-63-32-73-12Zm27 95q47 0 83 23t56 63 21 93q0 51-20 91t-57 63-83 23q-46 0-81-23t-56-63-21-91q0-52 20-92t56-64 82-23Zm15 519q-28 0-53 14t-40 39-16 52q0 29 15 53t40 38 54 15q30 0 55-14t40-39 15-53q0-28-15-52t-40-38-55-15Zm0 59q21 0 35 13t15 33q0 21-14 34t-36 13q-21 0-35-13t-14-34q0-19 14-32t35-14Z"/><glyph unicode="æ" horiz-adv-x="899" d="M216-10q-51 0-91 20T62 65t-24 84q0 42 15 74t45 53 74 32 102 11h495l-15-17v24q-3 33-22 59t-48 41-63 15q-50 0-84-20t-53-59-18-98q0-53 25-93t67-64 96-23q39 0 72 13t73 47l50-75q-24-23-58-41T719 0t-75-10q-81 0-142 33t-95 94-34 140q0 61 19 112t52 88 79 58 98 21q68-1 122-34t85-90 31-131l-1-44H261q-30 0-53-5t-40-17-25-27-8-37q0-22 11-38t30-26 44-9q36 0 68 12t58 35 40 49l44-67q-23-35-57-61T299 5t-83-15Zm157 267v99q0 18-9 34t-24 27-36 17-42 7q-44 0-79-18t-65-55l-67 67q29 33 62 55t72 34 79 12q47 0 84-10t63-28 41-46 14-64V263l-93-6Z"/><glyph unicode="ç" horiz-adv-x="535" d="M295-10q-73 0-130 36t-91 98-34 139q0 77 33 139t91 98 131 36q70 0 127-28t88-78l-57-70q-16 23-41 42t-53 30-54 11q-48 0-85-23t-60-65-22-92q0-51 23-91t61-65 84-24q27 0 52 9t50 27 45 44l57-70q-32-45-91-74T295-10Zm-91-234-7 53q24 0 50 8t44 20 18 25q0 14-17 22t-38 12-35 4l-13 10 72 114h59l-43-70q50-10 75-34t25-59q0-26-17-46t-46-33-61-20-66-6Z"/><glyph unicode="è" horiz-adv-x="586" d="M317-10q-81 0-143 34t-98 95-36 138q0 62 20 113t55 88 85 58 108 21q51 0 95-19t76-54 50-80 17-102l-1-44H116l-23 82h363l-15-17v24q-3 33-22 59t-48 41-63 15q-54 0-91-20t-56-60-19-98q0-55 23-95t65-63 97-22q39 0 72 13t73 47l52-73q-24-24-58-42T393 1t-76-11Zm41 616-174 94 65 82 143-125-34-51Z"/><glyph unicode="é" horiz-adv-x="586" d="M317-10q-81 0-143 34t-98 95-36 138q0 62 20 113t55 88 85 58 108 21q51 0 95-19t76-54 50-80 17-102l-1-44H116l-23 82h363l-15-17v24q-3 33-22 59t-48 41-63 15q-54 0-91-20t-56-60-19-98q0-55 23-95t65-63 97-22q39 0 72 13t73 47l52-73q-24-24-58-42T393 1t-76-11Zm-79 616-34 51 143 125 65-82-174-94Z"/><glyph unicode="ê" horiz-adv-x="586" d="M317-10q-81 0-143 34t-98 95-36 138q0 62 20 113t55 88 85 58 108 21q51 0 95-19t76-54 50-80 17-102l-1-44H116l-23 82h363l-15-17v24q-3 33-22 59t-48 41-63 15q-54 0-91-20t-56-60-19-98q0-55 23-95t65-63 97-22q39 0 72 13t73 47l52-73q-24-24-58-42T393 1t-76-11ZM188 607l-38 33 115 113h86l115-113-38-33-135 73h30l-135-73Z"/><glyph unicode="ë" horiz-adv-x="586" d="M317-10q-81 0-143 34t-98 95-36 138q0 62 20 113t55 88 85 58 108 21q51 0 95-19t76-54 50-80 17-102l-1-44H116l-23 82h363l-15-17v24q-3 33-22 59t-48 41-63 15q-54 0-91-20t-56-60-19-98q0-55 23-95t65-63 97-22q39 0 72 13t73 47l52-73q-24-24-58-42T393 1t-76-11Zm91 652q-33 0-51 17t-18 48q0 29 18 47t51 18q33 0 51-17t18-48q0-29-18-47t-51-18Zm-200 0q-33 0-51 17t-18 48q0 29 18 47t51 18q33 0 51-17t18-48q0-29-18-47t-51-18Z"/><glyph unicode="ì" horiz-adv-x="243" d="M70 0v525h103V0H70Zm100 606L-4 700l65 82 143-125-34-51Z"/><glyph unicode="í" horiz-adv-x="243" d="M70 0v525h103V0H70ZM50 606l-34 51 143 125 65-82-174-94Z"/><glyph unicode="î" horiz-adv-x="243" d="M70 0v525h103V0H70ZM0 607l-38 33L77 753h86l115-113-38-33-135 73h30L0 607Z"/><glyph unicode="ï" horiz-adv-x="243" d="M70 0v525h103V0H70Zm150 642q-33 0-51 17t-18 48q0 29 18 47t51 18q33 0 51-17t18-48q0-29-18-47t-51-18Zm-200 0q-33 0-51 17t-18 48q0 29 18 47t51 18q33 0 51-17t18-48q0-29-18-47t-51-18Z"/><glyph unicode="ð" horiz-adv-x="574" d="M287-7q-69 0-125 36t-89 97-33 136q0 54 19 102t52 85 75 58 89 21q50 0 89-22t66-62 38-96l-50 31q-2 46-12 83t-30 68-47 54-68 43-92 35l42 78q59-14 109-42t89-70 68-94 42-116 15-137q0-85-31-150T415 30 287-7Zm0 96q42 0 76 23t54 62 20 88q0 47-20 85t-54 62-76 23q-42 0-76-22t-54-61-20-87q0-49 20-88t54-62 76-23ZM156 528l-13 65 145 37 55 20 146 33 18-66-113-26-41-17-197-46Z"/><glyph unicode="ñ" horiz-adv-x="595" d="M72 0v525h103V417l-18-12q10 35 39 64t69 48 82 19q60 0 100-23t60-72 20-121V0H424v313q0 45-12 74t-37 43-62 12q-30 0-55-9t-43-27-29-39-11-49V0H72Zm307 615q-20 0-33 8t-29 20q-19 17-28 23t-18 7q-13 0-23-14t-14-44l-68 10q2 49 31 85t79 36q20 0 33-8t29-20q20-16 29-23t17-7q14 0 23 15t14 43l68-10q-1-32-15-60t-38-44-57-17Z"/><glyph unicode="ò" horiz-adv-x="615" d="M308-10q-77 0-137 35t-96 97-35 141q0 79 35 140t95 97 138 36q76 0 136-35t96-97 35-141q0-79-35-140t-95-97-137-36Zm0 94q47 0 84 23t58 64 20 92q1 52-20 92t-58 64-84 23q-47 0-84-23t-59-64-20-92q-1-51 20-91t58-64 85-24Zm50 522-174 94 65 82 143-125-34-51Z"/><glyph unicode="ó" horiz-adv-x="615" d="M308-10q-77 0-137 35t-96 97-35 141q0 79 35 140t95 97 138 36q76 0 136-35t96-97 35-141q0-79-35-140t-95-97-137-36Zm0 94q47 0 84 23t58 64 20 92q1 52-20 92t-58 64-84 23q-47 0-84-23t-59-64-20-92q-1-51 20-91t58-64 85-24Zm-70 522-34 51 143 125 65-82-174-94Z"/><glyph unicode="ô" horiz-adv-x="615" d="M308-10q-77 0-137 35t-96 97-35 141q0 79 35 140t95 97 138 36q76 0 136-35t96-97 35-141q0-79-35-140t-95-97-137-36Zm0 94q47 0 84 23t58 64 20 92q1 52-20 92t-58 64-84 23q-47 0-84-23t-59-64-20-92q-1-51 20-91t58-64 85-24ZM188 607l-38 33 115 113h86l115-113-38-33-135 73h30l-135-73Z"/><glyph unicode="õ" horiz-adv-x="615" d="M308-10q-77 0-137 35t-96 97-35 141q0 79 35 140t95 97 138 36q76 0 136-35t96-97 35-141q0-79-35-140t-95-97-137-36Zm0 94q47 0 84 23t58 64 20 92q1 52-20 92t-58 64-84 23q-47 0-84-23t-59-64-20-92q-1-51 20-91t58-64 85-24Zm51 531q-20 0-33 8t-29 20q-19 17-28 23t-18 7q-13 0-23-14t-14-44l-68 10q2 49 31 85t79 36q20 0 33-8t29-20q20-16 29-23t17-7q14 0 23 15t14 43l68-10q-1-32-15-60t-38-44-57-17Z"/><glyph unicode="ö" horiz-adv-x="615" d="M308-10q-77 0-137 35t-96 97-35 141q0 79 35 140t95 97 138 36q76 0 136-35t96-97 35-141q0-79-35-140t-95-97-137-36Zm0 94q47 0 84 23t58 64 20 92q1 52-20 92t-58 64-84 23q-47 0-84-23t-59-64-20-92q-1-51 20-91t58-64 85-24Zm100 558q-33 0-51 17t-18 48q0 29 18 47t51 18q33 0 51-17t18-48q0-29-18-47t-51-18Zm-200 0q-33 0-51 17t-18 48q0 29 18 47t51 18q33 0 51-17t18-48q0-29-18-47t-51-18Z"/><glyph unicode="÷" horiz-adv-x="597" d="M50 215v90h497v-90H50ZM293 15q-18 0-33 9t-24 23-9 33q0 18 9 33t24 23 33 9q18 0 33-8t23-24 9-33q0-18-8-32t-24-24-33-9Zm0 357q-18 0-33 9t-24 23-9 32q0 18 9 33t24 24 33 9q18 0 33-9t23-24 9-33q0-17-9-31t-24-24-32-9Z"/><glyph unicode="ø" horiz-adv-x="615" d="M107-35 41 13l453 532 67-49L107-35Zm201 25q-77 0-137 35t-96 97-35 141q0 79 35 140t95 97 138 36q76 0 136-35t96-97 35-141q0-79-35-140t-95-97-137-36Zm0 94q47 0 84 23t58 64 20 92q1 52-20 92t-58 64-84 23q-47 0-84-23t-59-64-20-92q-1-51 20-91t58-64 85-24Z"/><glyph unicode="ù" horiz-adv-x="605" d="M256-10q-56 0-97 26T95 89 72 201v324h103V229q0-46 14-79t42-52 67-18q29 0 53 9t41 27 28 41 10 52v316h103V0H430v110l18 12q-12-37-40-67T340 8t-84-18Zm97 616-174 94 65 82 143-125-34-51Z"/><glyph unicode="ú" horiz-adv-x="605" d="M256-10q-56 0-97 26T95 89 72 201v324h103V229q0-46 14-79t42-52 67-18q29 0 53 9t41 27 28 41 10 52v316h103V0H430v110l18 12q-12-37-40-67T340 8t-84-18Zm-23 616-34 51 143 125 65-82-174-94Z"/><glyph unicode="û" horiz-adv-x="605" d="M256-10q-56 0-97 26T95 89 72 201v324h103V229q0-46 14-79t42-52 67-18q29 0 53 9t41 27 28 41 10 52v316h103V0H430v110l18 12q-12-37-40-67T340 8t-84-18Zm-73 617-38 33 115 113h86l115-113-38-33-135 73h30l-135-73Z"/><glyph unicode="ü" horiz-adv-x="605" d="M256-10q-56 0-97 26T95 89 72 201v324h103V229q0-46 14-79t42-52 67-18q29 0 53 9t41 27 28 41 10 52v316h103V0H430v110l18 12q-12-37-40-67T340 8t-84-18Zm147 652q-33 0-51 17t-18 48q0 29 18 47t51 18q33 0 51-17t18-48q0-29-18-47t-51-18Zm-200 0q-33 0-51 17t-18 48q0 29 18 47t51 18q33 0 51-17t18-48q0-29-18-47t-51-18Z"/><glyph unicode="ý" horiz-adv-x="581" d="M160-230 266 15l1-82L5 525h120l164-386q5-10 12-30t12-41l-26-6q8 21 15 42t15 42l137 379h122L360 0l-89-230H160Zm61 836-34 51 143 125 65-82-174-94Z"/><glyph unicode="þ" horiz-adv-x="631" d="M72-220v960h104V405l-16 9q6 30 34 57t68 45 84 18q53 0 97-20t78-56 52-86 18-109q0-78-31-139t-87-97T349-9q-46 0-89 18t-73 48-37 60l26 14v-351H72ZM332 86q46 0 82 23t57 63 21 91q0 51-20 90t-57 63-83 23q-47 0-83-22t-57-63-21-91q0-51 21-91t57-63 83-23Z"/><glyph unicode="ÿ" horiz-adv-x="581" d="M160-230 266 15l1-82L5 525h120l164-386q5-10 12-30t12-41l-26-6q8 21 15 42t15 42l137 379h122L360 0l-89-230H160Zm231 872q-33 0-51 17t-18 48q0 29 18 47t51 18q33 0 51-17t18-48q0-29-18-47t-51-18Zm-200 0q-33 0-51 17t-18 48q0 29 18 47t51 18q33 0 51-17t18-48q0-29-18-47t-51-18Z"/><glyph unicode="–" horiz-adv-x="514" d="M53 237v99h408v-99H53Z"/><glyph unicode="—" horiz-adv-x="868" d="M53 237v100h762V237H53Z"/><glyph unicode="‘" horiz-adv-x="241" d="M139 480q-28 0-50 14t-36 40-13 59q0 26 11 51t30 47 46 39 56 26l38-46q-39-18-64-41t-25-40q0-13 11-23t20-18q22-18 29-30t8-25q0-24-17-38t-44-15Z"/><glyph unicode="’" horiz-adv-x="241" d="m58 475-38 46q39 18 64 41t25 40q0 13-11 23t-20 18q-22 18-29 30t-8 25q0 24 17 38t44 15q28 0 50-14t36-40 13-59q0-26-11-51t-30-47-46-39-56-26Z"/><glyph unicode="‚" horiz-adv-x="267" d="m88-179-38 46q35 20 57 46t22 45q0 10-5 19T103 4Q83 23 77 36t-6 28q0 24 17 38t44 15q25 0 45-14t32-40 12-59q0-30-10-58t-28-52-42-43-53-30Z"/><glyph unicode="“" horiz-adv-x="448" d="M139 731q-28 0-50 14t-36 40-13 59q0 26 11 51t30 47 46 39 56 26l38-46q-39-18-64-41t-25-40q0-13 11-23t20-18q22-18 29-30t8-25q0-24-17-38t-44-15Zm207-256q-28 0-50 14t-36 40-13 59q0 26 11 51t30 47 46 39 56 26l38-46q-39-18-64-41t-25-40q0-13 11-23t20-18q22-18 29-30t8-25q0-24-17-38t-44-15Z"/><glyph unicode="”" horiz-adv-x="445" d="m58 475-38 46q39 18 64 41t25 40q0 13-11 23t-20 18q-22 18-29 30t-8 25q0 24 17 38t44 15q28 0 50-14t36-40 13-59q0-26-11-51t-30-47-46-39-56-26Zm204 0-38 46q39 18 64 41t25 40q0 13-11 23t-20 18q-22 18-29 30t-8 25q0 24 17 38t44 15q28 0 50-14t36-40 13-59q0-26-11-51t-30-47-46-39-56-26Z"/><glyph unicode="„" horiz-adv-x="492" d="m88-179-38 46q35 20 57 46t22 45q0 10-5 19T103 4Q83 23 77 36t-6 28q0 24 17 38t44 15q25 0 45-14t32-40 12-59q0-30-10-58t-28-52-42-43-53-30Zm225 0-38 46q35 20 57 46t22 45q0 10-5 19T328 4q-20 19-26 32t-6 28q0 24 17 38t44 15q25 0 45-14t32-40 12-59q0-30-10-58t-28-52-42-43-53-30Z"/><glyph unicode="•" horiz-adv-x="346" d="M173 216q-37 0-68 18t-49 49-19 68q0 38 18 69t49 49 69 19q38 0 69-18t49-50 19-69q0-37-18-68t-50-49-69-18Z"/><glyph unicode="‹" horiz-adv-x="273" d="M170 50 11 257v2l158 212 63-45-119-171 1 11L233 95l-63-45Z"/><glyph unicode="›" horiz-adv-x="275" d="M104 50 41 95l119 171-1-11L40 426l63 45 159-207v-2L104 50Z"/></font>
</defs>
</svg>
