<svg aria-hidden="true" style="position: absolute; width: 0; height: 0; overflow: hidden;" version="1.1" xmlns="http://www.w3.org/2000/svg" xmlns:xlink="http://www.w3.org/1999/xlink">
<defs>
<symbol id="icon-logo" viewBox="0 0 32 32">
<path d="M0 4c0-2.209 1.791-4 4-4h24c2.209 0 4 1.791 4 4v4c0 13.255-10.745 24-24 24h-4c-2.209 0-4-1.791-4-4v-24z"></path>
</symbol>
<symbol id="icon-vector" viewBox="0 0 59 32">
<path d="M55.993 3.973c0.002-0.927-0.323-1.825-0.918-2.539-0.335-0.402-0.746-0.734-1.211-0.977s-0.973-0.393-1.495-0.441c-0.523-0.048-1.050 0.007-1.551 0.162s-0.967 0.406-1.37 0.74l-21.393 17.77-21.432-17.135c-0.408-0.329-0.878-0.576-1.382-0.724s-1.033-0.196-1.556-0.141c-0.523 0.055-1.030 0.213-1.491 0.463s-0.869 0.589-1.198 0.997c-0.363 0.41-0.637 0.891-0.805 1.412s-0.225 1.070-0.169 1.614c0.056 0.544 0.225 1.070 0.496 1.546s0.637 0.891 1.077 1.219l23.947 19.158c0.714 0.583 1.61 0.902 2.534 0.902s1.82-0.319 2.534-0.902l23.947-19.832c0.483-0.398 0.865-0.903 1.115-1.475s0.36-1.194 0.322-1.817z"></path>
</symbol>
 <symbol id="icon-close-black" viewBox="0 0 32 32">
<path d="M26.667 7.303l-1.97-1.97-7.808 7.808-7.808-7.808-1.97 1.97 7.808 7.808-7.808 7.808 1.97 1.97 7.808-7.808 7.808 7.808 1.97-1.97-7.808-7.808 7.808-7.808z"></path>
</symbol>
<symbol id="icon-email" viewBox="0 0 43 32"><path d="M37.333 0h-32c-2.2 0-3.98 1.8-3.98 4l-.02 24c0 2.2 1.8 4 4 4h32c2.2 0 4-1.8 4-4V4c0-2.2-1.8-4-4-4zm-.8 8.5-14.14 8.84c-.64.4-1.48.4-2.12 0L6.133 8.5c-.5-.32-.8-.86-.8-1.44 0-1.34 1.46-2.14 2.6-1.44l13.4 8.38 13.4-8.38c1.14-.7 2.6.1 2.6 1.44 0 .58-.3 1.12-.8 1.44z"/>
</symbol>
<symbol id="icon-phone" viewBox="0 0 32 32"><path d="m27.419 20.852-4.201-.48a3.293 3.293 0 0 0-2.713.943l-3.044 3.044A24.888 24.888 0 0 1 6.56 13.458l3.06-3.06a3.293 3.293 0 0 0 .943-2.713l-.48-4.168A3.31 3.31 0 0 0 6.791.589H3.929C2.06.589.505 2.144.621 4.013c.877 14.126 12.174 25.407 26.284 26.284 1.869.116 3.424-1.439 3.424-3.308v-2.861c.016-1.671-1.241-3.077-2.911-3.275z"/></symbol>
<symbol id="icon-user" viewBox="0 0 32 32"><path d="M16 16c4.42 0 8-3.58 8-8s-3.58-8-8-8-8 3.58-8 8 3.58 8 8 8zm0 4c-5.34 0-16 2.68-16 8v2c0 1.1.9 2 2 2h28c1.1 0 2-.9 2-2v-2c0-5.32-10.66-8-16-8z"/></symbol>
<symbol id="icon-menu" viewBox="0 0 32 32">
<path d="M6.4 11.734v-2.134h19.2v2.134h-19.2zM6.4 17.066h19.2v-2.133h-19.2v2.133zM6.4 22.4h19.2v-2.134h-19.2v2.134z"></path>
</symbol>
<symbol id="icon-close-menu" viewBox="0 0 32 32">
<path d="M23.734 10.304l-1.504-1.504-5.963 5.962-5.962-5.962-1.504 1.504 5.962 5.962-5.962 5.963 1.504 1.504 5.962-5.963 5.963 5.963 1.504-1.504-5.963-5.963 5.963-5.962z"></path>
</symbol>
<symbol id="icon-location" viewBox="0 0 32 32">
<path d="M16 1.333c3.183 0 6.235 1.325 8.485 3.682s3.515 5.555 3.515 8.889c0 6.007-3.87 11.537-11.464 16.599-0.16 0.107-0.346 0.163-0.536 0.163s-0.376-0.057-0.536-0.163c-7.594-5.062-11.464-10.591-11.464-16.599 0-3.334 1.264-6.532 3.515-8.889s5.303-3.682 8.485-3.682zM16 9.714c-1.061 0-2.078 0.441-2.828 1.227s-1.172 1.852-1.172 2.963c0 1.111 0.421 2.177 1.172 2.963s1.768 1.227 2.828 1.227c1.061 0 2.078-0.441 2.828-1.227s1.172-1.852 1.172-2.963c0-1.111-0.421-2.177-1.172-2.963s-1.768-1.227-2.828-1.227z"></path>
</symbol>
<symbol id="icon-menu" viewBox="0 0 32 32">
<path d="M6.4 11.734v-2.134h19.2v2.134h-19.2zM6.4 17.066h19.2v-2.133h-19.2v2.133zM6.4 22.4h19.2v-2.134h-19.2v2.134z"></path>
</symbol>
</defs>
</svg>
