<svg aria-hidden="true" style="position: absolute; width: 0; height: 0; overflow: hidden;" version="1.1" xmlns="http://www.w3.org/2000/svg" xmlns:xlink="http://www.w3.org/1999/xlink">
<defs>
<symbol id="icon-logo" viewBox="0 0 32 32">
<path d="M0 4c0-2.209 1.791-4 4-4h24c2.209 0 4 1.791 4 4v4c0 13.255-10.745 24-24 24h-4c-2.209 0-4-1.791-4-4v-24z"></path>
</symbol>
<symbol id="icon-vector" viewBox="0 0 59 32">
<path d="M55.993 3.973c0.002-0.927-0.323-1.825-0.918-2.539-0.335-0.402-0.746-0.734-1.211-0.977s-0.973-0.393-1.495-0.441c-0.523-0.048-1.050 0.007-1.551 0.162s-0.967 0.406-1.37 0.74l-21.393 17.77-21.432-17.135c-0.408-0.329-0.878-0.576-1.382-0.724s-1.033-0.196-1.556-0.141c-0.523 0.055-1.030 0.213-1.491 0.463s-0.869 0.589-1.198 0.997c-0.363 0.41-0.637 0.891-0.805 1.412s-0.225 1.070-0.169 1.614c0.056 0.544 0.225 1.070 0.496 1.546s0.637 0.891 1.077 1.219l23.947 19.158c0.714 0.583 1.61 0.902 2.534 0.902s1.82-0.319 2.534-0.902l23.947-19.832c0.483-0.398 0.865-0.903 1.115-1.475s0.36-1.194 0.322-1.817z"></path>
</symbol>
 <symbol id="icon-close-black" viewBox="0 0 32 32">
<path d="M26.667 7.303l-1.97-1.97-7.808 7.808-7.808-7.808-1.97 1.97 7.808 7.808-7.808 7.808 1.97 1.97 7.808-7.808 7.808 7.808 1.97-1.97-7.808-7.808 7.808-7.808z"></path>
</symbol>
<symbol id="icon-email" viewBox="0 0 43 32"><path d="M37.333 0h-32c-2.2 0-3.98 1.8-3.98 4l-.02 24c0 2.2 1.8 4 4 4h32c2.2 0 4-1.8 4-4V4c0-2.2-1.8-4-4-4zm-.8 8.5-14.14 8.84c-.64.4-1.48.4-2.12 0L6.133 8.5c-.5-.32-.8-.86-.8-1.44 0-1.34 1.46-2.14 2.6-1.44l13.4 8.38 13.4-8.38c1.14-.7 2.6.1 2.6 1.44 0 .58-.3 1.12-.8 1.44z"/>
</symbol>
<symbol id="icon-phone" viewBox="0 0 32 32"><path d="m27.419 20.852-4.201-.48a3.293 3.293 0 0 0-2.713.943l-3.044 3.044A24.888 24.888 0 0 1 6.56 13.458l3.06-3.06a3.293 3.293 0 0 0 .943-2.713l-.48-4.168A3.31 3.31 0 0 0 6.791.589H3.929C2.06.589.505 2.144.621 4.013c.877 14.126 12.174 25.407 26.284 26.284 1.869.116 3.424-1.439 3.424-3.308v-2.861c.016-1.671-1.241-3.077-2.911-3.275z"/></symbol>
<symbol id="icon-user" viewBox="0 0 32 32"><path d="M16 16c4.42 0 8-3.58 8-8s-3.58-8-8-8-8 3.58-8 8 3.58 8 8 8zm0 4c-5.34 0-16 2.68-16 8v2c0 1.1.9 2 2 2h28c1.1 0 2-.9 2-2v-2c0-5.32-10.66-8-16-8z"/></symbol>
<symbol id="icon-menu" viewBox="0 0 32 32">
<path d="M6.4 11.734v-2.134h19.2v2.134h-19.2zM6.4 17.066h19.2v-2.133h-19.2v2.133zM6.4 22.4h19.2v-2.134h-19.2v2.134z"></path>
</symbol>
<symbol id="icon-close-menu" viewBox="0 0 32 32">
<path d="M23.734 10.304l-1.504-1.504-5.963 5.962-5.962-5.962-1.504 1.504 5.962 5.962-5.962 5.963 1.504 1.504 5.962-5.963 5.963 5.963 1.504-1.504-5.963-5.963 5.963-5.962z"></path>
</symbol>
<symbol id="icon-location" viewBox="0 0 32 32">
<path d="M16 1.333c3.183 0 6.235 1.325 8.485 3.682s3.515 5.555 3.515 8.889c0 6.007-3.87 11.537-11.464 16.599-0.16 0.107-0.346 0.163-0.536 0.163s-0.376-0.057-0.536-0.163c-7.594-5.062-11.464-10.591-11.464-16.599 0-3.334 1.264-6.532 3.515-8.889s5.303-3.682 8.485-3.682zM16 9.714c-1.061 0-2.078 0.441-2.828 1.227s-1.172 1.852-1.172 2.963c0 1.111 0.421 2.177 1.172 2.963s1.768 1.227 2.828 1.227c1.061 0 2.078-0.441 2.828-1.227s1.172-1.852 1.172-2.963c0-1.111-0.421-2.177-1.172-2.963s-1.768-1.227-2.828-1.227z"></path>
</symbol>
<symbol id="icon-menu" viewBox="0 0 32 32">
<path d="M6.4 11.734v-2.134h19.2v2.134h-19.2zM6.4 17.066h19.2v-2.133h-19.2v2.133zM6.4 22.4h19.2v-2.134h-19.2v2.134z"></path>
</symbol>
<symbol id="icon-villa" viewBox="0 0 32 32">
<path d="M9.333 28h-4c-0.733 0-1.333-0.6-1.333-1.333v-15.080c0-0.56 0.333-1.053 0.853-1.253l14.667-5.64c0.203-0.078 0.421-0.106 0.637-0.080s0.422 0.104 0.601 0.227 0.325 0.289 0.425 0.482c0.1 0.193 0.152 0.407 0.15 0.625v7.387h-10.667c-0.733 0-1.333 0.6-1.333 1.333v13.333zM22.667 16h-9.333c-0.733 0-1.333 0.6-1.333 1.333v9.333c0 0.733 0.6 1.333 1.333 1.333h5.333v-5.333c0-0.733 0.6-1.333 1.333-1.333s1.333 0.6 1.333 1.333v5.333h5.333c0.733 0 1.333-0.6 1.333-1.333v-10.667c0-1.467-1.2-2.667-2.667-2.667s-2.667 1.2-2.667 2.667z"></path>
</symbol>
<symbol id="icon-apartment" viewBox="0 0 32 32">
<path d="M22.667 14.667v-8c0-1.467-1.2-2.667-2.667-2.667h-8c-1.467 0-2.667 1.2-2.667 2.667v2.667h-2.667c-1.467 0-2.667 1.2-2.667 2.667v13.333c0 1.467 1.2 2.667 2.667 2.667h8v-5.333h2.667v5.333h8c1.467 0 2.667-1.2 2.667-2.667v-8c0-1.467-1.2-2.667-2.667-2.667h-2.667zM9.333 25.333h-2.667v-2.667h2.667v2.667zM9.333 20h-2.667v-2.667h2.667v2.667zM9.333 14.667h-2.667v-2.667h2.667v2.667zM14.667 20h-2.667v-2.667h2.667v2.667zM14.667 14.667h-2.667v-2.667h2.667v2.667zM14.667 9.333h-2.667v-2.667h2.667v2.667zM20 20h-2.667v-2.667h2.667v2.667zM20 14.667h-2.667v-2.667h2.667v2.667zM20 9.333h-2.667v-2.667h2.667v2.667zM25.333 25.333h-2.667v-2.667h2.667v2.667zM25.333 20h-2.667v-2.667h2.667v2.667z"></path>
</symbol>
<symbol id="icon-house" viewBox="0 0 32 32">
<path d="M28 14.443v11.557c-0 0.363-0.098 0.718-0.284 1.029s-0.452 0.566-0.771 0.739c-0.289 0.156-0.613 0.236-0.942 0.232h-6.007c-0.265 0-0.52-0.105-0.707-0.293s-0.293-0.442-0.293-0.707v-6.001c0-0.265-0.105-0.52-0.293-0.707s-0.442-0.293-0.707-0.293h-4c-0.265 0-0.52 0.105-0.707 0.293s-0.293 0.442-0.293 0.707v6.001c0 0.265-0.105 0.52-0.293 0.707s-0.442 0.293-0.707 0.293h-5.995c-0.284 0.001-0.564-0.059-0.822-0.176s-0.489-0.287-0.676-0.5c-0.329-0.38-0.507-0.868-0.501-1.37v-11.512c0-0.279 0.059-0.554 0.171-0.809s0.277-0.483 0.483-0.671l9.999-9.092c0.367-0.336 0.847-0.523 1.345-0.523s0.978 0.187 1.345 0.523l10.001 9.092c0.206 0.188 0.371 0.416 0.483 0.671s0.171 0.53 0.171 0.809z"></path>
</symbol>
<symbol id="icon-arrow-next" viewBox="0 0 32 32">
<path d="M13.324 6.669c-0.309-0.001-0.608 0.108-0.846 0.306-0.134 0.112-0.245 0.249-0.326 0.404s-0.131 0.324-0.147 0.498 0.002 0.35 0.054 0.517c0.052 0.167 0.136 0.322 0.247 0.457l5.923 7.131-5.712 7.144c-0.11 0.136-0.192 0.293-0.241 0.461s-0.066 0.344-0.047 0.519c0.018 0.174 0.071 0.343 0.154 0.497s0.196 0.29 0.332 0.399c0.137 0.121 0.297 0.212 0.471 0.268s0.357 0.075 0.538 0.056 0.357-0.075 0.515-0.165c0.159-0.090 0.297-0.212 0.406-0.359l6.386-7.982c0.194-0.238 0.301-0.537 0.301-0.845s-0.106-0.607-0.301-0.845l-6.611-7.982c-0.133-0.161-0.301-0.288-0.492-0.372s-0.398-0.12-0.606-0.107z"></path>
</symbol>
<symbol id="icon-arrow-prev" viewBox="0 0 32 32">
<path d="M20.009 25.331c0.309 0.001 0.608-0.108 0.846-0.306 0.134-0.112 0.245-0.249 0.326-0.404s0.131-0.324 0.147-0.498c0.016-0.174-0.002-0.35-0.054-0.517s-0.135-0.322-0.247-0.457l-5.923-7.131 5.712-7.144c0.11-0.136 0.192-0.293 0.241-0.461s0.066-0.344 0.047-0.519c-0.018-0.174-0.071-0.343-0.154-0.497s-0.196-0.29-0.332-0.399c-0.137-0.121-0.297-0.212-0.471-0.268s-0.357-0.075-0.538-0.056-0.357 0.075-0.515 0.165c-0.159 0.090-0.297 0.212-0.406 0.359l-6.386 7.982c-0.194 0.238-0.301 0.537-0.301 0.845s0.106 0.607 0.301 0.845l6.611 7.982c0.133 0.161 0.301 0.288 0.492 0.372s0.398 0.12 0.605 0.107z"></path>
</symbol>
<symbol id="icon-fire" viewBox="0 0 32 32">
<path d="M26.066 14.662c-0.607-1.365-1.489-2.591-2.591-3.6l-0.909-0.834c-0.031-0.028-0.068-0.047-0.108-0.057s-0.082-0.010-0.122 0.001c-0.040 0.010-0.077 0.030-0.108 0.058s-0.054 0.063-0.068 0.102l-0.406 1.166c-0.253 0.731-0.719 1.478-1.378 2.213-0.044 0.047-0.094 0.059-0.128 0.063s-0.087-0.003-0.134-0.047c-0.044-0.037-0.066-0.094-0.062-0.15 0.116-1.881-0.447-4.003-1.678-6.313-1.019-1.919-2.434-3.416-4.203-4.459l-1.291-0.759c-0.169-0.1-0.384 0.031-0.375 0.228l0.069 1.5c0.047 1.025-0.072 1.931-0.353 2.684-0.344 0.922-0.838 1.778-1.469 2.547-0.439 0.534-0.937 1.017-1.484 1.441-1.318 1.013-2.389 2.311-3.134 3.797-0.743 1.499-1.13 3.149-1.131 4.822 0 1.475 0.291 2.903 0.866 4.25 0.555 1.297 1.356 2.474 2.359 3.466 1.012 1 2.188 1.787 3.497 2.334 1.356 0.569 2.794 0.856 4.278 0.856s2.922-0.288 4.278-0.853c1.306-0.544 2.494-1.337 3.497-2.334 1.013-1 1.806-2.169 2.359-3.466 0.574-1.343 0.869-2.789 0.866-4.25 0-1.525-0.312-3.006-0.934-4.403z"></path>
</symbol>
<symbol id="icon-wallet" viewBox="0 0 32 32">
<path d="M25.6 9.6h-20v-0.8l17.6-1.408v1.408h2.4v-2.4c0-1.76-1.426-2.995-3.166-2.747l-16.066 2.294c-1.742 0.25-3.168 1.893-3.168 3.653v16c0 0.849 0.337 1.663 0.937 2.263s1.414 0.937 2.263 0.937h19.2c0.849 0 1.663-0.337 2.263-0.937s0.937-1.414 0.937-2.263v-12.8c0-0.849-0.337-1.663-0.937-2.263s-1.414-0.937-2.263-0.937zM23.2 20.81c-0.315-0-0.627-0.062-0.919-0.183s-0.556-0.298-0.779-0.521-0.4-0.488-0.52-0.779c-0.12-0.291-0.182-0.604-0.182-0.919s0.062-0.627 0.183-0.919c0.121-0.291 0.298-0.556 0.521-0.779s0.488-0.4 0.779-0.52c0.291-0.121 0.604-0.183 0.919-0.182 0.637 0 1.247 0.253 1.697 0.704s0.703 1.061 0.703 1.698c-0 0.637-0.253 1.247-0.704 1.697s-1.061 0.703-1.698 0.703z"></path>
</symbol>
<symbol id="icon-bath" viewBox="0 0 33 32">
<path d="M27.039 15.955h-21.078c-0.83 0-1.506 0.675-1.506 1.506s0.676 1.506 1.506 1.506h21.078c0.83 0 1.506-0.675 1.506-1.506s-0.675-1.505-1.506-1.505z"></path>
<path d="M27.178 17.982c-0.272-0.076-0.545 0.078-0.62 0.345l-0.039 0.137h-20.035l-0.040-0.137c-0.075-0.267-0.35-0.42-0.62-0.345-0.267 0.076-0.421 0.354-0.344 0.62l1.383 4.842c0.429 1.501 1.818 2.549 3.378 2.549h12.521c1.561 0 2.949-1.048 3.378-2.549l1.383-4.842c0.077-0.266-0.077-0.544-0.343-0.62zM10.24 23.985c-0.668 0-1.265-0.449-1.447-1.092l-0.651-2.282c-0.076-0.267 0.078-0.544 0.344-0.62 0.269-0.076 0.545 0.079 0.62 0.345l0.651 2.282c0.062 0.214 0.26 0.364 0.483 0.364 0.277 0 0.502 0.225 0.502 0.502s-0.225 0.501-0.502 0.501z"></path>
<path d="M11.203 25.041c-0.248-0.121-0.548-0.024-0.674 0.225l-1.004 2.007c-0.123 0.248-0.023 0.549 0.225 0.674 0.073 0.036 0.15 0.053 0.225 0.053 0.184 0 0.36-0.101 0.449-0.278l1.004-2.008c0.123-0.248 0.023-0.549-0.225-0.674z"></path>
<path d="M23.474 27.274l-1.004-2.007c-0.124-0.249-0.426-0.348-0.674-0.225-0.248 0.125-0.348 0.426-0.225 0.674l1.004 2.008c0.088 0.176 0.265 0.277 0.449 0.277 0.075 0 0.152-0.017 0.225-0.052 0.248-0.125 0.348-0.426 0.225-0.674z"></path>
<path d="M24.615 4c-0.512 0-0.994 0.2-1.356 0.562l-1.593 1.593c-0.196 0.196-0.196 0.514 0 0.71s0.514 0.196 0.71 0l1.593-1.592c0.172-0.173 0.401-0.268 0.651-0.268 0.504 0 0.913 0.41 0.913 0.913v10.539c0 0.277 0.225 0.502 0.502 0.502s0.502-0.225 0.503-0.503v-10.539c0-1.057-0.859-1.917-1.923-1.917z"></path>
<path d="M22.878 6.657l-1.004-1.004c-0.114-0.114-0.274-0.168-0.437-0.141l-2.509 0.412c-0.185 0.030-0.336 0.161-0.395 0.337s-0.014 0.373 0.116 0.507l3.011 3.102c0.095 0.099 0.227 0.153 0.359 0.153 0.047 0 0.095-0.007 0.142-0.021 0.179-0.052 0.314-0.2 0.35-0.382l0.502-2.509c0.033-0.164-0.018-0.333-0.137-0.453z"></path>
<path d="M16.352 10.081c-0.196-0.196-0.514-0.196-0.71 0l-1.004 1.004c-0.196 0.196-0.196 0.514 0 0.71 0.098 0.097 0.227 0.147 0.355 0.147s0.257-0.049 0.354-0.147l1.004-1.004c0.196-0.196 0.196-0.514 0-0.71z"></path>
<path d="M18.36 12.088c-0.196-0.196-0.514-0.196-0.71 0l-1.004 1.004c-0.196 0.196-0.196 0.514 0 0.71 0.098 0.097 0.227 0.147 0.355 0.147s0.257-0.049 0.354-0.147l1.004-1.004c0.196-0.196 0.196-0.514 0-0.71z"></path>
<path d="M19.364 9.077c-0.196-0.196-0.514-0.196-0.71 0l-1.004 1.004c-0.196 0.196-0.196 0.514 0 0.71 0.098 0.097 0.227 0.147 0.355 0.147s0.257-0.049 0.354-0.147l1.004-1.004c0.196-0.196 0.196-0.514 0-0.71z"></path>
</symbol>
<symbol id="icon-bed" viewBox="0 0 32 32">
<path d="M23.8 14.769c2.271 0 4.2 1.893 4.2 4.308v3.692h-1.8v1.231h-1.2v-1.231h-18v1.231h-1.2v-1.231h-1.8v-3.692c0-2.329 1.863-4.308 4.2-4.308h15.6zM22.6 8c1.613 0 3 1.33 3 3.077l0 2.94c-0.546-0.307-1.156-0.479-1.8-0.479l-1.2-0.001c0-1.054-0.841-1.845-1.8-1.845h-3.6c-0.461 0-0.881 0.178-1.2 0.47-0.318-0.292-0.739-0.47-1.2-0.47h-3.6c-0.994 0-1.8 0.826-1.8 1.845l-1.2 0.001c-0.644 0-1.254 0.172-1.8 0.478v-2.94c0-1.655 1.294-3.077 3-3.077h13.2zM14.8 12.923c0.326 0 0.6 0.308 0.6 0.616l-4.8-0.001c0-0.377 0.292-0.615 0.6-0.615l3.6-0zM20.8 12.927c0.34-0.004 0.6 0.295 0.6 0.611h-4.8c0-0.382 0.292-0.615 0.6-0.615l3.6 0.004z"></path>
</symbol>
<symbol id="icon-car-garage" viewBox="0 0 32 32">
<path d="M27.384 10.629l-10.027-6.249c-0.826-0.51-1.89-0.505-2.712 0.011l-10.037 6.244c-0.623 0.392-0.795 1.191-0.385 1.786s1.248 0.759 1.872 0.367l9.916-6.168 9.904 6.174c0.227 0.14 0.482 0.207 0.733 0.207 0.444 0 0.877-0.207 1.136-0.588 0.406-0.598 0.226-1.395-0.399-1.782z"></path>
<path d="M24.211 18.753c-0.077-0.45-0.458-0.783-0.903-0.783h-0.511l-0.194-2.074c-0.207-2.218-2.003-3.896-4.177-3.896h-4.849c-2.174 0-3.969 1.679-4.177 3.896l-0.194 2.074h-0.512c-0.446 0-0.827 0.333-0.904 0.783l-0.761 4.424c-0.094 0.548 0.057 1.113 0.406 1.538 0.336 0.41 0.831 0.654 1.348 0.673v0.735c0 1.040 0.813 1.878 1.828 1.878h0.578c1.014 0 1.839-0.838 1.839-1.878v-0.723h5.953v0.721c0 1.040 0.818 1.88 1.833 1.88h0.578c1.014 0 1.834-0.839 1.834-1.88v-0.733c0.517-0.018 1.009-0.261 1.344-0.67 0.349-0.427 0.498-0.988 0.405-1.537l-0.762-4.427zM10.391 23.693c-0.856 0-1.55-0.711-1.55-1.59s0.694-1.59 1.55-1.59c0.856 0 1.551 0.711 1.551 1.59s-0.695 1.59-1.551 1.59zM10.777 17.97l0.179-1.913c0.13-1.391 1.256-2.439 2.62-2.439h0.28v0.601c0 0.522 0.404 0.937 0.913 0.937h2.464c0.508 0 0.92-0.416 0.92-0.937v-0.601h0.273c1.363 0 2.489 1.048 2.619 2.439l0.18 1.913-10.446-0zM21.608 23.693c-0.856 0-1.55-0.711-1.55-1.59s0.694-1.59 1.55-1.59c0.857 0 1.551 0.711 1.551 1.59s-0.695 1.59-1.551 1.59z"></path>
</symbol>
<symbol id="icon-stairs" viewBox="0 0 33 32">
<path d="M27.288 9h-4.356c-0.669 0-1.212 0.537-1.212 1.2v3.114h-3.145c-0.669 0-1.212 0.536-1.212 1.199v3.114h-3.145c-0.669 0-1.212 0.537-1.212 1.2v3.264h-3.296c-0.322 0-0.63 0.126-0.857 0.351s-0.355 0.531-0.355 0.849l0 2.51c0 0.664 0.543 1.2 1.212 1.2h17.576c0.669 0 1.212-0.537 1.212-1.2v-15.6c0-0.663-0.542-1.2-1.212-1.2z"></path>
<path d="M21.264 5.245c-0.322-0.321-0.848-0.328-1.178-0.015-5.343 5.075-10.426 10.032-15.342 14.825-0.156 0.152-0.244 0.36-0.244 0.575v5.558c0 0.448 0.373 0.812 0.833 0.812s0.833-0.364 0.833-0.812v-5.222c4.836-4.715 9.836-9.588 15.082-14.572 0.329-0.313 0.336-0.827 0.015-1.148z"></path>
</symbol>
<symbol id="icon-call" viewBox="0 0 32 32">
<path d="M11.179 3.306c0.7-0.211 1.451-0.176 2.129 0.099s1.24 0.774 1.594 1.414l0.12 0.238 1.058 2.354c0.321 0.714 0.426 1.507 0.3 2.281s-0.476 1.492-1.007 2.068l-0.211 0.211-1.67 1.557c-0.301 0.285-0.075 1.387 1.014 3.272 0.978 1.696 1.776 2.488 2.166 2.531h0.069l0.085-0.016 3.28-1.003c0.441-0.135 0.911-0.141 1.355-0.015s0.842 0.375 1.147 0.721l0.147 0.184 2.17 3.008c0.426 0.589 0.638 1.306 0.602 2.032s-0.318 1.418-0.8 1.963l-0.195 0.202-0.869 0.822c-0.779 0.737-1.753 1.236-2.807 1.436s-2.143 0.093-3.137-0.308c-3.096-1.248-5.909-4.099-8.464-8.525-2.56-4.437-3.624-8.304-3.149-11.616 0.144-1.001 0.556-1.945 1.194-2.731s1.475-1.384 2.426-1.732l0.309-0.102 1.146-0.346z"></path>
</symbol>
<symbol id="icon-eva_arrow" viewBox="0 0 32 32">
<path d="M13.324 6.669c-0.309-0.001-0.608 0.108-0.846 0.306-0.134 0.112-0.245 0.249-0.326 0.404s-0.131 0.324-0.147 0.498c-0.016 0.174 0.002 0.35 0.054 0.517s0.136 0.322 0.247 0.457l5.923 7.131-5.712 7.144c-0.11 0.136-0.192 0.293-0.241 0.461s-0.065 0.344-0.047 0.519c0.018 0.174 0.071 0.343 0.154 0.497s0.196 0.29 0.332 0.399c0.137 0.121 0.297 0.213 0.471 0.268s0.357 0.075 0.538 0.056c0.181-0.019 0.357-0.075 0.515-0.165s0.297-0.212 0.407-0.359l6.386-7.982c0.195-0.238 0.301-0.537 0.301-0.845s-0.106-0.607-0.301-0.845l-6.611-7.982c-0.133-0.161-0.301-0.288-0.492-0.371s-0.398-0.12-0.606-0.107z"></path>
</symbol>
<symbol id="icon-star" viewBox="0 0 32 32">
<path d="M29.263 12.239c-0.084-0.247-0.238-0.464-0.444-0.624s-0.454-0.257-0.714-0.277l-7.601-0.604-3.289-7.281c-0.105-0.235-0.275-0.434-0.491-0.574s-0.467-0.214-0.724-0.214c-0.257-0-0.508 0.074-0.724 0.214s-0.386 0.339-0.491 0.573l-3.289 7.283-7.601 0.604c-0.255 0.020-0.5 0.114-0.703 0.269s-0.358 0.366-0.445 0.607-0.103 0.502-0.046 0.752c0.057 0.25 0.185 0.478 0.369 0.656l5.617 5.476-1.987 8.603c-0.060 0.26-0.041 0.533 0.056 0.782s0.266 0.464 0.486 0.616c0.22 0.152 0.48 0.234 0.748 0.236s0.529-0.076 0.751-0.225l7.26-4.84 7.26 4.84c0.227 0.151 0.495 0.228 0.768 0.222s0.537-0.095 0.757-0.256c0.22-0.161 0.386-0.385 0.475-0.642s0.097-0.536 0.023-0.799l-2.439-8.533 6.048-5.443c0.396-0.357 0.541-0.915 0.371-1.42z"></path>
</symbol>
</defs>
</svg>
